/* XPM */
static char *a111e73251c048078c6c9093e9603135515pHXqflI8UFdbw[] = {
/* columns rows colors chars-per-pixel */
"64 64 6 1 ",
"  c None",
". c #FF2E31",
"X c #FF9900",
"o c #FFB300",
"O c #FEC94B",
"+ c #FFDE91",
/* pixels */
"                                                                ",
"                                                                ",
"      ....................................................      ",
"      ....................................................      ",
"      ....................................................      ",
"      ....................................................      ",
"  .............OOOOOOOOOOOOOOOOOOOOOOOOOOOOOOOOOO.............  ",
"  ...........OOOOOOOOOOOOOOOOOOOOOOOOOOOOOOOOOOOOOO...........  ",
"  .........OOOOOOOOOOOoooooooooooooooooooooooooOOOOOO.........  ",
"  ........OOOOOOOOOOOOOooooooooooooooooooooooooooOOOOO........  ",
"  ......OOOOOOOOOOO+++OOoooooooooooooooooooooooooooOOOOO......  ",
"  ......OOOOOOOOOO+++++OooooooooooooooooooooooooooooOOOO......  ",
"  .....OOOOOOOOOOO+++++OooooooooooooooooooooooooooooooOOO.....  ",
"  .....OOOOOOOOOOO+++++OooooooooooooooooooooooooooooooOOO.....  ",
"  ....OOOOOO+++OOOO+++OOoooooooooooooooooooooooooooooooOOO....  ",
"  ....OOOOO+++++OOOOOOOoooooooooooooooooooooooooooooooooOO....  ",
"  ....OOOO+++++++OOoooooooooooooooooooooooooooooooooooooOO....  ",
"  ....OOOO+++++++OooooooooooooooooooooooooooooooooooooooOO....  ",
"  ....OOOO+++++++OooooooooooooooooooooooooooooooooooooooOO....  ",
"  ....OOOOO+++++OOooooooooooooooooooooooooooooooooooooooOO....  ",
"  ....OOOOOO+++OOoooooooooooooooooooooooooooooooooooooooOO....  ",
"  ....OOooOOOOOOOoooooooooooooooooooooooooooooooooooooooOO....  ",
"  ....OOoooOOOOOooooooooooooooooooooooooooooooooooooooooOO....  ",
"  ....OOooooooooooooooooooooooooooooooooooooooooooooooooOO....  ",
"  ....OOooooooooooooooooooooooooooooooooooooooooooooooooOO....  ",
"  ....OOooooooooooooooooooooooooooooooooooooooooooooooooOO....  ",
"  ....OOooooooooooooooooooooooooooooooooooooooooooooooooOO....  ",
"  ....OOooooooooooooooooooooooooooooooooooooooooooooooooOO....  ",
"  ....OOooooooooooooooooooooooooooooooooooooooooooooooooOO....  ",
"  ....OOooooooooooooooooooooooooooooooooooooooooooooooooOO....  ",
"  ....OOooooooooooooooooooooooooooooooooooooooooooooooooOO....  ",
"  ....OOoooooooooooooooXXXXXXXXXXXXXXXXXooooooooooooooooOO....  ",
"  ....OOooooooooooooXXXXXXXXXXXXXXXXXXXXXXXoooooooooooooOO....  ",
"  ....OOoooooooooXXXXXXXXXXXXXXXXXXXXXXXXXXXXXooooooooooOO....  ",
"  ....OOooooooooXXXXXXXXXXXXXXXXXXXXXXXXXXXXXXXoooooooooOO....  ",
"  ....OOooooooXXXXXXXXXXXXXXXXXXXXXXXXXXXXXXXXXXXoooooooOO....  ",
"  ....OOoooooXXXXXXXXXXXXXXXXXXXXXXXXXXXXXXXXXXXXXooooooOO....  ",
"  ....OOooooXXXXXXXXXXXXXXXXXXXXXXXXXXXXXXXXXXXXXXXXooooOO....  ",
"  ....OOoooXXXXXXXXXXXXXXXXXXXXXXXXXXXXXXXXXXXXXXXXXXoooOO....  ",
"  ....OOooXXXXXXXXXXXXXXXXXXXXXXXXXXXXXXXXXXXXXXXXXXXXooOO....  ",
"  ....OOooXXXXXXXXXXXXXXXXXXXXXXXXXXXXXXXXXXXXXXXXXXXXooOO....  ",
"  ....OOooXXXXXXXXXXXXXXXXXXXXXXXXXXXXXXXXXXXXXXXXXXXXooOO....  ",
"  ....OOooXXXXXXXXXXXXXXXXXXXXXXXXXXXXXXXXXXXXXXXXXXXXooOO....  ",
"  ....OOooXXXXXXXXXXXXXXXXXXXXXXXXXXXXXXXXXXXXXXXXXXXXooOO....  ",
"  .....OOoXXXXXXXXXXXXXXXXXXXXXXXXXXXXXXXXXXXXXXXXXXXXoOO.....  ",
"  ......OoXXXXXXXXXXXXXXXXXXXXXXXXXXXXXXXXXXXXXXXXXXXXoO......  ",
"  ......OooXXXXXXXXXXXXXXXXXXXXXXXXXXXXXXXXXXXXXXXXXXooO......  ",
"  ......OooXXXXXXXXXXXXXXXXXXXXXXXXXXXXXXXXXXXXXXXXXXooO......  ",
"  ......OOooXXXXXXXXXXXXXXXXXXXXXXXXXXXXXXXXXXXXXXXXooOO......  ",
"  .......OOooXXXXXXXXXXXXXXXXXXXXXXXXXXXXXXXXXXXXXXooOO.......  ",
"  ........OOoooXXXXXXXXXXXXXXXXXXXXXXXXXXXXXXXXXXoooOO........  ",
"  .........OOOoooXXXXXXXXXXXXXXXXXXXXXXXXXXXXXXoooOOO.........  ",
"  ..........OOOOoooXXXXXXXXXXXXXXXXXXXXXXXXXXoooOOOO..........  ",
"  ............OOOOooXXXXXXXXXXXXXXXXXXXXXXXXooOOOO............  ",
"  ..............OOOooooXXXXXXXXXXXXXXXXXXooooOOO..............  ",
"  ................OOOOooooooooooooooooooooOOOO................  ",
"  .................OOOOOOOOOOOOOOOOOOOOOOOOOO.................  ",
"  ......................OOOOOOOOOOOOOOOO......................  ",
"      ....................................................      ",
"      ....................................................      ",
"      ....................................................      ",
"      ....................................................      ",
"                                                                ",
"                                                                "
};
