/* XPM */
static char *c1b8f933cf804880cb42ecdfa72360ccqtv7N4cj6aUPGQbh[] = {
/* columns rows colors chars-per-pixel */
"64 64 12 1 ",
"  c None",
". c black",
"X c #312812",
"o c #55461F",
"O c #0A0C47",
"+ c #C12A2C",
"@ c #E52F32",
"# c #FF0040",
"$ c #D9D902",
"% c yellow",
"& c #21FBE5",
"* c #FFFFE9",
/* pixels */
"                                                                ",
"                                                                ",
"                                                                ",
"                                                                ",
"                                 ****                           ",
"                                **&&**                          ",
"                               **&&&&**                         ",
"                               *&&&&&&**                        ",
"                              *&&&&&*****                       ",
"                             ****&***&&&*                       ",
"                             **&&**&&&&&**                      ",
"                             *&&&**&&&&&&*                      ",
"                            **&&&*&&&&&&&&*                     ",
"      *********             *&&&&%%%%%%%%&%%                    ",
"    **&&&&&**&***           *&&%%%%%%%%%%%%%%%%                 ",
"   **&&&&&**&&&&***        %%%%%%%%%%%%%%%%%%%%%%               ",
"   *&&&&&&*&&&&&&&**.    %%%%%%%%%%%%%%%%%%%%%%%%%%             ",
"   *&&&&&&*&&&&&&&&**  %%%%%%%%%%%%%%%%%%%%%%%%%%%%%%           ",
"   *&&&&&&**&&&*******%%%%%%%%%%%%%%%%%%%%%%%OOOOOOO%%%         ",
"   *&*******&&**&&&&&**%%%%%%%%%%%%%%%%%%%%%O.***...O%%%        ",
"   ***&&&&***&*&&&&&&&**%%%%%%%%%%%%%%%%%%%O.*****...O%%        ",
"    *&&&&&&&***&&&&%%%%%%%%%%%%%%%%%%%%%%%O..*****....O%%       ",
"    **&&&&&&&**&&&%%%%%%%%%%OOOOOOOO%%%%%O....***......O%%      ",
"     *&&&&&*****&&%%%%%%%%OOO.****.OOO%%%O.**..........O%%      ",
"      *&&&*&&&**&&%%%%%%%OO..******..OO%%O.**..*.......O%%%     ",
"       &&*&&&&&**%%%%%%%OO...******...O%%O.............O%%%     ",
"       *&*&&&&&&*%%%%%%%O.....****....O%%O......%%%%%%%%%%%     ",
"        **&&&&&&*%%%%%%%O..**.........OO%O.....%%%####%%%%%%    ",
"         *&&&&&&%%%%%%%OO..**..........O%O....%%######%%%%%%    ",
"         o*&&&&&%%%%%%%O......*........O%O...%%######%%%%%%%    ",
"         oo*&&&&%%%%%%%O..............OO%%%%%%%####%%%%%%%%%    ",
"        oooo*&&&%%%%%%%O..............%%%%%%%%%%%%%%%%%%%%%%    ",
"        ooooo*&&%%%%%%%OO.......%%%%%%%%%%%%%%%%%%%%%%%%%%%$    ",
"        ooooo%**%%%%%%%%O......%%%%%%%%%%%%%%%%..%%%%%%%%%%$    ",
"        ooooo%%%%%%%%%%%OO...%%%%####%%%%%%%%%...%%%%%%%%%$$    ",
"        ooooo%%%%%%%%%%%%OO.%%%######%%%%%%%......%%%%%%%%$$    ",
"       %ooooo%%%%%%%%%%%%%O%%#######%%%%%%........%%%%%%%$$     ",
"       %oooooo%%%%%%%%%%%%%%%#####%%%%%%+@@.......%%%%%%%$$     ",
"       %oooooo%%%%%%%%%%%%%%%%%%%%%%%%%%++@@@@....%%%%%%$$$     ",
"       %oooooo%%%%%%%%%%%%%%%%%%%%%%%%%%+++@@@@...%%%%%$$$$     ",
"       %oooooooo%%%%%%%%%%%%%%%%%%%%%%%%++++@@@@..%%%%%$$$      ",
"       %%ooooooo%%%%%%%%%%%%%%%%%%%%%%%%%+++++@@.%%%%%$$$$      ",
"       %%oooooooo%%%%%%%%%%%%%%%%%%%%%%%%+++++@@@%%%%$$$$       ",
"       %%%oooooooo%%%%%%%%%%%%%%%%%%%%%%%%%+++++@%%%%$$$X       ",
"       %%%oooooooo%%%%%%%%%%%%%%%%%%%%%%%%%%++++%%%%$$$$XX      ",
"       %%%ooooooooo%%%%%%%%%%%%%%%%%%%%%%%%%%%%%%%%$$$$XXXX     ",
"        %%%ooooooooo%%%%%%%%%%%%%%%%%%%%%%%%%%%%%%$$$$$XXXX     ",
"        %%%%ooooooooo%%%%%%%%%%%%%%%%%%%%%%%%%%%%$$$$$XXXXXX    ",
"         %%%oooooooooo%%%%%%%%%%%%%%%%%%%%%%%%%$$$$$$ XXXXXX    ",
"         %%%%ooooooooooo%%%%%%%%%%%%%%%%%%%%%$$$$$$$$  XXXXX    ",
"         %%%%%oooooooooooo%%%%%%%%%%%%%%%%%$$$$$$$$$    XXXX    ",
"          %%%%%oooooooooooooooooo%%%%%%%oooXXXXXXXX      XX     ",
"          %%%%%%ooooooooooooooooooooooooXXXXXXXXXX              ",
"         ..%%%%%%ooooooooooooooooooooXXXXXXXXXX$                ",
"   ..   ....%%%%%%%oooooooooooooXXXXXXXXXXXXX$$                 ",
"   ..........%%%%%%%%oooooXXXXXXXXXXXXXXXXXXX$                  ",
"    ..........%%%%%%%%%XXXXXXXXXXXXXXXX$XXXXXX                  ",
"      ..........$$$$$$$$$$$XXXXXX$$$$$$$XXXXXXX                 ",
"        .....      $$$$$$$$$$$$$$$$$$$$$ XXXXXX                 ",
"                      $$$$$$$$$$$$        XXXXX                 ",
"                                           XXXX                 ",
"                                            XX                  ",
"                                                                ",
"                                                                "
};
