/* XPM */
static char *_b013955c7b140c2d853cd959b3c03c4eo2IghqKiV6jLYMp[] = {
/* columns rows colors chars-per-pixel */
"16 16 9 1 ",
"  c None",
". c black",
"X c #312812",
"o c #55461F",
"O c #FF0040",
"+ c #D9D902",
"@ c yellow",
"# c #26FBE5",
"$ c #F3FFE2",
/* pixels */
"    $$$         ",
"   $##$     $$$$",
"   @@@@@@@ $$##$",
"  @$.@@@@@@@###$",
" @....@@@@@@@#$$",
" @@@..@@$..@@@$ ",
" @@@@.@...$.@@  ",
" @@@@@@@@...@@o ",
" @@@@@@@@@..@@o ",
" +@@..@@@@.@@@o ",
" +@..OO@@@@@@oo ",
" X+OOO@@@@@@oo@ ",
"XX+++@@@@@@oo@@ ",
"XX +++++@ooo@@. ",
"    XXXXXXo@@...",
"      XX        "
};
