/* XPM */
static char *_29383e1707746a8e3374c98128cafecYjmYs2txVOU2o4v6[] = {
/* columns rows colors chars-per-pixel */
"48 48 12 1 ",
"  c None",
". c black",
"X c #312812",
"o c #55461F",
"O c #0A0C47",
"+ c #C12A2C",
"@ c #E52F32",
"# c #FF0040",
"$ c #D9D902",
"% c yellow",
"& c #21FBE5",
"* c #FFFFE9",
/* pixels */
"                                                ",
"                          ***                   ",
"                         *&&&*                  ",
"                        *&&&&&*                 ",
"                       *&&&&****                ",
"                      ***&***&&*                ",
"                      **&**&&&&**               ",
"                     **&&*&&&&&&&*              ",
"   *******           *&&&%%%%%%%&%%             ",
"  *&&&&*&***         *&&%%%%%%%%%%%%%           ",
" *&&&&*&&&&**       %%%%%%%%%%%%%%%%%%%         ",
" *&&&&*&&&&&&*.    %%%%%%%%%%%%%%%%%%%%%%       ",
" *&&&&*&&&&****  %%%%%%%%%%%%%%%%%%%%%%%%%      ",
" *&&***&&**&&&&**%%%%%%%%%%%%%%%%%%O***...%%    ",
" ***&&**&*&&&&&&**%%%%%%%%%%%%%%%%O.****..O%%   ",
" *&&&&&***&&&%%%%%%%%%%%%%%%%%%%%O..****...O%%  ",
" *&&&&&&**&&&%%%%%%%%OOOOOOO%%%%O...***.....O%  ",
" *&&&&&****&&%%%%%%OOO.***.OOO%%O.**........O%% ",
"  *&&&*&&**&&%%%%%%O..*****..O%%O.**.*......O%% ",
"   *&*&&&&&*%%%%%%O....***....%%O.....%%%%%%%%%%",
"    **&&&&&*%%%%%%O.**........O%O....%%%###%%%%%",
"     *&&&&&%%%%%%OO.**........O%O...%%#####%%%%%",
"     o*&&&&%%%%%%O.....*......O%O...%#####%%%%%%",
"     oo&&&&%%%%%%O............O%%%%%%####%%%%%%%",
"    ooo*&&&%%%%%%O......%%%%%%%%%%%%%%%%%%%%%%%%",
"    oooo%**%%%%%%%O.....%%%%%%%%%%%%%..%%%%%%%%%",
"    oooo%%%%%%%%%%O...%%%####%%%%%%%...%%%%%%%%%",
"    oooo%%%%%%%%%%%O.%%%#####%%%%%%.....%%%%%%%%",
"    oooo%%%%%%%%%%%O%%######%%%%%.......%%%%%%% ",
"    ooooo%%%%%%%%%%%%%####%%%%%+@@......%%%%%%$ ",
"    ooooo%%%%%%%%%%%%%%%%%%%%%%+++@@@...%%%%$$$ ",
"    ooooooo%%%%%%%%%%%%%%%%%%%%++++@@@..%%%%$$$ ",
"    %oooooo%%%%%%%%%%%%%%%%%%%%%++++@@.%%%%$$$  ",
"    %ooooooo%%%%%%%%%%%%%%%%%%%%++++@@@%%%$$$$  ",
"    %%ooooooo%%%%%%%%%%%%%%%%%%%%%++++@%%%$$$   ",
"    %%ooooooo%%%%%%%%%%%%%%%%%%%%%%+++%%%$$$$   ",
"    %%%ooooooo%%%%%%%%%%%%%%%%%%%%%%%%%%$$$$X   ",
"    %%%oooooooo%%%%%%%%%%%%%%%%%%%%%%%%$$$$XXXX ",
"     %%ooooooooo%%%%%%%%%%%%%%%%%%%%%$$$$$ XXXX ",
"     %%%oooooooooo%%%%%%%%%%%%%%%%%%$$XXX   XXX ",
"     %%%%oooooooooo%%%%%%%%%%%%%%%$$XXXX        ",
".     %%%%ooooooooooooooo%%%%%%oooXXXXX         ",
"...  ..%%%%%oooooooooooooooooXXXXXXXXXX         ",
" ......%%%%%%oooooooooooXXXXXXXXXXXXXXX         ",
"  ......%%%%%%%ooooXXXXXXXXXXXXXXXX$XXXX        ",
"    ......%%%%%%oooXXXXXXXXXXXXX$$$  XXX        ",
"            %%%%%%%$$$$$$$$$$$$$                ",
"                                                "
};
