/* XPM */
static char *f322c8b8588546e8d96e28f5aa6132e9NxpOAFegiyWJxSX1[] = {
/* columns rows colors chars-per-pixel */
"64 64 6 1 ",
"  c None",
". c #C37707",
"X c #FF9800",
"o c #FFB300",
"O c #FFCA49",
"+ c #FCD781",
/* pixels */
"                                                                ",
"                                                                ",
"                                                                ",
"                                                                ",
"                                                                ",
"                                                                ",
"                                                                ",
"                                                                ",
"                                                                ",
"                                                                ",
"                                                                ",
"                                                                ",
"                                                                ",
"                                                                ",
"                                                                ",
"                                                                ",
"                                                                ",
"                                                                ",
"                                                                ",
"                                                                ",
"                                                                ",
"                                                                ",
"                                                                ",
"                                                                ",
"                                                                ",
"                                                                ",
"                                                                ",
"                                                                ",
"                                                                ",
"                                                                ",
"                         XXXXXXXXXXXXXXXX                       ",
"                   XXXXXXXooooooooooooooXXXXX                   ",
"               XXXXXooooooooooooooooooooooooXXXX                ",
"             XXXooooooooooOOOOOOOOOOOOOOOooooooXXX              ",
"           XXXoooooooOOOOOOOOOOOOOOOOOOOOOOOOooooXXXX           ",
"         XXXooooOOOOOOOOOOOOOOOOOOOOOOOOOOOOOOOoooooXXXX        ",
"        XXooooOOOO+++OOOOooooooooooooooOOOOOOOOOOOoooooXX       ",
"      XXXoooOOOO+++++OOooooooooooooooooooooooOOOOOOOOoooXX      ",
"     XXoooOOOO++++OOOOooooooooooooooooooooooooooOOOOOOoooXX     ",
"    XXooOOOOO++++OOOoooooooooooooooooooooooooooooooOOOOOooXX    ",
"   XXooOOOOOO+++OOoooOooooooooooooooooooooooooooooooooOOOooXX   ",
"   XooOOOoOOOOOOOoooOOOooooooooooooooooooooooooooooooooOOOooX   ",
"  XXooOOoooOOOOOoooooOooooooooooooooooooooooooooooooooooOOOoXX  ",
"  XooOOooooooooooooooooooooooooooooooooooooooooooooooooooOOooX  ",
"  XoOOooooooooooooooooooooooooooooooooooooooooooooooooooooOOoXX ",
" XXoOooooooooooooooooooooooooooooooooooooooooooooooooooooooOooX ",
" XooOooooooooooooooooooooooooooooooooooooooooooooooooooooooOooX ",
" XoOOooooooooooooooooooooooooooooooooooooooooooooooooooooooOooX ",
" XoOoooooooooooooooooooooooooooooooooooooooooooooooooooooooOooX ",
" XoOoooooooooooooooooooooooooooooooooooooooooooooooooooooooOooX ",
" XoOoooooooooooooooooooooooooooooooooooooooooooooooooooooooOooX ",
" XoOoooooooooooooooooooooooooooooooooooooooooooooooooooooooOooX ",
" XoOOOoooooooooooooooXXXXXXXXXXXXXXXXXXXXXXXXXoooooooooooooOoo. ",
" .ooOOooooooXXXXXXXXXXXXXXXXXXXXXXXXXXXXXXXXXXXXXXXoooooooOOoo. ",
" .oooOooXXXXXXXXXXXXXXXXXXXXXXXXXXXXXXXXXXXXXXXXXXXXXXXXooOoo.. ",
" ..ooOOooXXXXXXXXXXXXXXXXXXXXXXXXXXXXXXXXXXXXXXXXXXXXXXXoOOoo.  ",
"  .oooOOoooXXXXXXXXXXXXXXXXXXXXXXXXXXXXXXXXXXXXXXXXXXooooOoo..  ",
"  ..oooOOOooooooooXXXXXXXXXXXXXXXXXXXXXXXXXXXXXXXXoooooOOOoo.   ",
"   .oooooOOOOOOOOOoooooooooooooooooooooooooooooooooOOOOOooo..   ",
"   ...oooooooooooOOOOOOOOOOOOOOOOOOOOOOOOOOOOOOOOOOOoooooo..    ",
"     ...oooooooooooooooooooooooooooooooooooooooooooooooo...     ",
"       ....oooooooooooooooooooooooooooooooooooooooooo....       ",
"          ............................................          ",
"                                                                "
};
