/* XPM */
static char *cb32e125abce481abb5b167f281a86cexyEEpBjnKzhm5DAQ[] = {
/* columns rows colors chars-per-pixel */
"48 48 6 1 ",
"  c None",
". c #C57805",
"X c #FF9900",
"o c #FFB300",
"O c #FFC949",
"+ c #FDD982",
/* pixels */
"                                                ",
"                                                ",
"                                                ",
"                                                ",
"                                                ",
"                                                ",
"                 XXXXXXXXXXXXXXXX               ",
"               XXXooooooooooooooXXX             ",
"             XXXoooOOOOOOOOOOOooooXX            ",
"            XXoooOOOOOOOOOOOOOOOOooXXX          ",
"           XXooOOOOOOOOOOOOOOOOOOOoooXX         ",
"          XXooOOOO++OOooooOOOOOOOOOOooXX        ",
"         XXooOOOOO++OooooooooooOOOOOOooXX       ",
"        XXooOOOOOOOOOoooooooooooooOOOOooX       ",
"       XXooOO+++OOoooooooooooooooooOOOOoXX      ",
"       XooOO+++++OoooooooooooooooooooOOooXX     ",
"      XXoOOO+++++OoooooooooooooooooooOOOooX     ",
"      XooOOOO+++OOoooOOoooooooooooooooOOOoXX    ",
"     XXoOOOoOOOOOooooOOoooooooooooooooOOOooX    ",
"     XooOOOooooooooooooooooooooooooooooOOooX    ",
"     XooOOoooooooooooooooooooooooooooooOOooX    ",
"     XooOoooooooooooooooooooooooooooooooOooX    ",
"     XooOoooooooooooooooooooooooooooooooOooX    ",
"     XooOoooooooooooooooooooooooooooooooOooX    ",
"     XooOoooooooooooooooooooooooooooooooOooX    ",
"     XooOoooooooooooooooooooooooooooooooOooX    ",
"     XooOoooooooooooooooooooooooooooooooOooX    ",
"     XooOoooooooooXXXXXXXXXXXXXoooooooooOooX    ",
"     XXoOOooooooXXXXXXXXXXXXXXXXXoooooooOoXX    ",
"      XoOOooooXXXXXXXXXXXXXXXXXXXXXooooOOoX     ",
"      .oOOoooXXXXXXXXXXXXXXXXXXXXXXXoooOOo.     ",
"      .oOOOooXXXXXXXXXXXXXXXXXXXXXXXooOOOo.     ",
"      .ooOOoooXXXXXXXXXXXXXXXXXXXXXooOOOoo.     ",
"      ..oOOOooooXXXXXXXXXXXXXXXXXXoooOOOo..     ",
"       .ooOOOOoooooXXXXXXXXXXXXXooooOOOoo.      ",
"       ..oOOOOOOooooooXXXXXXooooooOOOOoo..      ",
"        .oooOOOOOOOoooooooooooooOOOOOoo..       ",
"        ...ooOOOOOOOOOOOOOOOOOOOOOOOoo..        ",
"          ..oooOOOOOOOOOOOOOOOOOOOOoo..         ",
"           ...ooooooooooooooooooooo...          ",
"             .......................            ",
"                                                ",
"                                                ",
"                                                ",
"                                                ",
"                                                ",
"                                                ",
"                                                "
};
