/* XPM */
static char *_bacd461e45540c8dfe4c499245d25ed8rnSBE8qyTnxsO9P[] = {
/* columns rows colors chars-per-pixel */
"64 64 6 1 ",
"  c None",
". c #C37707",
"X c #FF9800",
"o c #FFB300",
"O c #FFCA49",
"+ c #FDD981",
/* pixels */
"                                                                ",
"                                                                ",
"                                                                ",
"                                                                ",
"                                                                ",
"                                                                ",
"                                                                ",
"                                                                ",
"                                                                ",
"                                                                ",
"                                                                ",
"                                                                ",
"                                                                ",
"                                                                ",
"                                                                ",
"                                                                ",
"                                                                ",
"                                                                ",
"                                                                ",
"                                                                ",
"                                                                ",
"                                                                ",
"                                                                ",
"                                                                ",
"                                                                ",
"                                                                ",
"                                                                ",
"                                                                ",
"                                                                ",
"                                                                ",
"                                                                ",
"                                                                ",
"                                                                ",
"                                                                ",
"        XXXXXXXXXX                           XXXXXXXXXXX        ",
"      XXXoooooooooXX                      XXXXoooooooooXXX      ",
"     XXoooOOOOOOOooXXX                 XXXXooooOOOOOOOoooXX     ",
"    XXooOOO+++++OOoooXXXX             XXooooOOOOOOOOOOOOooXX    ",
"   XXooOOO+++++++OOOooooXXXXXXXXXXXXXXXoooOOOOOOOOOOOOOOOooXX   ",
"   XooOO+++OOOOOOOOOOOOoooooooooooooooooOOOoooooOOOOOOOOOOOoXX  ",
"  XXoOO++OOOOOooooooooOOOOOOOOOOOOOOOOOOOooooooooooOOOOOOOOooX  ",
"  XooOOOOOOooooOOooooooooooooooooooooooooooooooooooooOOOOOOOoXX ",
"  XoOOOOOoooOOOOOoooooooooooooooooooooooooooooooooooooooOOOOooX ",
" XXoOOOooooOOOOOooooooooooooooooooooooooooooooooooooooooooOOOoX ",
" XooOOoooooOOooooooooooooooooooooooooooooooooooooooooooooooOOoXX",
" XoOOoooooooooooooooooooooooooooooooooooooooooooooooooooooooOooX",
"XXoOOoooooooooooooooooooooooooooooooooooooooooooooooooooooooOOoX",
"XooOoooooooooooooooooooooooooooooooooooooooooooooooooooooooooOoX",
"XoOOoooooooooooooooooooooooooooooooooooooooooooooooooooooooooOoX",
"XoOooooooooooooooooooooooooooooooooooooooooooooooooooooooooooOoX",
"XoOooooooooooooooooooooooooooooooooooooooooooooooooooooooooooOoX",
"XoOooooooooooooooooooooooooooooooooooooooooooooooooooooooooooOoX",
"XoOooooooooooooooooooooooooooooooooooooooooooooooooooooooooooOo.",
".oOOooooooooooooooooooooooooooooooooooooooooooooooooooooooooOOo.",
".ooOOoooooooXXXXXXXXXooooooooooooooooooooooXXXXXXXXooooooooOOoo.",
"..ooOooooXXXXXXXXXXXXXXXoooooooooooooooXXXXXXXXXXXXXXXXXoooOoo..",
"...oOOoooXXXXXXXXXXXXXXXXXXXXXXXXXXXXXXXXXXXXXXXXXXXXXXXooOOo.. ",
" ..ooOOooooXXXXXXXXXXXXXXXXXXXXXXXXXXXXXXXXXXXXXXXXXXooooOOoo.  ",
"  ..oOOOOooooXXXXXXXXXXXXXXXXXXXXXXXXXXXXXXXXXXXXXoooooOOOOo..  ",
"  ..oooOOOOoooXXXXXXXXXXXXXXXXXXXXXXXXXXXXXXXXXXXooOOOOOOOoo.   ",
"   ...oooOOOOoooooooooooooooooooooooooooooooooooooOOooooooo..   ",
"    ....ooooOOOOOOOOOOOOOOOOOOOOOOOOOOOOOOOOOOOOOOOoooooo...    ",
"      .....oooooooooooooooooooooooooooooooooooooooooo.....      ",
"         ..............................................         "
};
