/* XPM */
static char *_b42352d1a1a4c778908d68057bc158a43qzuYtjGoRhDD3l[] = {
/* columns rows colors chars-per-pixel */
"32 32 6 1 ",
"  c None",
". c #C57805",
"X c #FF9900",
"o c #FFB300",
"O c #FFC949",
"+ c #FDD982",
/* pixels */
"                                ",
"                                ",
"                                ",
"                                ",
"          XXXXXXXXXXXX          ",
"        XXXooooooooooXXX        ",
"       XXoooOOOOOOOOoooXX       ",
"      XXooOOO+OOOOOOOOooXX      ",
"     XXooOOOOOOOOOOOOOOooXX     ",
"     XooOO++OOOoooooOOOOooX     ",
"    XXoOO+++OoooooooooOOOoXX    ",
"    XooOO++OOooOoooooooOOooX    ",
"   XXoOOoOOOooOOooooooooOOoXX   ",
"   XooOooooooooooooooooooOooX   ",
"   XooOooooooooooooooooooOooX   ",
"   XooOooooooooooooooooooOooX   ",
"   XooOooooooooooooooooooOooX   ",
"   XooOooooooooooooooooooOooX   ",
"   XooOooooXXXXXXXXXXooooOooX   ",
"   XooOooXXXXXXXXXXXXXXooOooX   ",
"   .ooOooXXXXXXXXXXXXXXooOoo.   ",
"   .ooOOooXXXXXXXXXXXXooOOoo.   ",
"   ..oOOOoooXXXXXXXXoooOOOo..   ",
"    .ooOOOOooooooooooOOOOoo.    ",
"    ..ooOOOOOOOOOOOOOOOOoo..    ",
"     ..ooOOOOOOOOOOOOOOoo..     ",
"      ..ooooooooooooooo...      ",
"       .................        ",
"                                ",
"                                ",
"                                ",
"                                "
};
