/* XPM */
static char *_e51a52748684570e7f34371360c19c5w8QYQAQrfJKkfsbV[] = {
/* columns rows colors chars-per-pixel */
"64 64 7 1 ",
"  c None",
". c #C37808",
"X c #FF9700",
"o c #FF9900",
"O c #FFB400",
"+ c #FFC949",
"@ c #FDD981",
/* pixels */
"    oO+++++++OOOOOOOOOOOOOOOOOOOOOOOOOOOOOOOOOOOOOOOOOOO+Oo     ",
"    oO++++++++OOOOOOOOOOOOOOOOOOOOOOOOOOOOOOOOOOOOOOOOO++Oo     ",
"    oO++++@@+++OOOOOOOOOOOOOOOOOOOOOOOOOOOOOOOOOOOOOOOO+OOo     ",
"    oO+++@@@@++OOOOOOOOOOOOOOOOOOOOOOOOOOOOOOOOOOOOOOO++OOo     ",
"    oOO++@@@@+OOOOOOOOOOOOOOOOOOOOOOOOOOOOOOOOOOOOOOOO++Ooo     ",
"    ooO+++@@++OOOOOOOOOOOOOOOOOOOOOOOOOOOOOOOOOOOOOOO++OOo      ",
"     oO++++++OOOOOOOOOOOOOOOOOOOOOOOOOOOOOOOOOOOOOOO+++Ooo      ",
"     oO+++OOOOOOOOOOOOOOOOOOOOOOOOOOOOOOOOOOOOOOOOO+++OOo       ",
"     oOO++OOOOOOOOOOOOOOOOOOOOOOOOOOOOOOOOOOOOOOOO+++OOoo       ",
"     ooO+++OOOOOOOOOOOOOOOOOOOOOOOOOOOOOOOOOOOOOOO++OOoo        ",
"      oOO+++OOOOOOOOOOOOOOOOOOOOOOOOOOOOOOOOOOOOO++OOOo         ",
"      ooO+++OOOOOOOOOOOOOOOOOOOOOOOOOOOOOOOOOOOO++OOOoo         ",
"       oOO+++OOOOOOOOOOOOOOOOOOOOOOOOOOOOOOOOOO+++OOoo          ",
"       ooOO++OOOOOOOOOOOOOOOOOOOOOOOOOOOOOOOOO+++OOOo           ",
"        oOO++OOOOOOOOOOOOOOOOOOOOOOOOOOOOOOOOO+++OOoo           ",
"        ooOO++OOOOOOOOOOOOOOOOOOOOOOOOOOOOOOO+++OOOo            ",
"         ooO++OOOOOOOOOOOOOOOOOOOOOOOOOOOOOO+++OOOoo            ",
"          oOO++OOOOOOOOOOOOOOOOOOOOOOOOOOOOO++OOooo             ",
"          ooOO+OOOOOOOOOOOOOOOOOOOOOOOOOOOO++OOoo               ",
"           oOO++OOOOOOOOOOOOOOOOOOOOOOOOOO+++OOo                ",
"           ooOO++OOOOOOOOOOOOOOOOOOOOOOOOO++OOoo                ",
"            oOO+++OOOOOOOOOOOOOOOOOOOOOO+++OOOo                 ",
"            ooOO++++OOOOOOOOOOOOOOOOOOO++++OOoo                 ",
"             ooOO++++++OOOOOOOOOOOOOOO++++OOoo                  ",
"              oOOO+++++OOOOOOOOOOOOOOO+++OOOo                   ",
"              ooOOO+++OOOOOOOOOOOOOOOOO++OOoo                   ",
"               ooOO+++OOOOOOOOOOOOOOOOO++Ooo                    ",
"                ooOO++OOOOOOOOOOOOOOOOO+OOo                     ",
"                 ooO++OOOOOOOOOOOOOOOOO+OOo                     ",
"                  oOO+OOOOOOOOOOOOOOOOO+OOo                     ",
"                  oOO+OOOOOOOOOOOOOOOOO+Ooo                     ",
"                  ooO+OOOOOOOOOOOOOOOOO+Oo                      ",
"                   oO+OOOOOOOOOOOOOOOOO+Oo                      ",
"                   oO+OOOOOOOOOOOOOOOOO+Oo                      ",
"                   oO+OOOOOOOOOOOOOOOOO+Oo                      ",
"                   oO+OOOOOOOOOOOOOOOOO+Oo                      ",
"                   oO+OOOOOOOOOOOOOOOOO+Ooo                     ",
"                  ooO+OOOOOOOOOOOOOOOOO+OOo                     ",
"                  oOO+OOOOOOOOOOOOOOOOO+OOoo                    ",
"                 ooOO+OOOOOOOOOOOOOOOOO+OOoo                    ",
"                 oOO++OOOOOOOOOOOOOOOOO++OOoo                   ",
"                 oOO++OOOOOOOOOOOOOOOOO+++Ooo                   ",
"                 oOO++OOOOOOOOOOOOOOOOOO++OO.                   ",
"                .oO+++OOOOOOOOOOOOOOOOOO+++O.                   ",
"                .OO++OOOOOOOOOOOOOOOOOOOO++O.                   ",
"                .OO++OOOOOOOOOOOOOOOOOOOO++O..                  ",
"                .O+++OOOOOOOOOOOOOOOOOOOO++OO.                  ",
"                .O+++OOOOOOOOOOOOOOOOOOOO++OO.                  ",
"                .OO++OOOOOOOOOOOOOOOOOOOO++O..                  ",
"                .OO++OOOOXXXXXXXXXXXXOOO+++O.                   ",
"                ..O++OOXXXXXXXXXXXXXXXOO++OO.                   ",
"                 .O+++OXXXXXXXXXXXXXXXOO++OO.                   ",
"                 .OO++OOXXXXXXXXXXXXXOO++OO..                   ",
"                 ..OO++OOXXXXXXXXXXXOO+++OO.                    ",
"                  .OOO++OOOXXXXXXXOOO+++OO..                    ",
"                  ..OOO+++OOOOOOOOO+++++OO.                     ",
"                   ..OOO+++++++++++++++OO..                     ",
"                    ..OOOO++++++++++++OOO.                      ",
"                      ...OOOOOOOOOOOOOOO..                      ",
"                        ..OOOOOOOOOOOOO..                       ",
"                          ..............                        ",
"                                                                ",
"                                                                ",
"                                                                "
};
