/* XPM */
static char *_dd7de578cd3409ad8bccf4e6630bd05oiIb7R8zDyAyrBpn[] = {
/* columns rows colors chars-per-pixel */
"48 48 127 2 ",
"   c None",
".  c #010101",
"X  c #0A0A0A",
"o  c #131313",
"O  c #1D1D1D",
"+  c #271F0F",
"@  c #2F2614",
"#  c #352A14",
"$  c #3C2E13",
"%  c #1F2020",
"&  c #202020",
"*  c #313334",
"=  c #443312",
"-  c #4C3911",
";  c #553E10",
":  c #5D430F",
">  c #65490E",
",  c #6D4E0D",
"<  c #7B570D",
"1  c #4E5357",
"2  c #4E555B",
"3  c #50565C",
"4  c #51585E",
"5  c #606A74",
"6  c #8F660F",
"7  c #8E6610",
"8  c #A47512",
"9  c #B88415",
"0  c #CC9317",
"q  c #E1A21A",
"w  c #F5B11E",
"e  c #FFBE31",
"r  c #ECBF57",
"t  c #FFCA53",
"y  c #F3C559",
"u  c #F3CA67",
"i  c #FCCD66",
"p  c #FED06A",
"a  c #FFD579",
"s  c #3E4C84",
"d  c #404E85",
"f  c #425187",
"g  c #455489",
"h  c #48578C",
"j  c #4A5A8E",
"k  c #536294",
"l  c #5A6A9A",
"z  c #697684",
"x  c #767E82",
"c  c #60719F",
"v  c #6374A1",
"b  c #6979A5",
"n  c #6D7EA9",
"m  c #7C8385",
"M  c #7082AB",
"N  c #7586B0",
"B  c #798AB2",
"V  c #808686",
"C  c #848986",
"Z  c #8B8D85",
"A  c #939284",
"S  c #999683",
"D  c #9D9983",
"F  c #86939D",
"G  c #A39D83",
"H  c #ADA484",
"J  c #B7AC85",
"K  c #8193B8",
"L  c #899BBF",
"P  c #A1AAAC",
"I  c #A2B1BC",
"U  c #C1B387",
"Y  c #CBBA87",
"T  c #CBBA88",
"R  c #D5C38B",
"E  c #DFC98A",
"W  c #F0D083",
"Q  c #F2D795",
"!  c #E4D9B0",
"~  c #E0DABB",
"^  c #8FA2C4",
"/  c #91A4C6",
"(  c #97A9C4",
")  c #98AAC5",
"_  c #93A6C8",
"`  c #97AACA",
"'  c #9AADCC",
"]  c #9DB0CE",
"[  c #9FB2D0",
"{  c #A2B6D3",
"}  c #A1B4D2",
"|  c #A3B7D4",
" . c #A0B3D1",
".. c #A6BAD7",
"X. c #A4B8D5",
"o. c #AABED9",
"O. c #AEC2DD",
"+. c #ADC1DC",
"@. c #AFC4DD",
"#. c #B1C6DF",
"$. c #B2C7DF",
"%. c LightSteelBlue",
"&. c #B5CAE2",
"*. c #B6CAE2",
"=. c #B7CCE3",
"-. c #B7CBE4",
";. c #B8CDE4",
":. c #B9CEE5",
">. c #B9CEE6",
",. c #B9CFE6",
"<. c #BACFE6",
"1. c #BDD2E8",
"2. c #BED3E9",
"3. c #D5D8C7",
"4. c #C9D3D1",
"5. c #DADED4",
"6. c #D5DFDE",
"7. c #C0D5EB",
"8. c #C1D6EB",
"9. c #C1D6EC",
"0. c #C5DBEF",
"q. c #C3DAF0",
"w. c #C7DDF1",
"e. c #C4DAF0",
"r. c #CBE2F5",
"t. c #CDE3F7",
"y. c #C9E1F7",
/* pixels */
"                                                                                                ",
"                                                                                                ",
"                1.>.<.<.<.<.<.<.>.>.<.<.<.<.<.:.<.<.<.<.<.<.<.<.<.<.<.<.<.<.<.<.                ",
"          X.X.N j j j j j j j j j j j j h j h j j g g j g j g g j g g g g g g f M { X.          ",
"          n f g g g g g g g f f f f f f f d d d f f s s d d s f s d s s s s s s s s v           ",
"        9.M j j l [ ) ) ) ) ) ' ) ) ) ' ) ) ) ) ) ` ` _ ) ( ( ( ) ` ) ) ) ) ] k f d b 2.        ",
"        _ k k v O.F * * * * * * * * * * * * * * * * * * * * * * * * * * * * F +.l j j ^         ",
"        _ l l _ F % O & & O & O O O & & & % % % % % % O % % @ O % % O O O O O F / k k ^         ",
"        ' c c ' 1 O o O O O O O O % % O % @ % O % % O % O % % O O % O O O o O 1 / l l /         ",
"        ] b b ' 3 O @ o o o o o o o o o o o o o o o o o o o o o o o o o o % O 4 ` c c `         ",
"        [ M M  .2 O % o X o o o o o o o o o o o o o X o o o o o o o o X o & O 4 ' b b '         ",
"        X.B B | 2 % % o o X o o o o o X o o o o o o o o X o o o o o X X o & O 2 [ M M [         ",
"        o.K K X.2 O & o o o X . . X X X X X X X X X X X X X . X X X o o o % O 1 { B B X.        ",
"        o.L L o.2 O O O o o X . X X X . X X X . X X . X X X X X . X o o o @ O 3 X.B K o.        ",
"        O./ ^ O.2 O & o o o X X . X X . X . . X . X . X X X . . X X o o O % O 1 o.L L o.        ",
"        &.' ' %.2 O & o o o X X X . . . . . . . . . . . . . . X X X o o o % O 2 +./ ^ O.        ",
"        *. . .*.3 O & o o o X X X . . . . . . . . . . . . . . . X X o o o & O 3 %.' ` %.        ",
"        <.o.o.<.1 O & O o o X X X . . . . . . . . . . . . . . X X X o o O & O 1 *.[  .*.        ",
"        2.%.%.2.3 O & o o o X X X . . . . . . . . . . . . . . X . X o o o & O 3 <.....<.        ",
"        7.<.<.9.1 O & o o X X X X . . . . . . . . . . . . . . X X X o o o & O 3 1.%.%.<.        ",
"        0.7.7.e.1 O % o o X X X . . . . . . . . . . . . . . . . . X o o o & O 1 7.=.-.9.        ",
"        r.r.r.r.1 O & o o o X X X . . . . . . . . . . . . . . X X X o o O & O 1 w.0.0.w.        ",
"        I m m I 3 O & o o o X X X . . . . . . . . . . . . . . X X X o o o & O 3 I x x I         ",
"        m + + m 4 O & O o o X X X . . . . . . . . . . . . . . X X X o o o & O 4 m + + x         ",
"        m @ @ m 4 O & o o o X X . . . . . . . . . . . . . . . . X X o o o O O 4 V @ @ V         ",
"        V # # V 4 O & o o o X X X . . . . . . . . . . . . . . X X X o o o & O 4 V @ # V         ",
"        C # # C 4 O & o o o X X X . . . . . . . . . . . . . . X X X o o O & O 4 C # # C         ",
"        C $ $ C 4 O & o o o X X X . . . . . . . . . . . . . . X . X o o o & O 4 C $ $ C         ",
"        Z = = Z 4 O O O o o X X X . . . . . . . . . . . . . . . X X o o o & O 4 Z = = Z         ",
"        Z - - Z 4 O & o o o X X X . . . . . . . . . . . . . . X X X o o O & O 4 Z - - Z         ",
"        A ; : Z 4 O & o o o X X . . . . . . . . . . . . . . . X X X o o o & O 4 Z ; ; A         ",
"        A : : S 4 O & o o o X X X . . . . . . . . . . . . . . X X X o o o & O 4 A : : S         ",
"        S > > S 4 O & o o o X X X . X . X . . X X X . X . X . X X X o o o % % 2 S > > S         ",
"        D , , D 2 O O O o o X X . X X X X X X X X . X X X X X . . X o o O % O 2 S , , D         ",
"        G < < G 4 O & o o o X . X . X . X X X . . X . X X X X X X X o o o % O 4 G < < G         ",
"        H 7 7 H 2 O & o o o X o o X o o X o X o o o X o X o X X X X X o o % O 4 H 7 7 H         ",
"        J 8 8 J 2 O O o X o o o o o o o o o o o o o o o o o o o o o X o o & O 2 J 8 8 J         ",
"        U 9 9 U 2 O % o X o o o o o o X o o o o o o o o o o o o o o o X o & O 2 U 9 9 U         ",
"        T 0 0 T 2 O O O O O o O O O O O O O O O O O O O O O O O O O O O O O O 2 T 0 0 T         ",
"        R q q R z O O & O & & % % % O % % O & & O % O % O O O % % % % % % O o z R q q R         ",
"        E w w r 4.5 & & & & & & & & & & & & & & & & & & & & & & & & & & & & 5 4.y w w E         ",
"        3.y e e u 4.P P P P P P P P P P P P P P P P P P P P P P P P P P P P 4.u e e y 3.        ",
"        y.W t t y i p p p p p p p p p p p p p p p p p p p p p p p p p p p p i t t t W y.        ",
"          ~ ! Q a a a a a a a a a a a a W a a a a a a a a a a a a a a a a a a a Q ! ~           ",
"              6.5.5.5.5.5.5.5.5.5.5.5.5.5.5.5.5.5.5.5.5.5.5.5.5.5.5.5.5.5.5.5.5.6.              ",
"                                                                                                ",
"                                                                                                ",
"                                                                                                "
};
