/* XPM */
static char *_fd875636681467bdb31f322a8e71dd2jOyoWIgMGmapyT55[] = {
/* columns rows colors chars-per-pixel */
"64 64 193 2 ",
"   c None",
".  c #7A715D",
"X  c #767066",
"o  c #76736A",
"O  c #79746A",
"+  c #7F796A",
"@  c #7A7161",
"#  c #7E7A72",
"$  c #84775C",
"%  c #8D7C5D",
"&  c #897E63",
"*  c #827B6C",
"=  c #847966",
"-  c #837E74",
";  c #9F895E",
":  c #A28C5E",
">  c #A8905E",
",  c #B89A59",
"<  c #8D8164",
"1  c #8E836D",
"2  c #85826B",
"3  c #958562",
"4  c #9C8B64",
"5  c #94856D",
"6  c #96896B",
"7  c #9C8C6A",
"8  c #858073",
"9  c #8B8474",
"0  c #8A857B",
"q  c #85827C",
"w  c #968C74",
"e  c #9B8D72",
"r  c #918771",
"t  c #A38F6C",
"y  c #A38E65",
"u  c #A6936E",
"i  c #A9946A",
"p  c #B59C69",
"a  c #A28F70",
"s  c #A29373",
"d  c #AB9B75",
"f  c #AA9777",
"g  c #B29C76",
"h  c #BAA375",
"j  c #B8A26B",
"k  c #D5AA56",
"l  c #DFB356",
"z  c #C7A258",
"x  c #ECBE4A",
"c  c #E8BB57",
"v  c #C5A461",
"b  c #C9A96A",
"n  c #D6B56E",
"m  c #D6B666",
"M  c #C8A976",
"N  c #D1AE70",
"B  c #D7B775",
"V  c #E2BA64",
"C  c #ECC35C",
"Z  c #FDCC5D",
"A  c #FBC854",
"S  c #FBC446",
"D  c #DDC076",
"F  c #E4C36A",
"G  c #EAC665",
"H  c #FDCE66",
"J  c #FED26D",
"K  c #FBD167",
"L  c #E8CB71",
"P  c #FED474",
"I  c #FFD57B",
"U  c #475388",
"Y  c #48568A",
"T  c #4D598D",
"R  c #505F8E",
"E  c #515E90",
"W  c #55618D",
"Q  c #546293",
"!  c #5A6595",
"~  c #5D6995",
"^  c #5E6C9B",
"/  c #626C96",
"(  c #626C9B",
")  c #696E9A",
"_  c #65739D",
"`  c #6B759D",
"'  c #6D7A9F",
"]  c #727C9E",
"[  c #6974A2",
"{  c #6C79A3",
"}  c #6572A0",
"|  c #7077A2",
" . c #737DA5",
".. c #767EA9",
"X. c #787FA8",
"o. c #7681A5",
"O. c #7982A5",
"+. c #7D8AA6",
"@. c #7482AA",
"#. c #7A85AB",
"$. c #7D89AC",
"%. c #7F8CB1",
"&. c #7887B0",
"*. c #898781",
"=. c #828DAD",
"-. c #8893AE",
";. c #838DB3",
":. c #8592B4",
">. c #8C95B5",
",. c #8C95BA",
"<. c #8C9BBD",
"1. c #929DBC",
"2. c #939BB9",
"3. c #99A4BE",
"4. c #FFD683",
"5. c #FFD68B",
"6. c #FFDA8D",
"7. c #FFD791",
"8. c #FFDB93",
"9. c #FFDD9C",
"0. c #FFE19D",
"q. c #FFDDA5",
"w. c #FFE2A5",
"e. c #FFE4AA",
"r. c #949FC0",
"t. c #94A1C2",
"y. c #99A5C4",
"u. c #9BA8C6",
"i. c #9EAAC9",
"p. c #A2ADCB",
"a. c #A1ABC4",
"s. c #A5B2CC",
"d. c #ABB6CE",
"f. c #AEBBCF",
"g. c #ACBAD3",
"h. c #A8B6D0",
"j. c #B2BED4",
"k. c #B4C2D6",
"l. c #B5C2D9",
"z. c #BDC9DC",
"x. c #BAC6D8",
"c. c #D0CFCF",
"v. c #C3CDDC",
"b. c #CCCFDF",
"n. c #C7D0DC",
"m. c #D1D0D0",
"M. c #D6D6D6",
"N. c #D8D7D7",
"B. c #D9D8D8",
"V. c #DBDADA",
"C. c #DAD9D9",
"Z. c #DCDBDB",
"A. c #DDDDDD",
"S. c #DCDCDC",
"D. c #DFDFDF",
"F. c gray87",
"G. c #DEDDDD",
"H. c #DCDCDC",
"J. c #E0DFDF",
"K. c #C2CEE1",
"L. c #C5D2E3",
"P. c #CBD5E5",
"I. c #CDDAEA",
"U. c #CCD7E9",
"Y. c #D2DDEB",
"T. c #D5E1EE",
"R. c #D9E5EF",
"E. c #CDE0F3",
"W. c #CEE1F3",
"Q. c #CEE2F3",
"!. c #CFE3F4",
"~. c #CDE0F3",
"^. c #D1E1F3",
"/. c #D5E5F3",
"(. c #D2E3F4",
"). c #D4E3F4",
"_. c #D7E4F4",
"`. c #D4E4F3",
"'. c #DAE5F4",
"]. c #DCE7F4",
"[. c #DAE6F3",
"{. c #D7E9F3",
"}. c #DDEAF4",
"|. c #DCEAF3",
" X c #DFF0F3",
".X c #E2E2E2",
"XX c #E4E4E4",
"oX c #EAEAEA",
"OX c #EBEBEB",
"+X c #E2EDF4",
"@X c #E2F0F5",
"#X c gray94",
"$X c white",
/* pixels */
"                                                                                                                                ",
"                                                                                                                                ",
"                                                                                                                                ",
"                    E.E.E.^.^.^.!.(.(.~.(.).(.(.).(.).).).).`./.).).).!.!.!.!.!.!.!.!.!.!.!.!.E.E.E.E.E.E.E.                    ",
"              E.~.~.! ( ) ) [ |  .......O. . .O.#...X.X. .O. .| | ' `  .{ [ } ` _ / / / / / E Q ! W U Y U U E.E.E.              ",
"            E.! ~ ( ` |  ...#.%.%.;.;.;.;.;.;.=.=.;.=.=.=.=.=.$.$.O.=.$.#...#.O.o.' ' ' ' ' | ` ( ( ~ E E T T Y Y E.            ",
"            E.( _ { X.#.;.;.;.,.,.,.,.,.,.1.1.2.2.>.2.>.>.>.-.-.-.=.-.;.;.=.=.=.+.O.X.#.o.O. .] { { [ / ~ ! Q Q E ~.            ",
"            ^.{  .$.;.;._.'.'.].].'.}.}.'.].[.[.}.}.}.}.}.}.}.}.}.].'.]._._.[.[._._.[.).[.[.[.[.).`.^._.` ( ~ ! ! ~.            ",
"          ^. .@.$.:.,._.'.Z.D.D.D.D.D.V.V.V.V.D.D.Z.V.D.V.V.D.V.Z.Z.Z.V.V.S.S.V.V.M.M.V.N.V.N.V.Z.B.m./.(.{ _ _ ( ^ !.          ",
"          E.&.%.>.1.[.[.oXJ.Y.J.D.D.D.V.D.D.D.D.D.V.D.Z.D.D.Z.D.D.Z.Z.V.S.S.D.V.V.V.V.M.V.V.Z.Z.Z.B.m.oX/./. .{ { [ !.          ",
"          ^.;.,.1.y.].J.J.OX.X.X.X.X.XD.D.V.D.D.D.D.D.V.Z.D.D.V.D.H.D.D.S.D.Z.V.V.V.V.V.V.V.V.V.Z.Z.OXm.c./.@.@.@.{ !.          ",
"          (.>.3.i.p.}..X.X.XOXXX.X.X.X.XD.D.D.D.D.D.D.V.D.V.V.D.Z.V.D.V.S.D.S.N.V.V.V.V.Z.Z.Z.V.Z.oXB.m.m./.:.$.#.@.!.          ",
"          `.t.a.p.d.+X.X.XXXXX$XoXoXoXoXoXoXoXoXoXoXoXoXoXoXoXoXXXoXoXoX.X.XXXoX.X.XXXoXXXoXoXoX$XZ.Z.M.m.{.,.:.:.%.(.          ",
"          '.u.s.f.j.+XXX.XXXXXOX$XOXoXoXoXoXoXoXoXoXoXoXoXoXoXoXoXoXoX.X.XoX.X.X.XoXXXXXXXXXoX$XXXA.B.M.m.{.<.<.<.:.(.          ",
"          [.s.d.j.j.+XXXXXXXoXOX#X$XOXOXoXoXoXoXoXXXoXoXoXoXoXoXoXXXoXoXoX.X.XoX.XXXXXXXOXoX$XoXoXZ.V.M.M./.t.t.<.<./.          ",
"          [.d.j.k.z.+XXXXXXXoXOXOXOX$XoXXXoXoXoXoXoXoX.XoXoXoXoXoXoXoXoX.XoXoX.XXXXXXXoXXX$XoXoXoXZ.M.M.M.{.u.u.t.t.(.          ",
"          ].f.j.v.x.OXXXXXoXXX#X#X#XOX$X$X$X$X$X$X$X$X$X$X$X$X$X$X$X$X$X$X$X$X$X$X$X$X$X$XoXoXoXoXD.B.B.M.{.i.i.u.t.`.          ",
"          }.k.x.v.v.@XXXXXXXXX#X#X#XOX$X$X$X$X$X$X$X$X$X$X$X$X$X$X$X$X$X$X$X$X$X$X$X$X$X$XoXoXoXXXZ.B.M.B.].d.p.i.s.{.          ",
"          ].k.z.v.n.+X.XXXXXXX#X#XOX#X$X$X$X$X$X$X$X$X$X$X$X$X$X$X$X$X$X$X$X$X$X$X$X$X$X$XoXoXoXoXV.V.B.B.{.h.h.d.s.`.          ",
"          ].z.v.b.b.@XJ.XXXXoX#X#X#X#X$X$X$X$X$X$X$X$X$X$X$X$X$X$X$X$X$X$X$X$X$X$X$X$X$X$XoXoXoXOXV.B.B.V.|.g.g.h.h.`.          ",
"          }.K.K.b.P.+XJ.J..XXX#X#X#XOX$X$X$X$X$X$X$X$X$X$X$X$X$X$X$X$X$X$X$X$X$X$X$X$X$X$XoXoXoXOXV.Z.B.B.].l.k.j.g.`.          ",
"          }.L.P.P.P.+XJ..X.X.X#X#X#XOX$X$X$X$X$X$X$X$X$X$X$X$X$X$X$X$X$X$X$X$X$X$X$X$X$X$XoXoXoXOXV.B.B.M.{.z.l.l.l.{.          ",
"          }.P.P.Y.Y.+XJ..X.X.X#XOX#XOX$X$X$X$X$X$X$X$X$X$X$X$X$X$X$X$X$X$X$X$X$X$X$X$X$X$XoXoXoXoXZ.Z.Z.C. Xz.z.z.l.`.          ",
"          }.I.I.Y.Y.+XXXXXXX.X#X#XOXOX$X$X$X$X$X$X$X$X$X$X$X$X$X$X$X$X$X$X$X$X$X$X$X$X$X$XOXOXoXXXD.Z.B.C.{.n.v.K.z.{.          ",
"          }.Y.Y.Y.Y.+XXXXXXXXX#X#X#X#X$X$X$X$X$X$X$X$X$X$X$X$X$X$X$X$X$X$X$X$X$X$X$X$X$X$XoXoXoXoXA.Z.C.C.|.L.L.K.K.{.          ",
"          '.Y.Y.R.R.+XXXXXXXXX#XOXOXOX$X$X$X$X$X$X$X$X$X$X$X$X$X$X$X$X$X$X$X$X$X$X$X$X$X$XOXoXoXoXZ.Z.Z.C.|.U.U.U.L.{.          ",
"          }.T.[.R.[.+XXX.X.X.X#XOXOXOX$X$X$X$X$X$X$X$X$X$X$X$X$X$X$X$X$X$X$X$X$X$X$X$X$X$XoXOXOXoXA.Z.C.C.|.I.I.U.U.`.          ",
"          ].R.].].].#XXX.X.X.XOXOXOXOX$X$X$X$X$X$X$X$X$X$X$X$X$X$X$X$X$X$X$X$X$X$X$X$X$X$XoXoXoXOXA.Z.Z.Z.|.T.Y.E.I.`.          ",
"          }.}.}.+X+X+XJ..X.X.X#X#XOXOX$X$X$X$X$X$X$X$X$X$X$X$X$X$X$X$X$X$X$X$X$X$X$X$X$X$XOXOXOXOXA.Z.Z.V.}.T.R.Y._.|.          ",
"          |.}. X+X+X+X.X.X.X.XOX#XOXOX$X$X$X$X$X$X$X$X$X$X$X$X$X$X$X$X$X$X$X$X$X$X$X$X$X$XOXOXOXoXA.A.A.D.+X].R.[./.{.          ",
"          |.o # - *.+XD.J.Z.J.#X#X#XOX$X$X$X$X$X$X$X$X$X$X$X$X$X$X$X$X$X$X$X$X$X$X$X$X$X$XoXOXOXOXD.D.A.D.}.# # O X {.          ",
"          {.o # q *.}.D.J.J.J.OXOXOX#X$X$X$X$X$X$X$X$X$X$X$X$X$X$X$X$X$X$X$X$X$X$X$X$X$X$XOXOXOXOXD.A.D.D.+X# # O o |.          ",
"          |.o * 8 0 +XD.D.D.D.oX#XOXOX$X$X$X$X$X$X$X$X$X$X$X$X$X$X$X$X$X$X$X$X$X$X$X$X$X$XoX#XOXOXJ.D.D.H.+X8 - # o |.          ",
"          `.X * 8 0 |.H.H.D.D.#XOXOXOX$X$X$X$X$X$X$X$X$X$X$X$X$X$X$X$X$X$X$X$X$X$X$X$X$X$XOXOXOXOX.XZ.D.J.@X9 - * O |.          ",
"          {.@ # - 0 |.D.H.D.D.oXOXOXOX$X$X$X$X$X$X$X$X$X$X$X$X$X$X$X$X$X$X$X$X$X$X$X$X$X$XoXOX#XOXZ.D.Z.H.@X9 9 * + |.          ",
"          `.. + * 9 +XH.H.H.D.oXOXOXoX$X$X$X$X$X$X$X$X$X$X$X$X$X$X$X$X$X$X$X$X$X$X$X$X$X$XoXOXOX#XD.Z.D.H.|.0 8 - = {.          ",
"          /.. = * 1 +XD.D.S.D.OXOXOXOX$X$X$X$X$X$X$X$X$X$X$X$X$X$X$X$X$X$X$X$X$X$X$X$X$X$XOXOX#XOXD.D.Z.Z.+X0 9 8 = |.          ",
"          {.. = 2 9 }.H.A.A.S.OXOXOXoX$X$X$X$X$X$X$X$X$X$X$X$X$X$X$X$X$X$X$X$X$X$X$X$X$X$XOXOXOXOXZ.Z.Z.Z.@Xw 9 1 2 {.          ",
"          {.. & 1 1 |.H.S.S.A.oXoXoXoX$X$X$X$X$X$X$X$X$X$X$X$X$X$X$X$X$X$X$X$X$X$X$X$X$X$XoX#X#X#XZ.Z.Z.Z. Xw r 1 2 |.          ",
"          (.% % 1 6 }.Z.Z.Z.S.oXoXoXoX$X$X$X$X$X$X$X$X$X$X$X$X$X$X$X$X$X$X$X$X$X$X$X$X$X$XOXOXOXOXD.D.Z.Z. Xw 5 5 & |.          ",
"          `.% < 6 w |.Z.Z.V.A.oXoXoXoX$X$X$X$X$X$X$X$X$X$X$X$X$X$X$X$X$X$X$X$X$X$X$X$X$X$XoXOXOXOXS.Z.Z.S. Xe 6 6 < |.          ",
"          {.% 6 e s |.V.V.V.A.XXoXoXoX$X$X$X$X$X$X$X$X$X$X$X$X$X$X$X$X$X$X$X$X$X$X$X$X$X$XoXOXoXOXS.S.Z.S. Xs e 6 3 |.          ",
"          `.4 7 u s |.N.V.V.Z.oXoXoX.X$X$X$X$X$X$X$X$X$X$X$X$X$X$X$X$X$X$X$X$X$X$X$X$X$X$XoXOXOXoXD.D.A.S.|.s s t 3 /.          ",
"          `.4 t s f |.N.B.V.Z.oXoXoXoX$X$X$X$X$X$X$X$X$X$X$X$X$X$X$X$X$X$X$X$X$X$X$X$X$X$XOX#XOXOXR.D.D.D.}.d u 4 4 ].          ",
"          `.y u f f }.N.V.V.D.oXoXoXoX$X$X$X$X$X$X$X$X$X$X$X$X$X$X$X$X$X$X$X$X$X$X$X$X$X$XOXOXOXOXJ.J.J.D.|.d u y ; ].          ",
"          `.y u f g }.Y.V.Z.Z.oXoXoXoX$X$X$X$X$X$X$X$X$X$X$X$X$X$X$X$X$X$X$X$X$X$X$X$X$X$XOX#XOX#XJ.J.J.D. Xd i i : /.          ",
"          [.p g d h }.Z.D.Z.D.oXoXOXoX$X$X$X$X$X$X$X$X$X$X$X$X$X$X$X$X$X$X$X$X$X$X$X$X$X$XOX#X#XOXJ.J.A.Z.|.j p i > {.          ",
"          [.p h M M }.V.D.Z.D.OXOXOX$XoXoXoXoXoXOXoXXXoXoXXXXXoXoXoXoXoXoXoXOXOXoXOXOXOXOX$X#X#X#XJ.A.A.Z. Xh j p , /.          ",
"          /.b b M M ].V.V.V.Z.OXoX$XXXOXOXOXoXXXOXOXoXXXoXoXoXoXoXoXOX#XOX#XOXOXOXOX#XOX#X#X$X#X#XJ.A.A.Z.+XM b j , _.          ",
"          /.b N B B +XC.Z.V.Y.OX$XoXOXOXoXoXoXoX#XOXOXOXoXXXoXoXoXoXoXOX#XOX#XOXOX#XOXOXOXOXOX$XOXJ.A.G.Z.].b b z z _.          ",
"          (.m n B B +XJ.N.J.J.$XoXoXoXOXoXoXoXoXOXOXOXOXoXoXoXoXoXoXOXOXOXOXOXOX#XOXOXOXOX#XOXOX$XJ.J.Z.C.+Xn m k k ).          ",
"          R.m m B B +XC.N.N.oXC.Z.A.Z.Z.Z.B.B.B.V.Z.Z.Z.V.V.Z.A.H.H.H.H.J.J.J.D.J.J.D.D.J.J.J.J.H.#XZ.Z.C.+XV V c k ).          ",
"          _.F F F L ].B.N.oXN.C.A.Z.A.C.C.B.B.V.B.Z.Z.Z.B.Z.A.Z.D.H.H.H.D.H.D.H.D.D.H.D.H.J.D.J.H.A.OXH.C.|.G V l c ^.          ",
"          _.C G L L /.|.oXN.N.C.C.C.B.B.C.B.B.B.B.Z.B.V.V.Z.Z.Z.H.H.D.H.H.D.D.H.D.D.D.H.D.J.D.D.J.H.Z.#X}.|.G c c x ^.          ",
"          ^.Z Z K J P ].].M.N.N.C.B.B.B.B.B.N.Z.B.Z.V.Z.B.Z.B.V.H.H.H.H.H.D.H.H.H.H.H.H.H.D.H.D.Z.C.N.|.|.H Z A A S ^.          ",
"            ^.J P P I I /.{.].].{.].{.|.{.|.|.|.|.|.|.|.|.|.|.|.|.|.|.|.@X|. X+X@X+X|.|.|.}.}.}.|.|.}.].J J H Z Z T.            ",
"            ^.I I 4.5.4.5.5.5.5.7.7.7.7.5.6.4.6.6.4.6.6.8.6.6.6.8.8.8.6.8.0.6.0.0.6.8.8.8.0.8.6.6.6.4.4.I P P J H ^.            ",
"            ~.5.5.6.5.8.8.9.9.9.9.9.q.9.9.9.0.0.0.0.0.9.9.0.9.0.9.0.w.0.0.0.0.0.0.w.w.0.0.9.9.9.9.8.8.8.6.6.4.4.I E.            ",
"              !.E.^.q.q.q.q.q.e.e.e.w.e.w.e.w.e.w.w.e.e.e.e.e.e.e.e.e.e.e.e.e.e.e.e.e.e.e.e.e.w.w.w.0.9.0.9.^.E.E.              ",
"                    ^.^.(.^.(.(.!././.{.(.{.{./.{.{./.[./.{.`.{./.{.`.'.].[.[.]._.'.'.[././.(.(.(.^.(.(.E.^.                    ",
"                                                                                                                                ",
"                                                                                                                                ",
"                                                                                                                                ",
"                                                                                                                                "
};
