/* XPM */
static char *result[] = {
/* columns rows colors chars-per-pixel */
"64 64 7 1 ",
"  c black",
". c #531F31",
"X c #5F6C6F",
"o c #9B181A",
"O c #8DACB0",
"+ c #E3EEEF",
"@ c None",
/* pixels */
"@@@@@@@@@@@@@@@@@@@@@@@@@@@@@@@@@@@@@@@@@@@@@@@@@@@@@@@@@@@@@@@@",
"@@@@@@@@@@@@@@@@@@@@@@@@@@@@@@@@@@@@@@@@@@@@@@@@@@@@@@@@@@@@@@@@",
"@@@@@@@@@@@@@@@@@@@@@@@@@@@@@@@@@@@@@@@@@@@@@@@@@@@@@@@@@@@@@@@@",
"@@@@@@@@@@@@@@@@@@@@@@@@@@@@           @@@@@@@@@@@@@@@@@@@@@@@@@",
"@@@@@@@@@@@@@@@@@@@@@@@@                  @@@@@@@@@@@@@@@@@@@@@@",
"@@@@@@@@@@@@@@@@@@@@@@                      @@@@@@@@@@@@@@@@@@@@",
"@@@@@@@@@@@@@@@@@@@@@       ooooooooooo      @@@@@@@@@@@@@@@@@@@",
"@@@@@@@@@@@@@@@@@@@@     oooooooooooooooo     @@@@@@@@@@@@@@@@@@",
"@@@@@@@@@@@@@@@@@@@    ooooooooooooooooooooo    @@@@@@@@@@@@@@@@",
"@@@@@@@@@@@@@@@@@@@   ooooooooooooooooooooooo   @@@@@@@@@@@@@@@@",
"@@@@@@@@@@@@@@@@@    oooooooooooooooooooooooo   @@@@@@@@@@@@@@@@",
"@@@@@@@@@@@@@@@@@   oooooooooooooooooooooooooo  @@@@@@@@@@@@@@@@",
"@@@@@@@@@@@@@@@    oooooooooo                     @@@@@@@@@@@@@@",
"@@@@@@@@@@@@@@@    ooooooooo                       @@@@@@@@@@@@@",
"@@@@@@@@@@@@@@@  oooooooooo   OOOOOOOO+++++++OOO   @@@@@@@@@@@@@",
"@@@@@@@@@@@@@@@  oooooooooo   OOOOOOOO+++++++OOOO   @@@@@@@@@@@@",
"@@@@@@@@@@@@@@@  ooooooooo   OOOOOOO+++++++OOOOOO   @@@@@@@@@@@@",
"@@@@@@@@@@@@@@@  ooooooooo   OOOOOOO+++++++OOOOOOO  @@@@@@@@@@@@",
"@@@@@@@@@@@@@@@  ooooooooo  XXOOOOOOOOOOOOOOOOOOOO  @@@@@@@@@@@@",
"@@@@@@@@@@@@@@@  ooooooooo  XXXOOOOOOOOOOOOOOOOOOO  @@@@@@@@@@@@",
"@@@@@@@@@@@@@@@  ooooooooo  XXXXOOOOOOOOOOOOOOOOOO  @@@@@@@@@@@@",
"@@@@@@@@@@       ooooooooo  XXXXXXOOOOOOOOOOOOOOOO  @@@@@@@@@@@@",
"@@@@@@@          ooooooooo  XXXXXXXXXXOOOOOOOOOOXX  @@@@@@@@@@@@",
"@@@@@@      ooo  oooooooooo  XXXXXXXXXXXXXXXXXXXXX  @@@@@@@@@@@@",
"@@@@@@   oooooo  oooooooooo   XXXXXXXXXXXXXXXXXXXX  @@@@@@@@@@@@",
"@@@@@@  ..ooooo  oooooooooo    XXXXXXXXXXXXXXXXXX   @@@@@@@@@@@@",
"@@@@@@  ..ooooo  ooooooooooo    XXXXXXXXXXXXXXXX    @@@@@@@@@@@@",
"@@@@@@  ...oooo  ooooooooooo                        @@@@@@@@@@@@",
"@@@@@@  .....oo  ooooooooooooo                      @@@@@@@@@@@@",
"@@@@@@  .......  oooooooooooooooooooooooooooooooo  @@@@@@@@@@@@@",
"@@@@@@  .......  ..oooooooooooooooooooooooooooooo  @@@@@@@@@@@@@",
"@@@@@@  .......  ..oooooooooooooooooooooooooooooo  @@@@@@@@@@@@@",
"@@@@@@  .......  ...ooooooooooooooooooooooooooooo  @@@@@@@@@@@@@",
"@@@@@@  .......  ...ooooooooooooooooooooooooooooo  @@@@@@@@@@@@@",
"@@@@@@  .......  ....oooooooooooooooooooooooooooo  @@@@@@@@@@@@@",
"@@@@@@  .......  .....ooooooooooooooooooooooooo..  @@@@@@@@@@@@@",
"@@@@@@  .......  ......oooooooooooooooooooooooo..  @@@@@@@@@@@@@",
"@@@@@@  .......  ......oooooooooooooooooooooooo..  @@@@@@@@@@@@@",
"@@@@@@  .......  ......oooooooooooooooooooooooo..  @@@@@@@@@@@@@",
"@@@@@@  .......  .......ooooooooooooooooooooooo..  @@@@@@@@@@@@@",
"@@@@@@  .......  .........oooooooooooooooooooo...  @@@@@@@@@@@@@",
"@@@@@@   ......  ..........oooooooooooooooooo....  @@@@@@@@@@@@@",
"@@@@@@   ......  ............ooooooooooooo.......  @@@@@@@@@@@@@",
"@@@@@@@  ......  ..............oooooooo..........  @@@@@@@@@@@@@",
"@@@@@@@  ......  ................................  @@@@@@@@@@@@@",
"@@@@@@@   .....  ................................  @@@@@@@@@@@@@",
"@@@@@@@@   ....  ................................  @@@@@@@@@@@@@",
"@@@@@@@@         ................................  @@@@@@@@@@@@@",
"@@@@@@@@@        ............      ..............  @@@@@@@@@@@@@",
"@@@@@@@@@@@@@@@  ...........        .............  @@@@@@@@@@@@@",
"@@@@@@@@@@@@@@@  ...........   @@   .............  @@@@@@@@@@@@@",
"@@@@@@@@@@@@@@@  ...........  @@@@  ............   @@@@@@@@@@@@@",
"@@@@@@@@@@@@@@@  ...........  @@@@  ............   @@@@@@@@@@@@@",
"@@@@@@@@@@@@@@@  ...........  @@@@  ............  @@@@@@@@@@@@@@",
"@@@@@@@@@@@@@@@  ...........  @@@@  ............  @@@@@@@@@@@@@@",
"@@@@@@@@@@@@@@@  ...........  @@@@  ............  @@@@@@@@@@@@@@",
"@@@@@@@@@@@@@@@  ...........  @@@@  ............  @@@@@@@@@@@@@@",
"@@@@@@@@@@@@@@@  ...........  @@@@  ............  @@@@@@@@@@@@@@",
"@@@@@@@@@@@@@@@  ...........  @@@@  ...........   @@@@@@@@@@@@@@",
"@@@@@@@@@@@@@@@               @@@@@              @@@@@@@@@@@@@@@",
"@@@@@@@@@@@@@@@@             @@@@@@              @@@@@@@@@@@@@@@",
"@@@@@@@@@@@@@@@@@@@@@@@@@@@@@@@@@@@@@@@@@@@@@@@@@@@@@@@@@@@@@@@@",
"@@@@@@@@@@@@@@@@@@@@@@@@@@@@@@@@@@@@@@@@@@@@@@@@@@@@@@@@@@@@@@@@",
"@@@@@@@@@@@@@@@@@@@@@@@@@@@@@@@@@@@@@@@@@@@@@@@@@@@@@@@@@@@@@@@@"
};
