/* XPM */
static char *result[] = {
/* columns rows colors chars-per-pixel */
"32 32 210 2 ",
"   c black",
".  c #010000",
"X  c #010101",
"o  c #030203",
"O  c #050000",
"+  c #060101",
"@  c #070101",
"#  c #040202",
"$  c #050203",
"%  c #060204",
"&  c #050606",
"*  c #090101",
"=  c #0C0202",
"-  c #0D0202",
";  c #0E0202",
":  c #0F0202",
">  c #090305",
",  c #0A0406",
"<  c #060909",
"1  c #070909",
"2  c #07090A",
"3  c #0C0E0F",
"4  c #110303",
"5  c #160202",
"6  c #1B0303",
"7  c #180404",
"8  c #13070B",
"9  c #14080C",
"0  c #17090E",
"q  c #18090E",
"w  c #19090F",
"e  c #190C0D",
"r  c #1A0F0F",
"t  c #1E0B12",
"y  c #101111",
"u  c #111415",
"i  c #121616",
"p  c #1D1313",
"a  c #111818",
"s  c #260506",
"d  c #240606",
"f  c #2D0708",
"g  c #2E0708",
"h  c #2F0708",
"j  c #370A0B",
"k  c #330C0D",
"l  c #240D15",
"z  c #2B0F17",
"x  c #270F18",
"c  c #270F19",
"v  c #280F18",
"b  c #290F18",
"n  c #390D12",
"m  c #3A0E13",
"M  c #201516",
"N  c #201616",
"B  c #211616",
"V  c #2A1019",
"C  c #25191A",
"Z  c #291C1C",
"A  c #2A1D1D",
"S  c #391522",
"D  c #273031",
"F  c #293133",
"G  c #2D3637",
"H  c #430A0B",
"J  c #470B0C",
"K  c #470C0E",
"L  c #4B0A0B",
"P  c #4C0A0B",
"I  c #4D0A0B",
"U  c #4B0B0C",
"Y  c #4A0C0C",
"T  c #4B0C0C",
"R  c #4C0C0D",
"E  c #4D0C0D",
"W  c #500C0D",
"Q  c #530C0E",
"!  c #540C0D",
"~  c #550D0E",
"^  c #5C0D0E",
"/  c #461219",
"(  c #651011",
")  c #671011",
"_  c #6D1112",
"`  c #471A2A",
"'  c #491B2B",
"]  c #4D1B2B",
"[  c #4A1C2B",
"{  c #491B2C",
"}  c #4A1C2C",
"|  c #4B1C2C",
" . c #4C1D2D",
".. c #4F1E2F",
"X. c #5B1E2E",
"o. c #5B1E2F",
"O. c #5E1E2D",
"+. c #5C1E2E",
"@. c #5C1E2F",
"#. c #5E1F2F",
"$. c #521F31",
"%. c #531F31",
"&. c #521F32",
"*. c #541F31",
"=. c #561F30",
"-. c #571F30",
";. c #541F32",
":. c #5B1F30",
">. c #6B1D29",
",. c #681D2A",
"<. c #691D2A",
"1. c #6B1D2B",
"2. c #731C27",
"3. c #761C27",
"4. c #7A1B24",
"5. c #781C27",
"6. c #7A1C26",
"7. c #542032",
"8. c #552032",
"9. c #562033",
"0. c #572033",
"q. c #3C4648",
"w. c #3D4648",
"e. c #3F484A",
"r. c #415153",
"t. c #546164",
"y. c #546264",
"u. c #5B6A6C",
"i. c #5F6C6F",
"p. c #606D70",
"a. c #606E71",
"s. c #616E71",
"d. c #637275",
"f. c #647275",
"g. c #667679",
"h. c #63787B",
"j. c #831416",
"k. c #861516",
"l. c #881415",
"z. c #891415",
"x. c #891416",
"c. c #891516",
"v. c #8A1517",
"b. c #8B1517",
"n. c #8B1617",
"m. c #8C1416",
"M. c #8C1617",
"N. c #8B1619",
"B. c #8D1618",
"V. c #941718",
"C. c #941719",
"Z. c #961719",
"A. c #92191D",
"S. c #93191D",
"D. c #94191C",
"F. c #95191C",
"G. c #99181B",
"H. c #9A181A",
"J. c #9B181A",
"K. c #9D1819",
"L. c #9C181A",
"P. c #9D181A",
"I. c #9C191B",
"U. c #9E181A",
"Y. c #9F181A",
"T. c #9F191A",
"R. c #9E181B",
"E. c #9E191B",
"W. c #9F191B",
"Q. c #9A191C",
"!. c #A1191B",
"~. c #821A22",
"^. c #821B23",
"/. c #851A21",
"(. c #861A21",
"). c #8B1A20",
"_. c #718B8E",
"`. c #74898D",
"'. c #758A8E",
"]. c #768C90",
"[. c #789396",
"{. c #799396",
"}. c #7F989C",
"|. c #7D9A9D",
" X c #7E9A9D",
".X c #7D9A9E",
"XX c #86A2A6",
"oX c #88A6AA",
"OX c #8DA6A9",
"+X c #8CACB0",
"@X c #8DACB0",
"#X c #8DADB1",
"$X c #8EADB1",
"%X c #8FADB1",
"&X c #8EAEB2",
"*X c #91AFB3",
"=X c #90B0B4",
"-X c #92B0B4",
";X c #95B3B7",
":X c #96B3B7",
">X c #97B3B7",
",X c #9EB3B6",
"<X c #BACFD1",
"1X c #C3CFD0",
"2X c #C6D2D3",
"3X c #CAD5D6",
"4X c #CBDCDE",
"5X c #DBE8E9",
"6X c #DDEAEB",
"7X c None",
/* pixels */
"7X7X7X7X7X7X7X7X7X7X7X7X7X7X7X7X7X7X7X7X7X7X7X7X7X7X7X7X7X7X7X7X",
"7X7X7X7X7X7X7X7X7X7X7X7X7X7X7X7X7X7X  7X7X7X7X7X7X7X7X7X7X7X7X7X",
"7X7X7X7X7X7X7X7X7X7X7X      : 4 4 4 4 @     7X7X7X7X7X7X7X7X7X7X",
"7X7X7X7X7X7X7X7X7X7X  + h ~ j.b.v.v.n._ g - . 7X7X7X7X7X7X7X7X7X",
"7X7X7X7X7X7X7X7X7X  = ( Z.R.P.P.P.P.P.W.Z.k.f   7X7X7X7X7X7X7X7X",
"7X7X7X7X7X7X7X7X7X; ) P.L.L.C.x.x.x.x.l.z.m.^ O 7X7X7X7X7X7X7X7X",
"7X7X7X7X7X7X7X7X+ W P.J.L.B.j p N M B Z A A C y X 7X7X7X7X7X7X7X",
"7X7X7X7X7X7X7X  H Z.J.J.L.P a _..X|.OX1X3X2X,X[.D   7X7X7X7X7X7X",
"7X7X7X7X7X7X7X  E W.J.L.M.5 r.&X$X;X4X5X6X<X-X=Xh.1 7X7X7X7X7X7X",
"7X7X7X7X7X7X7X7XR U.J.L.c.e y.}.$X%X:X>X>X*X+X$X Xi 7X7X7X7X7X7X",
"7X7X7X7X7X7X7X  E U.J.L.c.r t.f.].XXoX@X#X$X$X&X{.u 7X7X7X7X7X7X",
"7X7X7X  * 7 J d R U.J.L.V.k q.p.i.d.g.`.].].].'.u.3 7X7X7X7X7X7X",
"7X7X7Xo / N.T.R Y U.J.J.E.! < e.a.s.a.p.p.p.p.p.w.& 7X7X7X7X7X7X",
"7X7X7X, ] ^.I.U T U.J.J.L.k.6 2 F G G G G G G F 2   7X7X7X7X7X7X",
"7X7X7X, ' =.1.n K Q.J.J.J.H.k.Q L P P P P P P I s   7X7X7X7X7X7X",
"7X7X7X, ' %.7.x z 6.J.J.J.J.L.U.U.U.U.U.U.U.U.!.E 7X7X7X7X7X7X7X",
"7X7X7X, ' *.8.v x #.A.L.J.J.J.J.J.J.J.J.J.J.J.Y.E   7X7X7X7X7X7X",
"7X7X7X, ' *.8.v v 7.>.F.J.J.J.J.J.J.J.J.J.J.L.).m   7X7X7X7X7X7X",
"7X7X7X, ' *.8.v v 7.$.4.K.J.J.J.J.J.J.J.J.J.L.5.c   7X7X7X7X7X7X",
"7X7X7X, } *.8.v v 8.$.,.A.J.J.J.J.J.J.J.J.L.L.3.x   7X7X7X7X7X7X",
"7X7X7X# S ;.8.v v 8.%.%.+.~.G.L.L.L.L.L.J.F.~.:.v   7X7X7X7X7X7X",
"7X7X7X  b 8.8.v v 8.%.%.$.=.<.(.D.S.D./.2.O.=.7.b   7X7X7X7X7X7X",
"7X7X7X7Xq  .0.b v 8.%.%.%.%.&.-.@.o.X.=.$.$.%.8.b   7X7X7X7X7X7X",
"7X7X7X7X  0 V 8 b 8.%.%.%.%...' { ..%.%.%.%.%.8.b   7X7X7X7X7X7X",
"7X7X7X7X7X  7X  b 8.%.%.%...t > > t ..%.%.%.%.8.b   7X7X7X7X7X7X",
"7X7X7X7X7X7X7X7Xb 8.%.%.*.' > 7X7X> ' *.%.%.%...w   7X7X7X7X7X7X",
"7X7X7X7X7X7X7X  b 8.%.%.*.' , 7X7X, ' *.%.%.*.' > 7X7X7X7X7X7X7X",
"7X7X7X7X7X7X7X  b 8.%.%.*.' , 7X7X, ' *.%.%.*.[ , 7X7X7X7X7X7X7X",
"7X7X7X7X7X7X7X  b 9.8.8.8.| , 7X7X, | 8.8.8.8.` > 7X7X7X7X7X7X7X",
"7X7X7X7X7X7X7X7X9 b b b b l $ 7X7X% l b b b b q . 7X7X7X7X7X7X7X",
"7X7X7X7X7X7X7X7X7X7X7X7X7X  7X7X7X7X  7X7X7X7X  7X7X7X7X7X7X7X7X",
"7X7X7X7X7X7X7X7X7X7X7X7X7X7X7X7X7X7X7X7X7X7X7X7X7X7X7X7X7X7X7X7X"
};
