/* XPM */
static char *_838432a4014408093e35585810105c9pESd8sFIPKJufd3k[] = {
/* columns rows colors chars-per-pixel */
"64 64 6 1 ",
"  c None",
". c #0B1428",
"X c #0E1D3C",
"o c #132A59",
"O c #1B3D82",
"+ c #2761D5",
/* pixels */
"                                                                ",
"                                                                ",
"         ++++++++++++++++++++++++++++++++++++++++++++++         ",
"      ++++++++++++++++++++++++++++++++++++++++++++++++++++      ",
"     ++++OOOOOOOOOOOOOOOOOOOOOOOOOOOOOOOOOOOOOOOOOOOOOO++++     ",
"    +++OOOOOOOOOOOOOOOOOOOOOOOOOOOOOOOOOOOOOOOOOOOOOOOOOO+++    ",
"   +++OOOooooooooooooooooooooooooooooooooooooooooooooooOOO+++   ",
"   ++OOOooooooooooooooooooooooooooooooooooooooooooooooooOOO++   ",
"   ++OOoooXXXXXXXXXXXXXXXXXXXXXXXXXXXXXXXXXXXXXXXXXXXXoooOO++   ",
"  ++OOoooXXXXXXXXXXXXXXXXXXXXXXXXXXXXXXXXXXXXXXXXXXXXXXoooOO++  ",
"  ++OOooXXX..........................................XXXooOO++  ",
"  ++OOooXX............................................XXooOO++  ",
"  ++OOooXX..                                        ..XXooOO++  ",
"  ++OOooXX..                                        ..XXooOO++  ",
"  ++OOooXX..                                        ..XXooOO++  ",
"  ++OOooXX..                                        ..XXooOO++  ",
"  ++OOooXX..                                        ..XXooOO++  ",
"  ++OOooXX..                                        ..XXooOO++  ",
"  ++OOooXX..                                        ..XXooOO++  ",
"  ++OOooXX..                                        ..XXooOO++  ",
"  ++OOooXX..                                        ..XXooOO++  ",
"  ++OOooXX..                                        ..XXooOO++  ",
"  ++OOooXX..                                        ..XXooOO++  ",
"  ++OOooXX..                                        ..XXooOO++  ",
"  ++OOooXX..                                        ..XXooOO++  ",
"  ++OOooXX..                                        ..XXooOO++  ",
"  ++OOooXX..                                        ..XXooOO++  ",
"  ++OOooXX..                                        ..XXooOO++  ",
"  ++OOooXX..                                        ..XXooOO++  ",
"  ++OOooXX..                                        ..XXooOO++  ",
"  ++OOooXX..                                        ..XXooOO++  ",
"  ++OOooXX..                                        ..XXooOO++  ",
"  ++OOooXX..                                        ..XXooOO++  ",
"  ++OOooXX..                                        ..XXooOO++  ",
"  ++OOooXX..                                        ..XXooOO++  ",
"  ++OOooXX..                                        ..XXooOO++  ",
"  ++OOooXX..                                        ..XXooOO++  ",
"  ++OOooXX..                                        ..XXooOO++  ",
"  ++OOooXX..                                        ..XXooOO++  ",
"  ++OOooXX..                                        ..XXooOO++  ",
"  ++OOooXX..                                        ..XXooOO++  ",
"  ++OOooXX..                                        ..XXooOO++  ",
"  ++OOooXX..                                        ..XXooOO++  ",
"  ++OOooXX..                                        ..XXooOO++  ",
"  ++OOooXX..                                        ..XXooOO++  ",
"  ++OOooXX..                                        ..XXooOO++  ",
"  ++OOooXX..                                        ..XXooOO++  ",
"  ++OOooXX..                                        ..XXooOO++  ",
"  ++OOooXX..                                        ..XXooOO++  ",
"  ++OOooXX..                                        ..XXooOO++  ",
"  ++OOooXX..                                        ..XXooOO++  ",
"  ++OOooXX..                                        ..XXooOO++  ",
"  ++OOooXX............................................XXooOO++  ",
"  ++OOooXXX..........................................XXXooOO++  ",
"  ++OOoooXXXXXXXXXXXXXXXXXXXXXXXXXXXXXXXXXXXXXXXXXXXXXXoooOO++  ",
"   ++OOoooXXXXXXXXXXXXXXXXXXXXXXXXXXXXXXXXXXXXXXXXXXXXoooOO++   ",
"   ++OOOooooooooooooooooooooooooooooooooooooooooooooooooOOO++   ",
"   +++OOOooooooooooooooooooooooooooooooooooooooooooooooOOO+++   ",
"    +++OOOOOOOOOOOOOOOOOOOOOOOOOOOOOOOOOOOOOOOOOOOOOOOOOO+++    ",
"     ++++OOOOOOOOOOOOOOOOOOOOOOOOOOOOOOOOOOOOOOOOOOOOOO++++     ",
"      ++++++++++++++++++++++++++++++++++++++++++++++++++++      ",
"         ++++++++++++++++++++++++++++++++++++++++++++++         ",
"                                                                ",
"                                                                "
};
