/* XPM */
static char *e3d7f8769376437b9e4df3c18e53b4acHDdM3KFwhTqmxeFf[] = {
/* columns rows colors chars-per-pixel */
"64 64 6 1 ",
"  c None",
". c #0B1428",
"X c #0E1D3C",
"o c #132A59",
"O c #1B3D82",
"+ c #2761D5",
/* pixels */
"  ++OOooXX..                                                    ",
"  ++OOooXX..                                                    ",
"  ++OOooXX..                                                    ",
"  ++OOooXX..                                                    ",
"  ++OOooXX..                                                    ",
"  ++OOooXX..                                                    ",
"  ++OOooXX..                                                    ",
"  ++OOooXX..                                                    ",
"  ++OOooXX..                                                    ",
"  ++OOooXX..                                                    ",
"  ++OOooXX..                                                    ",
"  ++OOooXX..                                                    ",
"  ++OOooXX..                                                    ",
"  ++OOooXX..                                                    ",
"  ++OOooXX..                                                    ",
"  ++OOooXX..                                                    ",
"  ++OOooXX..                                                    ",
"  ++OOooXX..                                                    ",
"  ++OOooXX..                                                    ",
"  ++OOooXX..                                                    ",
"  ++OOooXX..                                                    ",
"  ++OOooXX..                                                    ",
"  ++OOooXX..                                                    ",
"  ++OOooXX..                                                    ",
"  ++OOooXX..                                                    ",
"  ++OOooXX..                                                    ",
"  ++OOooXX..                                                    ",
"  ++OOooXX..                                                    ",
"  ++OOooXX..                                                    ",
"  ++OOooXX..                                                    ",
"  ++OOooXX..                                                    ",
"  ++OOooXX..                                                    ",
"  ++OOooXX..                                                    ",
"  ++OOooXX..                                                    ",
"  ++OOooXX..                                                    ",
"  ++OOooXX..                                                    ",
"  ++OOooXX..                                                    ",
"  ++OOooXX..                                                    ",
"  ++OOooXX..                                                    ",
"  ++OOooXX..                                                    ",
"  ++OOooXX..                                                    ",
"  ++OOooXX..                                                    ",
"  ++OOooXX..                                                    ",
"  ++OOooXX..                                                    ",
"  ++OOooXX..                                                    ",
"  ++OOooXX..                                                    ",
"  ++OOooXX..                                                    ",
"  ++OOooXX..                                                    ",
"  ++OOooXX..                                                    ",
"  ++OOooXX..                                                    ",
"  ++OOooXX..                                                    ",
"  ++OOooXX..                                                    ",
"  ++OOooXX......................................................",
"  ++OOooXXX.....................................................",
"  ++OOoooXXXXXXXXXXXXXXXXXXXXXXXXXXXXXXXXXXXXXXXXXXXXXXXXXXXXXXX",
"   ++OOoooXXXXXXXXXXXXXXXXXXXXXXXXXXXXXXXXXXXXXXXXXXXXXXXXXXXXXX",
"   ++OOOoooooooooooooooooooooooooooooooooooooooooooooooooooooooo",
"   +++OOOooooooooooooooooooooooooooooooooooooooooooooooooooooooo",
"    +++OOOOOOOOOOOOOOOOOOOOOOOOOOOOOOOOOOOOOOOOOOOOOOOOOOOOOOOOO",
"     ++++OOOOOOOOOOOOOOOOOOOOOOOOOOOOOOOOOOOOOOOOOOOOOOOOOOOOOOO",
"      ++++++++++++++++++++++++++++++++++++++++++++++++++++++++++",
"         +++++++++++++++++++++++++++++++++++++++++++++++++++++++",
"                                                                ",
"                                                                "
};
