/* XPM */
static char *_e17af74799e4261cbf39fdddc8ba32eCR6xgLdB2qfESw8I[] = {
/* columns rows colors chars-per-pixel */
"64 64 6 1 ",
"  c None",
". c #0B1428",
"X c #0E1D3C",
"o c #132A59",
"O c #1B3D82",
"+ c #2761D5",
/* pixels */
"                                                                ",
"                                                                ",
"         +++++++++++++++++++++++++++++++++++++++++++++++++++++++",
"      ++++++++++++++++++++++++++++++++++++++++++++++++++++++++++",
"     ++++OOOOOOOOOOOOOOOOOOOOOOOOOOOOOOOOOOOOOOOOOOOOOOOOOOOOOOO",
"    +++OOOOOOOOOOOOOOOOOOOOOOOOOOOOOOOOOOOOOOOOOOOOOOOOOOOOOOOOO",
"   +++OOOooooooooooooooooooooooooooooooooooooooooooooooooooooooo",
"   ++OOOoooooooooooooooooooooooooooooooooooooooooooooooooooooooo",
"   ++OOoooXXXXXXXXXXXXXXXXXXXXXXXXXXXXXXXXXXXXXXXXXXXXXXXXXXXXXX",
"  ++OOoooXXXXXXXXXXXXXXXXXXXXXXXXXXXXXXXXXXXXXXXXXXXXXXXXXXXXXXX",
"  ++OOooXXX.....................................................",
"  ++OOooXX......................................................",
"  ++OOooXX..                                                    ",
"  ++OOooXX..                                                    ",
"  ++OOooXX..                                                    ",
"  ++OOooXX..                                                    ",
"  ++OOooXX..                                                    ",
"  ++OOooXX..                                                    ",
"  ++OOooXX..                                                    ",
"  ++OOooXX..                                                    ",
"  ++OOooXX..                                                    ",
"  ++OOooXX..                                                    ",
"  ++OOooXX..                                                    ",
"  ++OOooXX..                                                    ",
"  ++OOooXX..                                                    ",
"  ++OOooXX..                                                    ",
"  ++OOooXX..                                                    ",
"  ++OOooXX..                                                    ",
"  ++OOooXX..                                                    ",
"  ++OOooXX..                                                    ",
"  ++OOooXX..                                                    ",
"  ++OOooXX..                                                    ",
"  ++OOooXX..                                                    ",
"  ++OOooXX..                                                    ",
"  ++OOooXX..                                                    ",
"  ++OOooXX..                                                    ",
"  ++OOooXX..                                                    ",
"  ++OOooXX..                                                    ",
"  ++OOooXX..                                                    ",
"  ++OOooXX..                                                    ",
"  ++OOooXX..                                                    ",
"  ++OOooXX..                                                    ",
"  ++OOooXX..                                                    ",
"  ++OOooXX..                                                    ",
"  ++OOooXX..                                                    ",
"  ++OOooXX..                                                    ",
"  ++OOooXX..                                                    ",
"  ++OOooXX..                                                    ",
"  ++OOooXX..                                                    ",
"  ++OOooXX..                                                    ",
"  ++OOooXX..                                                    ",
"  ++OOooXX..                                                    ",
"  ++OOooXX..                                                    ",
"  ++OOooXX..                                                    ",
"  ++OOooXX..                                                    ",
"  ++OOooXX..                                                    ",
"  ++OOooXX..                                                    ",
"  ++OOooXX..                                                    ",
"  ++OOooXX..                                                    ",
"  ++OOooXX..                                                    ",
"  ++OOooXX..                                                    ",
"  ++OOooXX..                                                    ",
"  ++OOooXX..                                                    ",
"  ++OOooXX..                                                    "
};
