/* XPM */
static char *_eacf2e55e17434b9dbe669a41e724bfUviXrwnyACiWgWqw[] = {
/* columns rows colors chars-per-pixel */
"64 64 6 1 ",
"  c None",
". c #0B1428",
"X c #0E1D3C",
"o c #132A59",
"O c #1B3D82",
"+ c #2761D5",
/* pixels */
"  ++OOooXX..                                                    ",
"  ++OOooXX..                                                    ",
"  ++OOooXX..                                                    ",
"  ++OOooXX..                                                    ",
"  ++OOooXX..                                                    ",
"  ++OOooXX..                                                    ",
"  ++OOooXX..                                                    ",
"  ++OOooXX..                                                    ",
"  ++OOooXX..                                                    ",
"  ++OOooXX..                                                    ",
"  ++OOooXX..                                                    ",
"  ++OOooXX..                                                    ",
"  ++OOooXX..                                                    ",
"  ++OOooXX..                                                    ",
"  ++OOooXX..                                                    ",
"  ++OOooXX..                                                    ",
"  ++OOooXX..                                                    ",
"  ++OOooXX..                                                    ",
"  ++OOooXX..                                                    ",
"  ++OOooXX..                                                    ",
"  ++OOooXX..                                                    ",
"  ++OOooXX..                                                    ",
"  ++OOooXX..                                                    ",
"  ++OOooXX..                                                    ",
"  ++OOooXX..                                                    ",
"  ++OOooXX..                                                    ",
"  ++OOooXX..                                                    ",
"  ++OOooXX..                                                    ",
"  ++OOooXX..                                                    ",
"  ++OOooXX..                                                    ",
"  ++OOooXX..                                                    ",
"  ++OOooXX..                                                    ",
"  ++OOooXX..                                                    ",
"  ++OOooXX..                                                    ",
"  ++OOooXX..                                                    ",
"  ++OOooXX..                                                    ",
"  ++OOooXX..                                                    ",
"  ++OOooXX..                                                    ",
"  ++OOooXX..                                                    ",
"  ++OOooXX..                                                    ",
"  ++OOooXX..                                                    ",
"  ++OOooXX..                                                    ",
"  ++OOooXX..                                                    ",
"  ++OOooXX..                                                    ",
"  ++OOooXX..                                                    ",
"  ++OOooXX..                                                    ",
"  ++OOooXX..                                                    ",
"  ++OOooXX..                                                    ",
"  ++OOooXX..                                                    ",
"  ++OOooXX..                                                    ",
"  ++OOooXX..                                                    ",
"  ++OOooXX..                                                    ",
"  ++OOooXX..                                                    ",
"  ++OOooXX..                                                    ",
"  ++OOooXX..                                                    ",
"  ++OOooXX..                                                    ",
"  ++OOooXX..                                                    ",
"  ++OOooXX..                                                    ",
"  ++OOooXX..                                                    ",
"  ++OOooXX..                                                    ",
"  ++OOooXX..                                                    ",
"  ++OOooXX..                                                    ",
"  ++OOooXX..                                                    ",
"  ++OOooXX..                                                    "
};
