/* XPM */
static char *_d7a732222ae4198a181fb39b647441cuRllNSsWfT087162[] = {
/* columns rows colors chars-per-pixel */
"64 64 6 1 ",
"  c None",
". c #0B1428",
"X c #0E1D3C",
"o c #132A59",
"O c #1B3D82",
"+ c #2761D5",
/* pixels */
"                                                                ",
"                                                                ",
"+++++++++++++++++++++++++++++++++++++++++++++++++++++++         ",
"++++++++++++++++++++++++++++++++++++++++++++++++++++++++++      ",
"OOOOOOOOOOOOOOOOOOOOOOOOOOOOOOOOOOOOOOOOOOOOOOOOOOOOOOO++++     ",
"OOOOOOOOOOOOOOOOOOOOOOOOOOOOOOOOOOOOOOOOOOOOOOOOOOOOOOOOO+++    ",
"oooooooooooooooooooooooooooooooooooooooooooooooooooooooOOO+++   ",
"ooooooooooooooooooooooooooooooooooooooooooooooooooooooooOOO++   ",
"XXXXXXXXXXXXXXXXXXXXXXXXXXXXXXXXXXXXXXXXXXXXXXXXXXXXXXoooOO++   ",
"XXXXXXXXXXXXXXXXXXXXXXXXXXXXXXXXXXXXXXXXXXXXXXXXXXXXXXXoooOO++  ",
".....................................................XXXooOO++  ",
"......................................................XXooOO++  ",
"                                                    ..XXooOO++  ",
"                                                    ..XXooOO++  ",
"                                                    ..XXooOO++  ",
"                                                    ..XXooOO++  ",
"                                                    ..XXooOO++  ",
"                                                    ..XXooOO++  ",
"                                                    ..XXooOO++  ",
"                                                    ..XXooOO++  ",
"                                                    ..XXooOO++  ",
"                                                    ..XXooOO++  ",
"                                                    ..XXooOO++  ",
"                                                    ..XXooOO++  ",
"                                                    ..XXooOO++  ",
"                                                    ..XXooOO++  ",
"                                                    ..XXooOO++  ",
"                                                    ..XXooOO++  ",
"                                                    ..XXooOO++  ",
"                                                    ..XXooOO++  ",
"                                                    ..XXooOO++  ",
"                                                    ..XXooOO++  ",
"                                                    ..XXooOO++  ",
"                                                    ..XXooOO++  ",
"                                                    ..XXooOO++  ",
"                                                    ..XXooOO++  ",
"                                                    ..XXooOO++  ",
"                                                    ..XXooOO++  ",
"                                                    ..XXooOO++  ",
"                                                    ..XXooOO++  ",
"                                                    ..XXooOO++  ",
"                                                    ..XXooOO++  ",
"                                                    ..XXooOO++  ",
"                                                    ..XXooOO++  ",
"                                                    ..XXooOO++  ",
"                                                    ..XXooOO++  ",
"                                                    ..XXooOO++  ",
"                                                    ..XXooOO++  ",
"                                                    ..XXooOO++  ",
"                                                    ..XXooOO++  ",
"                                                    ..XXooOO++  ",
"                                                    ..XXooOO++  ",
"                                                    ..XXooOO++  ",
"                                                    ..XXooOO++  ",
"                                                    ..XXooOO++  ",
"                                                    ..XXooOO++  ",
"                                                    ..XXooOO++  ",
"                                                    ..XXooOO++  ",
"                                                    ..XXooOO++  ",
"                                                    ..XXooOO++  ",
"                                                    ..XXooOO++  ",
"                                                    ..XXooOO++  ",
"                                                    ..XXooOO++  ",
"                                                    ..XXooOO++  "
};
