/* XPM */
static char *_4caffe3e4754e63b80c76885fb9beb0yGFxlqEYtr6PaXXO[] = {
/* columns rows colors chars-per-pixel */
"32 32 6 1 ",
"  c None",
". c #0B1428",
"X c #0E1D3C",
"o c #132A59",
"O c #1B3D82",
"+ c #2761D5",
/* pixels */
"                                ",
"     ++++++++++++++++++++++     ",
"   +++OOOOOOOOOOOOOOOOOOOO+++   ",
"  ++OOOooooooooooooooooooOOO++  ",
"  +OOoooXXXXXXXXXXXXXXXXoooOO+  ",
" ++OooXXX..............XXXooO++ ",
" +OOoXX..................XXoOO+ ",
" +OooX.                  .XooO+ ",
" +OoXX.                  .XXoO+ ",
" +OoX..                  ..XoO+ ",
" +OoX..                  ..XoO+ ",
" +OoX..                  ..XoO+ ",
" +OoX..                  ..XoO+ ",
" +OoX..                  ..XoO+ ",
" +OoX..                  ..XoO+ ",
" +OoX..                  ..XoO+ ",
" +OoX..                  ..XoO+ ",
" +OoX..                  ..XoO+ ",
" +OoX..                  ..XoO+ ",
" +OoX..                  ..XoO+ ",
" +OoX..                  ..XoO+ ",
" +OoX..                  ..XoO+ ",
" +OoX..                  ..XoO+ ",
" +OoXX.                  .XXoO+ ",
" +OooX.                  .XooO+ ",
" +OOoXX..................XXoOO+ ",
" ++OooXXX..............XXXooO++ ",
"  +OOoooXXXXXXXXXXXXXXXXoooOO+  ",
"  ++OOOooooooooooooooooooOOO++  ",
"   +++OOOOOOOOOOOOOOOOOOOO+++   ",
"     ++++++++++++++++++++++     ",
"                                "
};
