/* XPM */
static char *c8c5cd419f024252b162bea5989220513Gd6g2wmUR4crOxt[] = {
/* columns rows colors chars-per-pixel */
"16 16 9 1 ",
"  c None",
". c black",
"X c #312812",
"o c #55461F",
"O c #FF0040",
"+ c #D9D902",
"@ c yellow",
"# c #26FBE5",
"$ c #F3FFE2",
/* pixels */
"         $$$    ",
"$$$$     $##$   ",
"$##$$ @@@@@@@   ",
"$###@@@@@@@.$@  ",
"$$#@@@@@@@....@ ",
" $@@@..$@@..@@@ ",
"  @@.$...@.@@@@ ",
" o@@...@@@@@@@@ ",
" o@@..@@@@@@@@@ ",
" o@@@.@@@@..@@+ ",
" oo@@@@@@OO..@+ ",
" @oo@@@@@@OOO+X ",
" @@oo@@@@@@+++XX",
" .@@ooo@+++++ XX",
"...@@oXXXXXX    ",
"        XX      "
};
