/* XPM */
static char *_884fef5d1ff45aadefd677f0c414330iEMJLGZFWALSXu8U[] = {
/* columns rows colors chars-per-pixel */
"32 32 220 2 ",
"   c None",
".  c black",
"X  c #000001",
"o  c #020200",
"O  c #000003",
"+  c gray1",
"@  c #010104",
"#  c #010105",
"$  c #010107",
"%  c #050504",
"&  c #060604",
"*  c #010108",
"=  c #02020F",
"-  c #0E0E0D",
";  c #191900",
":  c #1A1A17",
">  c #241C02",
",  c #211C0C",
"<  c #262600",
"1  c #2F2F00",
"2  c #3A3A00",
"3  c #2D2511",
"4  c #302712",
"5  c #312812",
"6  c #322912",
"7  c #322A12",
"8  c #352C12",
"9  c #352C14",
"0  c #3A2F15",
"q  c #383011",
"w  c #3D3511",
"e  c #3F3611",
"r  c #3F3711",
"t  c #3C3116",
"y  c #090A2D",
"u  c #0C0D2E",
"i  c #191A2E",
"p  c #070832",
"a  c #070934",
"s  c #080937",
"d  c #080938",
"f  c #090A3D",
"g  c #090A3E",
"h  c #0B0D3E",
"j  c #262622",
"k  c #2E303D",
"l  c #393934",
"z  c #404000",
"x  c #444400",
"c  c #4E460F",
"v  c #50490F",
"b  c #5A5A00",
"n  c #5B5B00",
"m  c #53441E",
"M  c #54451F",
"N  c #55461F",
"B  c #56471F",
"V  c #57481F",
"C  c #5A4B1E",
"Z  c #5C4E1E",
"A  c #655F0D",
"S  c #6B5E1B",
"D  c #676701",
"F  c #737300",
"G  c #7A750B",
"H  c #756919",
"J  c #796D18",
"K  c #7B6F18",
"L  c #544620",
"P  c #101245",
"I  c #171943",
"U  c #1A1C42",
"Y  c #222440",
"T  c #8D1D1F",
"R  c #B32527",
"E  c #FF023F",
"W  c #C1282A",
"Q  c #C12A2C",
"!  c #C82B2D",
"~  c #C92B2D",
"^  c #D0372B",
"/  c #E42F32",
"(  c #E52F32",
")  c #C84227",
"_  c #CD5224",
"`  c #FF0040",
"'  c #FF0140",
"]  c #6E9575",
"[  c #808000",
"{  c #818102",
"}  c #979700",
"|  c #9C9C01",
" . c #959208",
".. c #84851F",
"X. c #9E9612",
"o. c #9F9612",
"O. c #95961F",
"+. c #A09811",
"@. c #A19911",
"#. c #A29A11",
"$. c #A2A200",
"%. c #B2AC0E",
"&. c #B5AF0D",
"*. c #BBBB00",
"=. c #BDBD00",
"-. c #AFB017",
";. c #BBBB17",
":. c #FFA417",
">. c #FFA616",
",. c #FF8020",
"<. c #C9C900",
"1. c #CBCB02",
"2. c #C6C10A",
"3. c #CBCB0F",
"4. c #D8D507",
"5. c #D8D800",
"6. c #D9D902",
"7. c #DADA02",
"8. c #DDDD02",
"9. c #DDDA06",
"0. c #D1D10D",
"q. c #D6D70C",
"w. c #DBDB0A",
"e. c #DEDE0A",
"r. c #C8C910",
"t. c #FFC60E",
"y. c #FFC80E",
"u. c #FFDD09",
"i. c #E1E102",
"p. c #E4E401",
"a. c #E8E801",
"s. c #EBEB00",
"d. c #E9E906",
"f. c #E8E807",
"g. c #EFEF05",
"h. c #E3E308",
"j. c #F7E505",
"k. c #FFE506",
"l. c #F0F000",
"z. c #F1F100",
"x. c #F1F101",
"c. c #F2F200",
"v. c #F6F600",
"b. c #F7F700",
"n. c #F5F402",
"m. c #FDF702",
"M. c #F9F901",
"N. c #FAFA00",
"B. c #FBFB00",
"V. c #F9F902",
"C. c #FDF801",
"Z. c #FDFD00",
"A. c #FCFC01",
"S. c #FFFD00",
"D. c #FEFE00",
"F. c #FFFE00",
"G. c yellow",
"H. c #E6FF1A",
"J. c #DEFE22",
"K. c #D7FE2A",
"L. c #CCFE35",
"P. c #D0FE30",
"I. c #808074",
"U. c #A5FD5C",
"Y. c #2EFBD8",
"T. c #35FBD0",
"R. c #21FBE5",
"E. c #22FBE5",
"W. c #23FBE5",
"Q. c #25FBE5",
"!. c #26FBE5",
"~. c #28FBE5",
"^. c #29FBE5",
"/. c #2EFBE5",
"(. c #32FBE5",
"). c #3AFBE5",
"_. c #3BFBE5",
"`. c #48FCE6",
"'. c #4EFCE6",
"]. c #54FCE6",
"[. c #58FCE6",
"{. c #5BFCE6",
"}. c #60FCE6",
"|. c #63FCE6",
" X c #64FCE6",
".X c #72FCE6",
"XX c #76FDE7",
"oX c #77FDE7",
"OX c #7CFDE7",
"+X c #839E90",
"@X c #FFFF96",
"#X c #C4C4B4",
"$X c #FDFDAB",
"%X c #FFFFAB",
"&X c #FFFFBE",
"*X c #89FDE7",
"=X c #92FDE7",
"-X c #9BFDE7",
";X c #9DFDE7",
":X c #9EFDE7",
">X c #B4FEE8",
",X c #B9FEE8",
"<X c #DADAC7",
"1X c #E9EAD6",
"2X c #E4FFD5",
"3X c #C4FEE8",
"4X c #C5FEE8",
"5X c #CDFEE8",
"6X c #D6FEE8",
"7X c #E1FEE8",
"8X c #E9FFE9",
"9X c #F3FFE2",
"0X c #F9F9E3",
"qX c #F9F9E4",
"wX c #FAFAE5",
"eX c #F0FFE9",
"rX c #F3FFE9",
"tX c #FAFFE9",
"yX c #FEFEE8",
"uX c #FFFFE9",
/* pixels */
"                                                                ",
"                          _.!.1X                                ",
"                        7X XR.R.+X                              ",
"                      <XR.rXuXR.uXqX                            ",
"                      ;XR.R.`.uX}.uX                            ",
"                  *.H.J.G.G.G.G.R.R.                uXuXuXuX    ",
"              $.G.G.G.G.G.G.G.G.K.U.;.          uX.XR.=XR.R.OX  ",
"            G.G.G.G.G.G.G.G.G.G.G.G.G.l.    & 4X~.R.R.-XR.R.(.  ",
"        =.1 x &X$X0.G.G.G.G.G.G.G.G.G.G.G.#X}.'.{.6XR.;X3X].~.  ",
"      G.h . uXuXqXp d.G.G.G.G.G.G.G.G.G.$X2XT.Y.R.oX_.tXR.>X8X  ",
"    l.i . . j uXqX. = h.G.G.U k I k -.G.G.G.G.L.R.oXuX!.R.R./.  ",
"    G.a . . . : # uX# d.q.a u uXuXl g P G.G.G.P.R.uX5X*XR.R.{.  ",
"  b.G.G.g.G.l.D . & * e.<.. . uXuX- . # 3.G.G.G.9XR.R.R.8X,X    ",
"  G.G.G.` E :.k.n . . g.g . . . . . uX. O.G.G.G.@XR.R.R.uX      ",
"  G.G.G.G.` ` ` b.. * w.d . . . I.. . . d G.G.G.G.R.R.;XL       ",
"  G.G.G.G.t.,.,.G.G.G.G...[ [ [ z . . . g G.G.G.G.R.R.] L       ",
"  G.G.G.G.G.G.. G.G.G.G.G.G.G.G.[ . . # r.G.G.G.G.uXG.M M       ",
"  G.G.G.G.G.n . . 5.G.G.G.E ` ` >.G.2 y V.G.G.G.G.G.G.M M       ",
"    G.G.G.G.. . . . > m.G.G.E ` ` ` G.Y G.G.G.G.G.G.b.L M       ",
"    8.s.G.G.. . R W ! Q G.G.G.t.u.t.G.G.G.G.G.G.G.G.L L M       ",
"    7.p.G.G.< T ( ! Q ) G.G.G.G.G.G.G.G.G.G.G.G.G.M M M C       ",
"    <.7.8.G.G./ ( Q Q j.G.G.G.G.G.G.G.G.G.G.G.G.S M V V L       ",
"      6.7.V.G.^ Q _ G.G.G.G.G.G.G.G.G.G.G.G.G.9.M M M M G.      ",
"      A 7.7.G.G.C.G.G.G.G.G.G.G.G.G.G.G.G.G.G.L M V M %.G.      ",
"    5 5 { 6.6.l.G.G.G.G.G.G.G.G.G.G.G.G.G.G.Z M M V M &.G.      ",
"    5 ,     5  .7.G.G.G.G.G.G.G.G.G.G.G.J M M M M M M G.V.      ",
"              5 4 G +.+.G.G.G.G.X.#.+.#.M V M V V J G.G.      . ",
"              5 4 7 4 4 7 m M M M L M V M M M M V.G.G.F .   . . ",
"            , 5 7 c 4 7 7 4 4 7 9 t 0 t M M 2.4.G.G.G.; . . .   ",
"            3 5   | 1.v 0 w 8 r 7 r 8 r Z H G.G.s.} . . .       ",
"                                                                ",
"                                                                "
};
