/* XPM */
static char *cbf6cb307ffd460ac5d0e9a12e01a4f5QCRRqEgvyxXkIOSc[] = {
/* columns rows colors chars-per-pixel */
"64 64 12 1 ",
"  c None",
". c black",
"X c #312812",
"o c #55461F",
"O c #0A0C47",
"+ c #C12A2C",
"@ c #E52F32",
"# c #FF0040",
"$ c #D9D902",
"% c yellow",
"& c #21FBE5",
"* c #FFFFE9",
/* pixels */
"                                                                ",
"                                                                ",
"                                                                ",
"                                                                ",
"                          ****                                  ",
"                         **&&**                                 ",
"                        **&&&&**                                ",
"                       **&&&&&&*                                ",
"                      *****&&&&&*                               ",
"                      *&&&***&****                              ",
"                     **&&&&&**&&**                              ",
"                     *&&&&&&**&&&*                              ",
"                    *&&&&&&&&*&&&**                             ",
"                   %%&%%%%%%%%&&&&*             *********       ",
"                %%%%%%%%%%%%%%%%&&*           ***&**&&&&&**     ",
"              %%%%%%%%%%%%%%%%%%%%%%        ***&&&&**&&&&&**    ",
"            %%%%%%%%%%%%%%%%%%%%%%%%%%    .**&&&&&&&*&&&&&&*    ",
"          %%%%%%%%%%%%%%%%%%%%%%%%%%%%%%  **&&&&&&&&*&&&&&&*    ",
"        %%%OOOOOOO%%%%%%%%%%%%%%%%%%%%%%%*******&&&**&&&&&&*    ",
"       %%%O...***.O%%%%%%%%%%%%%%%%%%%%%**&&&&&**&&*******&*    ",
"       %%O...*****.O%%%%%%%%%%%%%%%%%%%**&&&&&&&*&***&&&&***    ",
"      %%O....*****..O%%%%%%%%%%%%%%%%%%%%%%%&&&&***&&&&&&&*     ",
"     %%O......***....O%%%%%OOOOOOOO%%%%%%%%%%&&&**&&&&&&&**     ",
"     %%O..........**.O%%%OOO.****.OOO%%%%%%%%&&*****&&&&&*      ",
"    %%%O.......*..**.O%%OO..******..OO%%%%%%%&&**&&&*&&&*       ",
"    %%%O.............O%%O...******...OO%%%%%%%**&&&&&*&&        ",
"    %%%%%%%%%%%......O%%O....****.....O%%%%%%%*&&&&&&*&*        ",
"   %%%%%%####%%%.....O%OO.........**..O%%%%%%%*&&&&&&**         ",
"   %%%%%%######%%....O%O..........**..OO%%%%%%%&&&&&&*          ",
"   %%%%%%%######%%...O%O........*......O%%%%%%%&&&&&*o          ",
"   %%%%%%%%%####%%%%%%%OO..............O%%%%%%%&&&&*oo          ",
"   %%%%%%%%%%%%%%%%%%%%%%..............O%%%%%%%&&&*oooo         ",
"   $%%%%%%%%%%%%%%%%%%%%%%%%%%%.......OO%%%%%%%&&*ooooo         ",
"   $%%%%%%%%%%..%%%%%%%%%%%%%%%%......O%%%%%%%%**%ooooo         ",
"   $$%%%%%%%%%...%%%%%%%%%####%%%%...OO%%%%%%%%%%%ooooo         ",
"   $$%%%%%%%%......%%%%%%%######%%%.OO%%%%%%%%%%%%ooooo         ",
"    $$%%%%%%%........%%%%%%#######%%O%%%%%%%%%%%%%ooooo%        ",
"    $$%%%%%%%.......@@+%%%%%%#####%%%%%%%%%%%%%%%oooooo%        ",
"    $$$%%%%%%....@@@@++%%%%%%%%%%%%%%%%%%%%%%%%%%oooooo%        ",
"    $$$$%%%%%...@@@@+++%%%%%%%%%%%%%%%%%%%%%%%%%%oooooo%        ",
"     $$$%%%%%..@@@@++++%%%%%%%%%%%%%%%%%%%%%%%%oooooooo%        ",
"     $$$$%%%%%.@@+++++%%%%%%%%%%%%%%%%%%%%%%%%%ooooooo%%        ",
"      $$$$%%%%@@@+++++%%%%%%%%%%%%%%%%%%%%%%%%oooooooo%%        ",
"      X$$$%%%%@+++++%%%%%%%%%%%%%%%%%%%%%%%%%oooooooo%%%        ",
"     XX$$$$%%%%++++%%%%%%%%%%%%%%%%%%%%%%%%%%oooooooo%%%        ",
"    XXXX$$$$%%%%%%%%%%%%%%%%%%%%%%%%%%%%%%%%ooooooooo%%%        ",
"    XXXX$$$$$%%%%%%%%%%%%%%%%%%%%%%%%%%%%%%ooooooooo%%%         ",
"   XXXXXX$$$$$%%%%%%%%%%%%%%%%%%%%%%%%%%%%ooooooooo%%%%         ",
"   XXXXXX $$$$$$%%%%%%%%%%%%%%%%%%%%%%%%%oooooooooo%%%          ",
"   XXXXX  $$$$$$$$%%%%%%%%%%%%%%%%%%%%%ooooooooooo%%%%          ",
"   XXXX    $$$$$$$$$%%%%%%%%%%%%%%%%%oooooooooooo%%%%%          ",
"    XX      XXXXXXXXooo%%%%%%%oooooooooooooooooo%%%%%           ",
"             XXXXXXXXXXoooooooooooooooooooooooo%%%%%%           ",
"               $XXXXXXXXXXoooooooooooooooooooo%%%%%%..          ",
"                $$XXXXXXXXXXXXXooooooooooooo%%%%%%%....   ..    ",
"                 $XXXXXXXXXXXXXXXXXXXooooo%%%%%%%%..........    ",
"                 XXXXXX$XXXXXXXXXXXXXXXX%%%%%%%%%..........     ",
"                XXXXXXX$$$$$$$XXXXXX$$$$$$$$$$$..........       ",
"                XXXXXX $$$$$$$$$$$$$$$$$$$$$      .....         ",
"                XXXXX        $$$$$$$$$$$$                       ",
"                XXXX                                            ",
"                 XX                                             ",
"                                                                ",
"                                                                "
};
