/* XPM */
static char *_022b6641cd04b719793f5d63acc5c49S28wxiMo4AP4eUDj[] = {
/* columns rows colors chars-per-pixel */
"48 48 12 1 ",
"  c None",
". c black",
"X c #312812",
"o c #55461F",
"O c #0A0C47",
"+ c #C12A2C",
"@ c #E52F32",
"# c #FF0040",
"$ c #D9D902",
"% c yellow",
"& c #21FBE5",
"* c #FFFFE9",
/* pixels */
"                                                ",
"                   ***                          ",
"                  *&&&*                         ",
"                 *&&&&&*                        ",
"                ****&&&&*                       ",
"                *&&***&***                      ",
"               **&&&&**&**                      ",
"              *&&&&&&&*&&**                     ",
"             %%&%%%%%%%&&&*           *******   ",
"           %%%%%%%%%%%%%&&*         ***&*&&&&*  ",
"         %%%%%%%%%%%%%%%%%%%       **&&&&*&&&&* ",
"       %%%%%%%%%%%%%%%%%%%%%%    .*&&&&&&*&&&&* ",
"      %%%%%%%%%%%%%%%%%%%%%%%%%  ****&&&&*&&&&* ",
"    %%...***O%%%%%%%%%%%%%%%%%%**&&&&**&&***&&* ",
"   %%O..****.O%%%%%%%%%%%%%%%%**&&&&&&*&**&&*** ",
"  %%O...****..O%%%%%%%%%%%%%%%%%%%%&&&***&&&&&* ",
"  %O.....***...O%%%%OOOOOOO%%%%%%%%&&&**&&&&&&* ",
" %%O........**.O%%OOO.***.OOO%%%%%%&&****&&&&&* ",
" %%O......*.**.O%%O..*****..O%%%%%%&&**&&*&&&*  ",
"%%%%%%%%%%.....O%%....***....O%%%%%%*&&&&&*&*   ",
"%%%%%###%%%....O%O........**.O%%%%%%*&&&&&**    ",
"%%%%%#####%%...O%O........**.OO%%%%%%&&&&&*     ",
"%%%%%%#####%...O%O......*.....O%%%%%%&&&&*o     ",
"%%%%%%%####%%%%%%O............O%%%%%%&&&&oo     ",
"%%%%%%%%%%%%%%%%%%%%%%%%......O%%%%%%&&&*ooo    ",
"%%%%%%%%%..%%%%%%%%%%%%%.....O%%%%%%%**%oooo    ",
"%%%%%%%%%...%%%%%%%####%%%...O%%%%%%%%%%oooo    ",
"%%%%%%%%.....%%%%%%#####%%%.O%%%%%%%%%%%oooo    ",
" %%%%%%%.......%%%%%######%%O%%%%%%%%%%%oooo    ",
" $%%%%%%......@@+%%%%%####%%%%%%%%%%%%%ooooo    ",
" $$$%%%%...@@@+++%%%%%%%%%%%%%%%%%%%%%%ooooo    ",
" $$$%%%%..@@@++++%%%%%%%%%%%%%%%%%%%%ooooooo    ",
"  $$$%%%%.@@++++%%%%%%%%%%%%%%%%%%%%%oooooo%    ",
"  $$$$%%%@@@++++%%%%%%%%%%%%%%%%%%%%ooooooo%    ",
"   $$$%%%@++++%%%%%%%%%%%%%%%%%%%%%ooooooo%%    ",
"   $$$$%%%+++%%%%%%%%%%%%%%%%%%%%%%ooooooo%%    ",
"   X$$$$%%%%%%%%%%%%%%%%%%%%%%%%%%ooooooo%%%    ",
" XXXX$$$$%%%%%%%%%%%%%%%%%%%%%%%%oooooooo%%%    ",
" XXXX $$$$$%%%%%%%%%%%%%%%%%%%%%ooooooooo%%     ",
" XXX   XXX$$%%%%%%%%%%%%%%%%%%oooooooooo%%%     ",
"        XXXX$$%%%%%%%%%%%%%%%oooooooooo%%%%     ",
"         XXXXXooo%%%%%%ooooooooooooooo%%%%     .",
"         XXXXXXXXXXooooooooooooooooo%%%%%..  ...",
"         XXXXXXXXXXXXXXXooooooooooo%%%%%%...... ",
"        XXXX$XXXXXXXXXXXXXXXXoooo%%%%%%%......  ",
"        XXX  $$$XXXXXXXXXXXXXooo%%%%%%......    ",
"                $$$$$$$$$$$$$%%%%%%%            ",
"                                                "
};
