/* XPM */
static char *_af93601f9f841a39a82e20b1b8d6a34DLkwd5bHhzYnDhKD[] = {
/* columns rows colors chars-per-pixel */
"64 64 7 1 ",
"  c None",
". c #C37808",
"X c #FF9700",
"o c #FF9900",
"O c #FFB300",
"+ c #FFC94A",
"@ c #FDD981",
/* pixels */
"   oOOOOOOOOOOOOOOOOOOOOOOOOOOOOOOOOOOOOOOOOOOOOOOOOOOOOOOOOoo  ",
"  ooOOOOOOOOOOOOOOOOOOOOOOOOOOOOOOOOOOOOOOOOOOOOOOOOOOOOOOOOOoo ",
"oooOOOOOOOOOOOOOOOOOOOOOOOOOOOOOOOOOOOOOOOOOOOOOOOOOOOOOOOOOOOo ",
"oOOOOO++++++++++++++++++++++++++++++++++++++++++++++++++++OOOOo ",
"oOOOO++++@@++OOOOOOOOOOOOOOOOOOOOOOOOOOOOOOOOOOOOOOOOOOO++OOOOo ",
"oOOOO+++@@@@++OOOOOOOOOOOOOOOOOOOOOOOOOOOOOOOOOOOOOOOOOO++OOOOo ",
"oOOOO+++@@@@++OOOOOOOOOOOOOOOOOOOOOOOOOOOOOOOOOOOOOOOOOO++OOOOo ",
"ooOOO++++@@+++O+++OOOOOOOOOOOOOOOOOOOOOOOOOOOOOOOOOOOOO+++OOOOo ",
" oOOOO+++++++OO+++OOOOOOOOOOOOOOOOOOOOOOOOOOOOOOOOOOOO++++OOOoo ",
" oOOOO+++++OOOO+++OOOOOOOOOOOOOOOOOOOOOOOOOOOOOOOOOOOO+++OOOOo  ",
" ooOOOO+++++OOOOOOOOOOOOOOOOOOOOOOOOOOOOOOOOOOOOOOOOO+++OOOOoo  ",
"  ooOOOOOO+++++OOOOOOOOOOOOOOOOOOOOOOOOOOOOOOOOOOOOO+++OOOOoo   ",
"   oooOOOOOO++++OOOOOOOOOOOOOOOOOOOOOOOOOOOOOOOOOOO+++OOOooo    ",
"     oooOOOOOO+++++++OOOOOOOOOOOOOOOOOOOOOOOOOO+++++OOOOoo      ",
"       oooOOOOO++++++++OOOOOOOOOOOOOOOOOOOOO+++++OOOOOOoo       ",
"         oo...OOO+++++++OOOOOOOOOOOOOOOO+++++++OOOOOOooo        ",
"             ..OO+++OOOOOOOOOOOOOOOOOOO+++++++OO..oooo          ",
"              .OO++OOOOOOOOOOOOOOOOOOOOO+++++OO..               ",
"              ..O++OOOOOOOOOOOOOOOOOOOOOO+++OO..                ",
"               .O++OOOOOOOOOOOOOOOOOOOOOO++OO..                 ",
"               .O++OOOOOOOOOOOOOOOOOOOOOO++OO.                  ",
"               .O++OOOOOOOOOOOOOOOOOOOOOO++OO.                  ",
"               .O++OOOOOOOOOOOOOOOOOOOOOO+OO..                  ",
"               .O++OOOOOOOOOOOOOOOOOOOOOO+OO.                   ",
"               .O++OOOOOOOOOOOOOOOOOOOOOO+O..                   ",
"               .OO++OOOOOOOXXXXXXXOOOOOOO+O..                   ",
"               ..OO+OOOOXXXXXXXXXXXXOOOO++O.                    ",
"                ..O+OOXXXXXXXXXXXXXXXXOO+OO.                    ",
"                 .O++OOOXXXXXXXXXXXXXXO++O..                    ",
"                 .OO++OOOXXXXXXXXXXXXXO+OO..                    ",
"                 ..OOO++OOXXXXXXXXXXXO++OO.                     ",
"                  ...OO++OOXXXXXXXXXOO+OO..                     ",
"                    ..OO++OOOXXXXXXOO++O..                      ",
"                     ..OO+++OOOOOOOO++OO.                       ",
"                      ..OOO++++++++++OOO.                       ",
"                       ..OOOO++++++OOOO..                       ",
"                        ...OOOOOOOOOOO..                        ",
"                          ....OOOOOO...                         ",
"                             ........                           ",
"                                                                ",
"                                                                ",
"                                                                ",
"                                                                ",
"                                                                ",
"                                                                ",
"                                                                ",
"                                                                ",
"                                                                ",
"                                                                ",
"                                                                ",
"                                                                ",
"                                                                ",
"                                                                ",
"                                                                ",
"                                                                ",
"                                                                ",
"                                                                ",
"                                                                ",
"                                                                ",
"                                                                ",
"                                                                ",
"                                                                ",
"                                                                ",
"                                                                "
};
