/* XPM */
static char *_b40462469d647809b3c0f5661d68c53vCsLlyJQGns8zFId[] = {
/* columns rows colors chars-per-pixel */
"64 64 7 1 ",
"  c None",
". c #C57805",
"X c #FF9900",
"o c #FFB200",
"O c #FFB300",
"+ c #FFC949",
"@ c #FDD982",
/* pixels */
"                                                                ",
"                                                                ",
"                                                                ",
"                                                                ",
"                                                                ",
"                                                                ",
"                         XXXXXXXXXXXXXXXX                       ",
"                      XXXXOOOOOOOOOOOOOOXXX                     ",
"                    XXXOOOOOOOOOOOOOOOOOOOXXXX                  ",
"                  XXXOOOOOO+++++++++++OOOOOOOXX                 ",
"                 XXOOOOO++++++++++++++++++OOOOXXX               ",
"                XXOOOO++++++++++++++++++++++OOOOXX              ",
"               XXOOO++++++++++++++++++++++++++OOOXX             ",
"              XXOOO++++@@++OOOOOOOoOoOoOO++++++OOOXX            ",
"             XXOOO+++++@@+OOOOOOOOOoOOoOOOO+++++OOOXX           ",
"            XXOOO+++++++++OOOOOOOOOOoOOOOOOO+++++OOOX           ",
"            XOOO++++++OOOOOOOOOOOOOOOOOOOOOOO+++++OOXX          ",
"           XXOO+++@@@++OOOOOOOOOOOOOOOOOOOOOOOO+++OOOX          ",
"           XOOO++@@@@@+OOOOOOOOOOOOOOOOOOOOOOOOO+++OOXX         ",
"          XXOO+++@@@@@+OOOOOOOOOOOOOOOOOOOOOOOOOO++OOOX         ",
"          XOO++++@@@@@+OOO+++OOOOOOOOOOOOOOOOOOOO+++OOX         ",
"         XXOO+++++@@@++OOO+++OOOOOOOOOOOOOOOOOOOOO++OOXX        ",
"         XOO+++O++++++OOOO+++OOOOOOOOOOOOOOOOOOOOO++OOOX        ",
"        XXOO++OOOOOOOOOOOOOOOOOOOOOOOOOOOOOOOOOOOOO++OOXX       ",
"        XOOO+OOOOOOOOOOOOOOOOOOOOOOOOOOOOOOOOOOOOOO++OOOX       ",
"        XOO++OOOOOOOOOOOOOOOOOOOOOOOOOOOOOOOOOOOOOOO++OOX       ",
"        XOO+OOOOOOOOOOOOOOOOOOOOOOOOOOOOOOOOOOOOOOOO++OOX       ",
"        XOO+OOOOOOOOOOOOOOOOOOOOOOOOOOOOOOOOOOOOOOOOO+OOX       ",
"        XOO+OOOOOOOOOOOOOOOOOOOOOOOOOOOOOOOOOOOOOOOOO+OOX       ",
"        XOO+OOOOOOOOOOOOOOOOOOOOOOOOOOOOOOOOOOOOOOOOO+OOX       ",
"        XOO+OOOOOOOOOOOOOOOOOOOOOOOOOOOOOOOOOOOOOOOOO+OOX       ",
"        XOO+OOOOOOOOOOOOOOOOOOOOOOOOOOOOOOOOOOOOOOOOO+OOX       ",
"        XOO+OOOOOOOOOOOOOOOOOOOOOOOOOOOOOOOOOOOOOOOOO+OOX       ",
"        XOO+OOOOOOOOOOOOOOOOOOOOOOOOOOOOOOOOOOOOOOOOO+OOX       ",
"        XOO+OOOOOOOOOOOOOXXXXXXXXXXXXXXXXOOOOOOOOOOOO+OOX       ",
"        XOO+OOOOOOOOOOXXXXXXXXXXXXXXXXXXXXXXOOOOOOOOO+OOX       ",
"        XOO++OOOOOOXXXXXXXXXXXXXXXXXXXXXXXXXXXXOOOOO++OOX       ",
"        XOO++OOOOXXXXXXXXXXXXXXXXXXXXXXXXXXXXXXXXOOO++OOX       ",
"        XOO++OOOXXXXXXXXXXXXXXXXXXXXXXXXXXXXXXXXXXOO++OO.       ",
"        .OO++OOXXXXXXXXXXXXXXXXXXXXXXXXXXXXXXXXXXXOO++O..       ",
"        ..OO++OXXXXXXXXXXXXXXXXXXXXXXXXXXXXXXXXXXXOO+OO.        ",
"         .OO++OXXXXXXXXXXXXXXXXXXXXXXXXXXXXXXXXXXOO++OO.        ",
"         .OO++OOXXXXXXXXXXXXXXXXXXXXXXXXXXXXXXXXXO+++O..        ",
"         ..OO++OOXXXXXXXXXXXXXXXXXXXXXXXXXXXXXXXOO++OO.         ",
"          .OO+++OOXXXXXXXXXXXXXXXXXXXXXXXXXXXXXOO+++OO.         ",
"          .OOOO++OOXXXXXXXXXXXXXXXXXXXXXXXXXOOOO+++OO..         ",
"          ..OOO+++OOOOXXXXXXXXXXXXXXXXXXXOOOOO+++++OO.          ",
"           ..OOO++++OOOOOOOXXXXXXXXXXXOOOOOO++++++OO..          ",
"            .OOOO++++++++OOOOOOOOOOOOOOOO+++++++OOOO.           ",
"            ..OOOOO+++++++++++++++++++++++++++OOOO...           ",
"             ...OOOOOO++++++++++++++++++++OOOOOO...             ",
"               ...OOOOOOOOOOOOOOOOOOOOOOOOOO.....               ",
"                 .......OOOOOOOOOOOOOOO......                   ",
"                       .................                        ",
"                                                                ",
"                                                                ",
"                                                                ",
"                                                                ",
"                                                                ",
"                                                                ",
"                                                                ",
"                                                                ",
"                                                                ",
"                                                                "
};
