/* XPM */
static char *_45b36989eda4c9388e86f143db37e7cLYYviY23ZT4C1MA2[] = {
/* columns rows colors chars-per-pixel */
"32 32 231 2 ",
"   c None",
".  c black",
"X  c #010101",
"o  c #040404",
"O  c gray2",
"+  c #060606",
"@  c #070707",
"#  c gray3",
"$  c #090909",
"%  c #0B0B0B",
"&  c #0C0C0C",
"*  c gray5",
"=  c #0E0E0E",
"-  c gray6",
";  c #111111",
":  c gray7",
">  c gray8",
",  c gray9",
"<  c #181818",
"1  c #191919",
"2  c #1B1A1A",
"3  c #1A1A1B",
"4  c #1B1B1B",
"5  c #1D1D1C",
"6  c #1D1D1D",
"7  c #1E1D1D",
"8  c #1D1D1E",
"9  c #1D1E1E",
"0  c #1E1E1E",
"q  c #282B2F",
"w  c #333637",
"e  c #343637",
"r  c #353839",
"t  c #453F32",
"y  c #454033",
"u  c #4B4433",
"i  c #4B4434",
"p  c #4B4534",
"a  c #524832",
"s  c #534933",
"d  c #5C4F31",
"f  c #5E5031",
"g  c #67562F",
"h  c #725D2E",
"j  c #735E2E",
"k  c #735E2F",
"l  c #675630",
"z  c #685730",
"x  c #7D642D",
"c  c #7F662D",
"v  c #504F48",
"b  c #505049",
"n  c #51514A",
"m  c #5A6268",
"M  c #646C72",
"N  c #656C72",
"B  c #656D72",
"V  c #666D72",
"C  c #676E72",
"Z  c #666E74",
"A  c #666E75",
"S  c #696F71",
"D  c #6A7071",
"F  c #6B7171",
"G  c #6C7171",
"H  c #6E7371",
"J  c #737671",
"K  c #717572",
"L  c #797C76",
"P  c #7B7D77",
"I  c #93742F",
"U  c #95762F",
"Y  c #AD8732",
"T  c #B08933",
"R  c #C79B35",
"E  c #C79A36",
"W  c #CB9D36",
"Q  c #FDBB2D",
"!  c #FDBC2D",
"~  c #E2AE37",
"^  c #E5AF34",
"/  c #E6AF34",
"(  c #E2AE38",
")  c #EEC461",
"_  c #FFCD60",
"`  c #FACE6A",
"'  c #EDCA74",
"]  c #FDD272",
"[  c #FDD476",
"{  c #FDD477",
"}  c #3E4D84",
"|  c #47568B",
" . c #49588D",
".. c #4A598E",
"X. c #4A5A8E",
"o. c #4B5A8E",
"O. c #4B5A8F",
"+. c #4B5B8F",
"@. c #4C5B8F",
"#. c #4C5C90",
"$. c #4D5C90",
"%. c #4D5D90",
"&. c #4E5D91",
"*. c #4E5E91",
"=. c #4F5E91",
"-. c #4F5F91",
";. c #4F5E92",
":. c #4F5F92",
">. c #536395",
",. c #556596",
"<. c #566597",
"1. c #5B6B9C",
"2. c #6A7480",
"3. c #6A7581",
"4. c #6B7682",
"5. c #6C7782",
"6. c #6D7783",
"7. c #6D7883",
"8. c #6E7884",
"9. c #6F7984",
"0. c #6F7A85",
"q. c #707B85",
"w. c #707B86",
"e. c #717C86",
"r. c #727D86",
"t. c #727C87",
"y. c #737D87",
"u. c #737E87",
"i. c #717C89",
"p. c #737E88",
"a. c #727D8A",
"s. c #747F89",
"d. c #6172A0",
"f. c #6677A4",
"g. c #6979A5",
"h. c #687AA7",
"j. c #6E7FAA",
"k. c #7181A4",
"l. c #7282A4",
"z. c #7282A5",
"x. c #7383A5",
"c. c #7383A6",
"v. c #7483A6",
"b. c #7484A6",
"n. c #7484A7",
"m. c #7081AD",
"M. c #7182AC",
"N. c #7385AE",
"B. c #7384AF",
"V. c #7787AD",
"C. c #7A8BB0",
"Z. c #788AB2",
"A. c #798AB2",
"S. c #7B8DB4",
"D. c #7A8CB5",
"F. c #7D8FB7",
"G. c #7E90B6",
"H. c #9DA096",
"J. c #A0A49D",
"K. c #8395BA",
"L. c #8497BD",
"P. c #8598BC",
"I. c #879ABF",
"U. c #8EA0BD",
"Y. c #91A3BF",
"T. c #E5D6A5",
"R. c #E5D6A6",
"E. c #E6DBB6",
"W. c #E7DCB6",
"Q. c #E8DBB2",
"!. c #8DA0C2",
"~. c #8FA2C4",
"^. c #8FA2C5",
"/. c #93A6C7",
"(. c #92A5C8",
"). c #97AACA",
"_. c #99ADCD",
"`. c #9AADCC",
"'. c #9CB0D0",
"]. c #A9B8C3",
"[. c #ACBBC3",
"{. c #AFBCC3",
"}. c #ABB9C4",
"|. c #ACBCC9",
" X c #B2BEC3",
".X c #A2B5D2",
"XX c #A4B7D4",
"oX c #A4B8D6",
"OX c #A7BBD8",
"+X c #B4C0C2",
"@X c #B7C1C2",
"#X c #BCC5C2",
"$X c #BCC5C3",
"%X c #ABC0DB",
"&X c #AEC2DC",
"*X c #AEC2DE",
"=X c #B3C6D8",
"-X c #B1C6DF",
";X c #B6C9DB",
":X c #BACDDD",
">X c #B1C5E0",
",X c #B3C8E1",
"<X c #B4C9E1",
"1X c #B6CAE2",
"2X c #B6CBE3",
"3X c #B7CBE3",
"4X c #B9CEE5",
"5X c #B8CDE6",
"6X c #B9CEE6",
"7X c #BDD0E1",
"8X c #BBD0E7",
"9X c #BCD1E7",
"0X c #BDD3E9",
"qX c #BED3E9",
"wX c #BCD2EA",
"eX c #C3CAC3",
"rX c #C9CFC4",
"tX c #D0D4C4",
"yX c #D0D4C5",
"uX c #D9DDD1",
"iX c #C0D5EB",
"pX c #C1D6EB",
"aX c #C1D7EC",
"sX c #C2D8ED",
"dX c #C3D9ED",
"fX c #C4DAEC",
"gX c #C5DBEF",
"hX c #C6DBEE",
"jX c #C4D9F0",
"kX c #C6DBF0",
"lX c #C8DEF1",
/* pixels */
"                                                                ",
"                                                                ",
"      ).C.,.-.-.-.&.&.-.-.$.$.$.@.O.$.O.O.O. .#.O. .-.B./.      ",
"      G.| <.C.n.c.n.n.n.n.n.n.c.x.c.c.c.c.k.c.c.k.V.-.} C.      ",
"      g.1./.m w r r r r r r r r r r r r r r r r w m U.>.d.      ",
"    ,Xj.m.a.1 < 0 0 5 0 5 5 5 5 5 5 5 5 0 5 5 5 1 1 p.h.f.>X    ",
"    3XC.D.2.5 , : : : : > > : > > : > : > : > : 1 5 2.B.m.3X    ",
"    4XK.L.6.5 1 - - : : : : : : : : : : : : - - 1 5 2.F.S.3X    ",
"    8X!.^.6.5 1 : % @ $ $ $ $ $ $ $ $ $ $ @ $ : 1 5 8.I.L.4X    ",
"    0X)._.0.5 1 : = + + $ $ @ @ @ @ @ $ + + = : 1 0 8.(.(.4X    ",
"    iX.XoX0.5 1 : = # o . . . . . . . . o @ = : 1 5 w.'.`.0X    ",
"    sX%X*Xp.5 1 : = # o . . . . . . . . o # & : 1 5 w.OXXXpX    ",
"    kX3X4Xp.5 1 : & # o . . . . . . . . o # = : 1 5 w.>X-XsX    ",
"    lXiXjXp.5 1 : = # o . . . . . . . . o # = : 1 5 s.0X4XgX    ",
"    gX:X7Xs.5 1 : = + o . . . . . . . . o # = : 1 5 r.;X=XgX    ",
"    |.b b A 5 1 : & # o . . . . . . . . o @ = : 1 5 C v v |.    ",
"    ].t t M 0 1 : = @ o . . . . . . . . . $ = : 1 5 M t t ].    ",
"    [.i p A 0 1 : = @ o . . . . . . . . + $ = : 1 5 C p p }.    ",
"    [.s s C 0 1 : = @ + . . . . . . . . . $ = : 1 0 A s a [.    ",
"    [.d d C 0 1 : % @ + . . . . . . . . + @ % : 1 0 C f d {.    ",
"     Xz l S 0 1 : = + o . . . . . . . . + + = : 1 0 S l l  X    ",
"     Xh k F 0 1 : = + + o o + o + + o o + @ % : 1 5 S h h +X    ",
"    @Xc c F 5 1 : = + + @ # @ @ @ + @ @ + + % : 1 0 H c c +X    ",
"    #XI U H 5 < : % % = & = = = = = = = = % = : 1 0 H U I $X    ",
"    eXY T J 5 < = : : : : : : : : : : : : : : = 1 5 J T T eX    ",
"    rXE W J 4 < 1 1 1 1 1 1 1 1 1 1 1 1 1 1 1 1 1 4 J W E rX    ",
"    tX~ ( H.q 4 5 5 5 5 5 5 5 5 5 5 5 5 5 5 5 5 4 q H.( ( yX    ",
"      ) ! ' H.L P P P P P P P P P P P P P P P P L H.' ! )       ",
"      R.` _ [ { { { { { { { { { { [ [ [ { { { { { ] _ ` R.      ",
"        uXW.Q.Q.Q.Q.Q.Q.Q.Q.Q.Q.E.Q.Q.Q.Q.Q.Q.Q.Q.W.E.uX        ",
"                                                                ",
"                                                                "
};
