/* XPM */
static char *result[] = {
/* columns rows colors chars-per-pixel */
"16 16 126 2 ",
"   c #717FA8",
".  c #9D9E99",
"X  c #A29F94",
"o  c #AFA997",
"O  c #A1A29C",
"+  c #A9A79C",
"@  c #B1AC99",
"#  c #BDB295",
"$  c #8692B6",
"%  c #8995B6",
"&  c #8E9CBE",
"*  c #959FBC",
"=  c #98A4BE",
"-  c #98A4BF",
";  c #B0AFAB",
":  c #B3B0A7",
">  c #B0B0AA",
",  c #B6B4AA",
"<  c #BBB6A9",
"1  c #BDB8AA",
"2  c #D2BD8E",
"3  c #C1B59D",
"4  c #C6BFA8",
"5  c #C7BEAC",
"6  c #D6C49B",
"7  c #E7CD8D",
"8  c #EDD291",
"9  c #E8D49B",
"0  c #ECD59B",
"q  c #D6C8A6",
"w  c #D7CAAC",
"e  c #F3DAA1",
"r  c #F3DBAA",
"t  c #F2DFB2",
"y  c #F2DEB7",
"u  c #F2E2B9",
"i  c #F3E3B9",
"p  c #F2E0BA",
"a  c #F3E2BA",
"s  c #F3E2BB",
"d  c #F3E3BB",
"f  c #F4E4BC",
"g  c #9CA6C4",
"h  c #9EA8C3",
"j  c #A1ABC4",
"k  c #A4AEC6",
"l  c #A6AFC7",
"z  c #A0ADCA",
"x  c #A6AFC9",
"c  c #A4ADCA",
"v  c #A3B2CE",
"b  c #ADB7CE",
"n  c #B2BCCF",
"m  c #BBC3C7",
"M  c #BFC7CA",
"N  c #B5C3DA",
"B  c #B9C5D9",
"V  c #BFC8D8",
"C  c #C3C8CB",
"Z  c #C9CDCF",
"A  c #C8D0DD",
"S  c #C9D3DF",
"D  c #DFDCD4",
"F  c #DFDCD5",
"G  c #D7DADD",
"H  c #D8D9DC",
"J  c #DADBDD",
"K  c #DADCDE",
"L  c #DCDDDF",
"P  c gray87",
"I  c #DFDFDF",
"U  c #E0DDD4",
"Y  c #E0DED5",
"T  c #E1DED5",
"R  c #E1DFD7",
"E  c #E3E0D7",
"W  c #E4E0D7",
"Q  c #E3E0D8",
"!  c #E0E0DF",
"~  c #C4D2E4",
"^  c #C9D3E3",
"/  c #D1D9E2",
"(  c #D4DDE7",
")  c #DDDEE0",
"_  c #D7DEE8",
"`  c #D3DEEC",
"'  c #D2DFEE",
"]  c #DFE0E2",
"[  c #DFE1E5",
"{  c #DFE6ED",
"}  c #DCE7F3",
"|  c gray88",
" . c #E0E0E1",
".. c #E1E1E2",
"X. c #E0E1E3",
"o. c #E2E2E2",
"O. c #E2E3E3",
"+. c #E2E3E4",
"@. c #E3E3E4",
"#. c #E3E4E6",
"$. c #E4E4E5",
"%. c gray90",
"&. c #E6E5E6",
"*. c #E6E6E6",
"=. c #E7E7E7",
"-. c gray91",
";. c #E9E9E8",
":. c #E8E8E9",
">. c #E9E9E9",
",. c #EAEAE9",
"<. c #EAEAEA",
"1. c #EBEBEA",
"2. c gray92",
"3. c #EBEBEC",
"4. c #EEEEED",
"5. c #EFEFEF",
"6. c gray94",
"7. c #F1F1F1",
"8. c gray95",
"9. c #F3F3F3",
"0. c #F9F9F9",
"q. c gray98",
"w. c gray99",
"e. c #FDFDFD",
"r. c white",
"t. c None",
/* pixels */
"t.t.t.t.t.t.t.t.t.t.t.t.t.t.t.t.",
"t.t.$ g c x l k j h = * %   t.t.",
"t.z b [ ] ) ) L L K H J G - & t.",
"t.B A ;.4.2.1.2.,.=.=.<.! n v t.",
"t.^ / -.9.w.e.e.w.w.w.5.P V N t.",
"t.` _ *.9.r.r.r.r.r.r.6.I S ~ t.",
"t.} { *.8.r.r.r.r.r.r.6.| ( ' t.",
"t.M Z %.8.r.r.r.r.r.r.7.o.C m t.",
"t.. ; @.7.r.r.r.r.r.r.7.@.> O t.",
"t.X : o.6.r.r.r.r.r.r.7.O., + t.",
"t.o <  .5.r.r.r.r.r.r.7.+.1 @ t.",
"t.3 5 ..6.0.0.0.0.q.q.8.$.4 # t.",
"t.6 w X.:.&.*.*.=.>.>.3.#.q 2 t.",
"t.9 0 T F D U Y R E Q Q W 8 7 t.",
"t.t.r y p u i a d f f s t e t.t.",
"t.t.t.t.t.t.t.t.t.t.t.t.t.t.t.t."
};
