/* XPM */
static char *_4f110d8656145aace2be6b19550fe7fZyeWeOzYebPw4Fo6[] = {
/* columns rows colors chars-per-pixel */
"16 16 81 1 ",
"  c None",
". c black",
"X c #010101",
"o c #020202",
"O c #060606",
"+ c gray3",
"@ c gray4",
"# c gray6",
"$ c #111010",
"% c #111111",
"& c #111212",
"* c #131314",
"= c gray12",
"- c #1D1F22",
"; c #202020",
": c #202021",
"> c #202121",
", c gray13",
"< c #212122",
"1 c #212224",
"2 c #222324",
"3 c #2E3033",
"4 c #2E3034",
"5 c #2F3135",
"6 c #2F3235",
"7 c #3C4045",
"8 c #4F4E48",
"9 c #575448",
"0 c #585549",
"q c #595549",
"w c #655D47",
"e c #756847",
"r c #626259",
"t c #686558",
"y c #706B5A",
"u c #71797F",
"i c #917D4B",
"p c #817658",
"a c #998657",
"s c #C1A45B",
"d c #C2A45B",
"f c #D3AF59",
"g c #E4C069",
"h c #5F6E95",
"j c #5E6E9D",
"k c #737B81",
"l c #606E95",
"z c #606F96",
"x c #616F96",
"c c #617096",
"v c #617097",
"b c #627197",
"n c #667497",
"m c #6A7791",
"M c #6E7C95",
"N c #617099",
"B c #65759C",
"V c #6B799A",
"C c #6474A2",
"Z c #76849B",
"A c #7A889E",
"S c #798BB3",
"D c #7F91B8",
"F c #8290A4",
"G c #8695A8",
"H c #8F9EAF",
"J c #929EA7",
"K c #95A2A9",
"L c #93A2B3",
"P c #F2D389",
"I c #EAD294",
"U c #EAD295",
"Y c #EDD494",
"T c #899CC1",
"R c #90A3C6",
"E c #9AAECE",
"W c #A0B4D3",
"Q c #ABBFDB",
"! c #B1C6E0",
"~ c #BDD3EB",
"^ c #C3D9F0",
/* pixels */
"                ",
"  CBbNNbbbzzNj  ",
" DV7464444447nS ",
" RM=$$$$$$&$=mT ",
" WA;#+@@+@+#<ZE ",
" !G;#O....O#<FQ ",
" ^L<#O....O#<H~ ",
" Kk<#O....O#<uJ ",
" r82#O....O#28r ",
" yq1#+....O#1qy ",
" pw1#Ooo.o+#1wp ",
" ae1#@@@@@@#1ea ",
" si;*******$;is ",
" gft9q9909q9tfg ",
"  PUUUUUUUUUYP  ",
"                "
};
