/* XPM */
static char *_c985473625b48b8c9a027c0d974b20e84V1YwfjvuLiToHC[] = {
/* columns rows colors chars-per-pixel */
"48 48 179 2 ",
"   c None",
".  c #746E65",
"X  c #7C7462",
"o  c #7A756A",
"O  c #7B766A",
"+  c #7F7A70",
"@  c #87795E",
"#  c #847C6A",
"$  c #8A7E69",
"%  c #847E72",
"&  c #B3995E",
"*  c #8E8168",
"=  c #958565",
"-  c #9E8B65",
";  c #9C8C6E",
":  c #968769",
">  c #8C8371",
",  c #A28C65",
"<  c #A4936D",
"1  c #AB9467",
"2  c #BB9D6C",
"3  c #A69271",
"4  c #B09974",
"5  c #B7A16A",
"6  c #BFA374",
"7  c #C19F5B",
"8  c #CDA659",
"9  c #DBAE55",
"0  c #E6BA57",
"q  c #C9A968",
"w  c #D3AE69",
"e  c #DBB967",
"r  c #CEAC74",
"t  c #D5B472",
"y  c #F5C14C",
"u  c #F8C95C",
"i  c #E4C566",
"p  c #FACE68",
"a  c #FFD36E",
"s  c #F5CF76",
"d  c #FFD47B",
"f  c #FFD576",
"g  c #4D5A8D",
"h  c #525F91",
"j  c #546292",
"k  c #596695",
"l  c #5C6997",
"z  c #616D9A",
"x  c #64729E",
"c  c #6E789F",
"v  c #6A75A0",
"b  c #6E7CA2",
"n  c #727DA3",
"m  c #7683A5",
"M  c #7583AB",
"N  c #7B85AB",
"B  c #7C88AB",
"V  c #7E8BB2",
"C  c #7E87B0",
"Z  c #828CAE",
"A  c #828DB1",
"S  c #8593B6",
"D  c #8A93B3",
"F  c #8993B9",
"G  c #8D99BB",
"H  c #8790B8",
"J  c #919CBB",
"K  c #95A0BF",
"L  c #ACAEA7",
"P  c #A7ACAD",
"I  c #A9ADAB",
"U  c #ADB2AE",
"Y  c #B3B5AB",
"T  c #BBB9AA",
"R  c #AAAFB0",
"E  c #AEB3B3",
"W  c #B4B7B5",
"Q  c #B5B9B5",
"!  c #BBBDB3",
"~  c #B3B8B8",
"^  c #C2BDAA",
"/  c #F3D386",
"(  c #FCD78B",
")  c #E8D497",
"_  c #FEDB95",
"`  c #FCDD9C",
"'  c #F3D899",
"]  c #FCE19E",
"[  c #CAC1AC",
"{  c #D4C5A3",
"}  c #D4CBAC",
"|  c #DACCA1",
" . c #DDD2AC",
".. c #C2C1B5",
"X. c #C9C6B5",
"o. c #CEC9B5",
"O. c #D5CCB4",
"+. c #D8CFB0",
"@. c #DCD3B5",
"#. c #E3D5AB",
"$. c #FFDEA3",
"%. c #F3DBAA",
"&. c #E7DBBD",
"*. c #FFE2A3",
"=. c #929FC1",
"-. c #9BA6C6",
";. c #9CABCA",
":. c #9AA6C3",
">. c #A1AFCB",
",. c #A5B2CD",
"<. c #AEB9CE",
"1. c #ACBBD4",
"2. c #A8B6D1",
"3. c #B2BED5",
"4. c #BFC9CF",
"5. c #AFC0DB",
"6. c #B4C1D6",
"7. c #B4C3DA",
"8. c #B9C5DB",
"9. c #BDC9DD",
"0. c #BBC7D7",
"q. c #BECCE1",
"w. c #BFD1E7",
"e. c #C4CDD2",
"r. c #C2CCDD",
"t. c #CBD4D8",
"y. c #D6D5D5",
"u. c #DEDED4",
"i. c #D5D7D9",
"p. c #D6DADD",
"a. c #DCDCDC",
"s. c #D8D7D7",
"d. c #E3DCC4",
"f. c #E0DFDF",
"g. c #DFE2DC",
"h. c #E3E5DF",
"j. c #C4CEE1",
"k. c #C5D2E3",
"l. c #C9D4E4",
"z. c #C2D3E8",
"x. c #C3D5E9",
"c. c #C5D6EA",
"v. c #C6D8EB",
"b. c #C9D9EB",
"n. c #CAD9EC",
"m. c #CCDAEC",
"M. c #CDDAEA",
"N. c #DEDFE0",
"B. c #DBDEE1",
"V. c #D3DEEB",
"C. c #D9DFE8",
"Z. c #DFE0E1",
"A. c #DEE3E4",
"S. c #D6E1EC",
"D. c #DCE4EC",
"F. c #CFE2F4",
"G. c #D3E3F4",
"H. c #DAE6F1",
"J. c #DDE9F4",
"K. c #E1E0E0",
"L. c #E3E3E3",
"P. c #E0E1E2",
"I. c gray90",
"U. c #E4E4E4",
"Y. c #E7E7E7",
"T. c #E3E4E4",
"R. c #E8E7E7",
"E. c #E4E6E9",
"W. c #E5E8E9",
"Q. c gray91",
"!. c #E9E9E9",
"~. c #EAEAEA",
"^. c #ECECEC",
"/. c #EFEFEF",
"(. c #EBEBEB",
"). c #E2EDF5",
"_. c #F2F2F2",
"`. c gray95",
"'. c #FEFEFE",
/* pixels */
"                                                                                                ",
"                                                                                                ",
"                z.c.n.m.F.n.n.n.n.n.n.F.M.m.m.M.M.n.M.v.c.c.c.c.z.z.z.z.z.z.w.w.                ",
"          5.3.G n n n n V A A A A A A A A Z Z Z B N N N M M m b n n v v x z k j V 1.1.          ",
"        G.V l b n N A A A H H F F D D D D Z Z Z Z Z A B Z B m m n n n c v z l h j g M F.        ",
"        n.F n B F q.j.j.k.j.l.k.j.l.l.l.t.l.l.j.r.r.j.j.r.r.r.9.8.j.r.0.8.8.3.b l k M v.        ",
"        ,.M V :.z.E.P.L.P.P.Z.N.f.P.a.N.N.P.N.P.h.N.a.B.a.a.a.i.a.a.a.a.a.i.D.9.M v l ;.        ",
"        2.V G 7.E.I.K.f.f.P.a.a.f.f.f.a.a.a.a.a.a.a.a.a.a.a.a.a.s.s.a.f.s.a.a.V.,.b b ;.        ",
"        1.J :.r.I.L.I.R.I.L.L.L.a.L.L.a.a.a.Z.a.a.a.a.N.a.a.a.a.a.a.a.f.h.P.y.i.1.V M ,.        ",
"        3.>.,.j.Y.L.I.`.^.~.~.I.~.I.~.I.~.~.~.I.R.~.Y.I.I.I.L.L.I.I.Q.^./.a.y.i.5.V V 1.        ",
"        9.,.1.l.E.L.I.(.`.`.~.^.~.I.~.~.~.~.~.~.~.~.I.I.I.I.I.I.I.I.^.`.I.a.y.p.7.G F 1.        ",
"        r.<.6.M.Y.I.Y.(.`.`.`.^.^.(.~.^.~.(.~.~.~.~.~.Y.Y.I.~.I.~.^.`.~.I.a.y.a.8.:.:.7.        ",
"        k.3.0.V.W.I.Y.^././.`.'.'.'.'.'.'.'.'.'.'.'.'.'.'.'.'.'.'.`.(.~.I.i.t.B.q.;.:.7.        ",
"        l.0.e.V.E.I.I.^././.'.'.'.'.'.'.'.'.'.'.'.'.'.'.'.'.'.'.'.'.(.(.I.a.s.g.w.,.>.q.        ",
"        M.9.r.C.E.L.I.^.`.`.'.'.'.'.'.'.'.'.'.'.'.'.'.'.'.'.'.'.'.`.~.~.I.a.i.g.k.2.2.q.        ",
"        M.j.l.D.A.L.L.^./.^.`.'.'.'.'.'.'.'.'.'.'.'.'.'.'.'.'.'.'.'.Q.~.I.a.i.g.l.6.6.w.        ",
"        V.l.l.D.T.L.L.^.^.^.'.'.'.'.'.'.'.'.'.'.'.'.'.'.'.'.'.'.'.'.I.~.I.a.a.a.v.8.7.x.        ",
"        G.M.V.D.E.L.L.~.^.~.'.'.'.'.'.'.'.'.'.'.'.'.'.'.'.'.'.'.'.`.~.~.I.a.i.B.M.r.9.b.        ",
"        S.V.V.).Y.L.I.^./.^.`.'.'.'.'.'.'.'.'.'.'.'.'.'.'.'.'.'.'.'.~.~.I.a.a.a.S.l.r.M.        ",
"        H.S.S.J.Y.T.I.^.^.^.'.'.'.'.'.'.'.'.'.'.'.'.'.'.'.'.'.'.'.'.~.~.I.a.a.a.S.b.x.S.        ",
"        H.J.J.).E.L.L.~./.^.'.'.'.'.'.'.'.'.'.'.'.'.'.'.'.'.'.'.'.'.~.~.I.a.a.B.S.V.n.F.        ",
"        J.).).).L.L.L.R.^.^.'.'.'.'.'.'.'.'.'.'.'.'.'.'.'.'.'.'.'.'.~.~.I.a.a.A.H.H.H.H.        ",
"        0.E ~ t.L.f.P.~.^.^.`.'.'.'.'.'.'.'.'.'.'.'.'.'.'.'.'.'.'.`.(.~.~.a.a.T.e.R P 4.        ",
"        P o + ~ E.P.a.~.^.^.'.'.'.'.'.'.'.'.'.'.'.'.'.'.'.'.'.'.'.'.^.^.~.a.a.E.E O . P         ",
"        P O % Q L.a.N.~.^.^.'.'.'.'.'.'.'.'.'.'.'.'.'.'.'.'.'.'.'.'.~.^.~.a.a.E.E + o U         ",
"        I o % Q T.a.a.~.^.^.'.'.'.'.'.'.'.'.'.'.'.'.'.'.'.'.'.'.'.'.~.^.~.a.a.T.Q > O U         ",
"        I X # ~ D.f.a.R.^.~.'.'.'.'.'.'.'.'.'.'.'.'.'.'.'.'.'.'.'.`.^.^.~.a.a.A.Q > O U         ",
"        I X # Q L.f.a.R.(.~.`.'.'.'.'.'.'.'.'.'.'.'.'.'.'.'.'.'.'.'.^./.~.a.a.L.W > > U         ",
"        L @ # Y A.a.a.Y.^.~.'.'.'.'.'.'.'.'.'.'.'.'.'.'.'.'.'.'.'.'.~.^.~.a.a.T.Q > > U         ",
"        L @ = Q B.a.a.I.~.~.`.'.'.'.'.'.'.'.'.'.'.'.'.'.'.'.'.'.'.'.~.^.Q.a.a.A.! : * Y         ",
"        Y @ : ! B.a.a.I.~.~.`.'.'.'.'.'.'.'.'.'.'.'.'.'.'.'.'.'.'.`.~.(.Q.a.a.A.! : = Y         ",
"        T : ; ! B.a.a.I.I.~.'.'.'.'.'.'.'.'.'.'.'.'.'.'.'.'.'.'.'.'.(.(.~.a.a.A...< = Y         ",
"        T : 3 ^ D.B.a.U.!.~.'.'.'.'.'.'.'.'.'.'.'.'.'.'.'.'.'.'.'.'.~.~.R.P.f.D.^ 3 - T         ",
"        T < 3 ^ B.B.a.R.~.~.`.'.'.'.'.'.'.'.'.'.'.'.'.'.'.'.'.'.'.'.^.~.R.P.f.L.X.< , T         ",
"        ^ 4 4 X.C.a.f.R.^.~.'.'.'.'.'.'.'.'.'.'.'.'.'.'.'.'.'.'.'.'.^.^.(.P.N.P.X.1 1 T         ",
"        ^ 2 6 o.P.a.a.R.^.`.`.^.`.^.`./.^.`.^.`.`.^.`.`.`.`.`.`.`.`.`.`.R.N.a.A.o.5 & ^         ",
"        [ q r O.C.a.a.R.`.`.~.~.~.R.~.~.~.~.R.~.~.~.(.^.^.^.^.^.^.^.`.'.~.a.a.A.} q 8 ^         ",
"        } w t @.C.a.a.^.`.~.~.~.~.~.(.(.~.Y.~.~.~.~.(.^.^.^./.^.^.^.^.`./.a.a.A.} q 8 {         ",
"        +.e e @.N.s.P.I.f.f.f.f.a.a.a.a.a.a.g.g.a.L.L.L.L.K.U.K.I.K.I.L.~.I.a.Z. .e 9 {         ",
"         .i i @.B.f.f.i.a.a.s.a.s.s.a.a.a.a.a.a.a.a.a.a.a.a.f.a.a.f.L.a.a.K.K.D.#.0 0 |         ",
"         .u p ' L.D.i.s.i.s.s.s.s.s.u.a.a.a.a.a.a.g.g.g.a.a.a.g.a.Z.a.N.a.a.W.h./ u y |         ",
"        g./ a a ' A.B.B.C.L.A.T.g.h.A.A.A.A.A.A.A.A.A.A.A.W.T.W.W.A.T.T.A.A.A.' p u s u.        ",
"        S.' d ( ( _ _ ` ` ` ` ` ] ] ] ] ] ` ` ` ] ` *.] ] ] ] ] ] ` ` ` _ _ ( d d a ' G.        ",
"          d.d.%.` $.$.$.$.$.$.$.] ] ] *.] ] ] *.*.*.*.*.*.*.*.*.*.*.*.` ] ] _ _ %.&.&.          ",
"              D.g.g.g.h.Z.L.g.h.h.h.h.h.I.h.h.h.L.T.h.h.h.h.h.I.L.T.h.g.h.g.g.g.A.              ",
"                                                                                                ",
"                                                                                                ",
"                                                                                                "
};
