/* XPM */
static char *e4f4affb620142f8fd9a0a5e1859a1459vOK5mwQnHzhMM3J[] = {
/* columns rows colors chars-per-pixel */
"64 64 119 2 ",
"   c None",
".  c black",
"X  c gray3",
"o  c gray7",
"O  c #2D271B",
"+  c #2F291A",
"@  c #332B1A",
"#  c #392E1A",
"$  c #3D3119",
"%  c #202020",
"&  c #4B3A17",
"*  c #453618",
"=  c #4B3A18",
"-  c #513E17",
";  c #564216",
":  c #5C4515",
">  c #634914",
",  c #694D14",
"<  c #6F5113",
"1  c #755512",
"2  c #36447D",
"3  c #38467F",
"4  c #855F15",
"5  c #846014",
"6  c #936B16",
"7  c #A27617",
"8  c #A27518",
"9  c #B1811A",
"0  c #BF8C1B",
"q  c #C08C1B",
"w  c #CF961D",
"e  c #DEA21F",
"r  c #DDA120",
"t  c #ECAC21",
"y  c #FBB723",
"u  c #FBB823",
"i  c #FFBF37",
"p  c #FFC137",
"a  c #FFC138",
"s  c #FFC952",
"d  c #FFD16C",
"f  c #394780",
"g  c #3C4B82",
"h  c #404F86",
"j  c #425187",
"k  c #455489",
"l  c #48578B",
"z  c #4B5B8E",
"x  c #4E5D91",
"c  c #536395",
"v  c #576798",
"b  c #5C6C9B",
"n  c #5F709F",
"m  c #60709E",
"M  c #6474A2",
"N  c #6778A4",
"B  c #6A7BA6",
"V  c #6E7FAA",
"C  c #7283AD",
"Z  c #7787B0",
"A  c #7688B0",
"S  c #7B8CB4",
"D  c #7F91B7",
"F  c #7F91B8",
"G  c #8091B7",
"H  c #8395BA",
"J  c #869ABD",
"K  c #899BBE",
"L  c #FFD987",
"P  c #8B9DC1",
"I  c #8EA1C3",
"U  c #92A5C6",
"Y  c #96A9C9",
"T  c #99ACCB",
"R  c #9BAECD",
"E  c #99ACCC",
"W  c #9CAFCE",
"Q  c #9FB2D0",
"!  c #A0B2D1",
"~  c #A1B5D3",
"^  c #A2B5D2",
"/  c #A1B6D3",
"(  c #A4B8D5",
")  c #A5B8D4",
"_  c #A4B9D6",
"`  c #A7BBD7",
"'  c #A8BBD7",
"]  c #A7BBD8",
"[  c #ABBDD9",
"{  c #AABFD9",
"}  c #ABBFDA",
"|  c #ADC1DB",
" . c #AEC2DC",
".. c #B0C4DD",
"X. c LightSteelBlue",
"o. c #B3C7E0",
"O. c #B3C8E0",
"+. c #B6CBE2",
"@. c #B5CAE2",
"#. c #B9CDE5",
"$. c #B9CEE5",
"%. c #BBCFE7",
"&. c #BBD0E7",
"*. c #BCD1E7",
"=. c #BCD2E7",
"-. c #BFD4E9",
";. c #BFD4EA",
":. c #C2D6EB",
">. c #C1D7EC",
",. c #C2D7EC",
"<. c #C3D9ED",
"1. c #C5DAED",
"2. c #C4DAEE",
"3. c #C6DDEF",
"4. c #C7DDF0",
"5. c #CAE0F3",
"6. c #CDE2F5",
"7. c #CEE3F5",
"8. c #CAE0F3",
/* pixels */
"                                                                                                                                ",
"                                                                                                                                ",
"                                                                                                                                ",
"                    8.8.8.8.8.8.8.8.8.4.8.8.8.8.8.8.8.8.5.5.5.5.5.5.5.5.5.5.5.5.5.5.5.4.5.5.5.5.5.5.5.5.8.8.                    ",
"              8.8.8.g g g g g g g g f g g g g g g f g f f f g 3 g 3 3 g 3 3 3 3 3 3 3 3 2 2 3 3 3 2 2 2 2 2 4.8.8.              ",
"            8.j j j j j j j g j j j h h g h h g h g j g g g g g g g g g g g g g g g g g g g g g g g g g 3 2 f g g 8.            ",
"            5.l l l l l l l l l k l k k k k k k k k k k k k k k j j k j j k j j j j j j g j j j g h h h g h h j h 4.            ",
"            5.x x x x x 8.8.8.8.8.8.8.8.8.6.8.8.8.8.8.8.8.8.5.5.8.8.8.8.8.8.8.8.8.8.8.8.8.8.8.8.5.5.5.5.k l l j k 8.            ",
"          8.c c c c c 8.8.% % % % % % % % % % % % % % % % % % % % % % % % % % % % % % % % % % % % % % 5.5.z z l x l 8.          ",
"          4.b v v b 8.8.o % % % % % % % % % % % % % % % % % % % % % % % % % % % % % % % % % % % % % % o 5.5.c c c c 8.          ",
"          8.n n n n 4.% % o % % % % % % % % % % % % % % % % % % % % % % % % % % % % % % % % % % % % o % % 5.v v v v 4.          ",
"          8.M N M N 8.% % % o % % % % % % % % % % % % % % % % % % % % % % % % % % % % % % % % % % o % % % 5.b b b b 8.          ",
"          8.B B B B 8.% % % % X o o o o o o o o o o o o o o o o o o o o o o o o o o o o o o o o X % % % % 5.M M M M 8.          ",
"          8.Z C C C 8.% % % % o X o o o o o o o o o o o o o o o o o o o o o o o o o o o o o o X o % % % % 5.N N N N 8.          ",
"          8.A A A A 8.% % % % o o X o o o o o o o o o o o o o o o o o o o o o o o o o o o o X o o % % % % 5.V C V V 8.          ",
"          8.S F S S 8.% % % % o o o X o o o o o o o o o o o o o o o o o o o o o o o o o o X o o o % % % % 5.C C C C 8.          ",
"          8.H H H G 8.% % % % o o o o . X X X X X X X X X X X X X X X X X X X X X X X X . o o o o % % % % 5.S S S A 5.          ",
"          8.J P K K 8.% % % % o o o o X . X X X X X X X X X X X X X X X X X X X X X X . X o o o o % % % % 5.D D D D 5.          ",
"          8.P P P P 5.% % % % o o o o X X . X X X X X X X X X X X X X X X X X X X X . X X o o o o % % % % 5.H J H J 5.          ",
"          4.Y Y Y U 5.% % % % o o o o X X X . X X X X X X X X X X X X X X X X X X . X X X o o o o % % % % 5.P K P K 5.          ",
"          8.R E T T 4.% % % % o o o o X X X X . . . . . . . . . . . . . . . . . . X X X X o o o o % % % % 5.U U U I 5.          ",
"          8.Q ! Q Q 6.% % % % o o o o X X X X . . . . . . . . . . . . . . . . . . X X X X o o o o % % % % 5.Y Y Y Y 5.          ",
"          8.( _ _ ( 8.% % % % o o o o X X X X . . . . . . . . . . . . . . . . . . X X X X o o o o % % % % 5.W W W R 5.          ",
"          8.} } } } 8.% % % % o o o o X X X X . . . . . . . . . . . . . . . . . . X X X X o o o o % % % % 5./ / / / 5.          ",
"          8.X.X.X.X.5.% % % % o o o o X X X X . . . . . . . . . . . . . . . . . . X X X X o o o o % % % % 8._ } _ ' 5.          ",
"          8.+.+.+.+.5.% % % % o o o o X X X X . . . . . . . . . . . . . . . . . . X X X X o o o o % % % % 8. .| |  .5.          ",
"          8.=.=.%.%.5.% % % % o o o o X X X X . . . . . . . . . . . . . . . . . . X X X X o o o o % % % % 8.X.X.o.X.5.          ",
"          8.,.,.,.,.5.% % % % o o o o X X X X . . . . . . . . . . . . . . . . . . X X X X o o o o % % % % 8.%.%.%.#.5.          ",
"          8.4.4.4.3.8.% % % % o o o o X X X X . . . . . . . . . . . . . . . . . . X X X X o o o o % % % % 8.-.,.:.-.5.          ",
"          8.6.6.6.6.8.% % % % o o o o X X X X . . . . . . . . . . . . . . . . . . X X X X o o o o % % % % 8.<.<.<.<.5.          ",
"          8.O O O O 4.% % % % o o o o X X X X . . . . . . . . . . . . . . . . . . X X X X o o o o % % % % 8.O O O O 5.          ",
"          8.+ + + + 8.% % % % o o o o X X X X . . . . . . . . . . . . . . . . . . X X X X o o o o % % % % 4.@ + O @ 5.          ",
"          8.@ @ @ @ 8.% % % % o o o o X X X X . . . . . . . . . . . . . . . . . . X X X X o o o o % % % % 5.@ @ @ @ 5.          ",
"          4.@ # @ # 8.% % % % o o o o X X X X . . . . . . . . . . . . . . . . . . X X X X o o o o % % % % 5.@ @ @ @ 5.          ",
"          8.# # @ # 8.% % % % o o o o X X X X . . . . . . . . . . . . . . . . . . X X X X o o o o % % % % 5.# # # @ 5.          ",
"          8.# # $ $ 8.% % % % o o o o X X X X . . . . . . . . . . . . . . . . . . X X X X o o o o % % % % 5.$ # $ $ 5.          ",
"          8.$ * $ $ 8.% % % % o o o o X X X X . . . . . . . . . . . . . . . . . . X X X X o o o o % % % % 8.$ * * $ 5.          ",
"          8.* * * * 8.% % % % o o o o X X X X . . . . . . . . . . . . . . . . . . X X X X o o o o % % % % 8.* * * * 5.          ",
"          8.= = & * 8.% % % % o o o o X X X X . . . . . . . . . . . . . . . . . . X X X X o o o o % % % % 8.= = & & 5.          ",
"          8.; = ; ; 8.% % % % o o o o X X X X . . . . . . . . . . . . . . . . . . X X X X o o o o % % % % 8.- - - = 5.          ",
"          8.; ; ; ; 8.% % % % o o o o X X X X . . . . . . . . . . . . . . . . . . X X X X o o o o % % % % 8.; ; ; ; 5.          ",
"          8.: : : : 8.% % % % o o o o X X X X . . . . . . . . . . . . . . . . . . X X X X o o o o % % % % 8.: : : : 6.          ",
"          8.> , > > 8.% % % % o o o o X X X X . . . . . . . . . . . . . . . . . . X X X X o o o o % % % % 8.> > > > 6.          ",
"          8., , , , 8.% % % % o o o o X X X . X X X X X X X X X X X X X X X X X X . X X X o o o o % % % % 8., , , , 4.          ",
"          8.< < < < 8.% % % % o o o o X X . X X X X X X X X X X X X X X X X X X X X . X X o o o o % % % % 4.1 < , 1 5.          ",
"          8.1 1 1 1 8.% % % % o o o o X . X X X X X X X X X X X X X X X X X X X X X X . X o o o o % % % % 6.1 1 1 1 5.          ",
"          8.5 5 5 5 8.% % % % o o o o . X X X X X X X X X X X X X X X X X X X X X X X X . o o o o % % % % 4.5 5 5 4 5.          ",
"          4.6 6 6 6 8.% % % % o o o X o o o o o o o o o o o o o o o o o o o o o o o o o o X o o o % % % % 6.6 6 6 6 5.          ",
"          8.8 8 8 7 5.% % % % o o X o o o o o o o o o o o o o o o o o o o o o o o o o o o o X o o % % % % 5.8 8 8 7 5.          ",
"          8.9 9 9 9 5.% % % % o X o o o o o o o o o o o o o o o o o o o o o o o o o o o o o o X o % % % % 5.9 9 9 9 5.          ",
"          8.0 q 0 0 5.% % % % X o o o o o o o o o o o o o o o o o o o o o o o o o o o o o o o o X % % % % 5.q 0 0 0 5.          ",
"          8.w w w w 5.% % % o % % % % % % % % % % % % % % % % % % % % % % % % % % % % % % % % % % o % % % 5.w w w w 5.          ",
"          8.r r e r 5.% % o % % % % % % % % % % % % % % % % % % % % % % % % % % % % % % % % % % % % o % % 8.e e e e 5.          ",
"          8.t t t t 5.6.o % % % % % % % % % % % % % % % % % % % % % % % % % % % % % % % % % % % % % % o 8.8.t t t t 5.          ",
"          8.u u u u u 4.5.% % % % % % % % % % % % % % % % % % % % % % % % % % % % % % % % % % % % % % 8.8.u u u u u 5.          ",
"            6.a i i p a 5.5.5.5.8.8.8.8.8.8.8.8.8.8.8.8.8.8.8.8.8.8.8.8.8.8.8.8.8.8.8.8.8.8.8.8.8.8.8.8.a a p i p 5.            ",
"            5.s s s s s s s s s s s s s s s s s s s s s s s s s s s s s s s s s s s s s s s s s s s s s s s s s s 5.            ",
"            5.d d d d d d d d d d d d d d d d d d d d d d d d d d d d d d d d d d d d d d d d d d d d d d d d d d 5.            ",
"              5.5.5.L L L L L L L L L L L L L L L L L L L L L L L L L L L L L L L L L L L L L L L L L L L L 5.5.5.              ",
"                    5.5.5.5.5.5.8.8.8.8.8.8.8.8.8.8.8.8.8.8.8.8.8.8.8.8.8.8.8.8.8.8.8.8.8.8.8.8.8.4.8.8.8.8.                    ",
"                                                                                                                                ",
"                                                                                                                                ",
"                                                                                                                                ",
"                                                                                                                                "
};
