/* XPM */
static char *result[] = {
/* columns rows colors chars-per-pixel */
"32 32 123 2 ",
"   c #878377",
".  c #898373",
"X  c #87847B",
"o  c #8C887C",
"O  c #908772",
"+  c #998D74",
"@  c #948D7B",
"#  c #9C927C",
"$  c #A39677",
"%  c #A99974",
"&  c #A2977C",
"*  c #AA9B7D",
"=  c #AFA17D",
"-  c #B5A172",
";  c #BBA47D",
":  c #BBA97C",
">  c #C5AA6F",
",  c #D6B36B",
"<  c #CCB17B",
"1  c #DABB75",
"2  c #D6BC79",
"3  c #E6BF65",
"4  c #FDCB5E",
"5  c #E9C36D",
"6  c #FCD36F",
"7  c #E5C873",
"8  c #E7CC79",
"9  c #EFCE7F",
"0  c #546192",
"q  c #606E9B",
"w  c #67739F",
"e  c #6975A1",
"r  c #6E7AA3",
"t  c #7481A5",
"y  c #7683AB",
"u  c #7A84AA",
"i  c #7C88AC",
"p  c #7F8BB1",
"a  c #8E8B81",
"s  c #8D8C88",
"d  c #918D82",
"f  c #959081",
"g  c #91918C",
"h  c #989995",
"j  c #A99C81",
"k  c #B1A184",
"l  c #818DAF",
"z  c #828EB3",
"x  c #8691B5",
"c  c #8993B5",
"v  c #8695B9",
"b  c #8D9BBD",
"n  c #C0AA85",
"m  c #D1B584",
"M  c #DAC081",
"N  c #FDD684",
"B  c #F0D48C",
"V  c #FAD68F",
"C  c #FED88E",
"Z  c #FCDA95",
"A  c #F2D899",
"S  c #FCDC9D",
"D  c #FCE09F",
"F  c #F2DCA4",
"G  c #FCDEA2",
"H  c #E8DAB2",
"J  c #E8DBB9",
"K  c #FCE1A4",
"L  c #93A1C0",
"P  c #99A7C6",
"I  c #9DACCA",
"U  c #A3ACC7",
"Y  c #A1ACC9",
"T  c #A5B1CA",
"R  c #ABB5CD",
"E  c #AFB9CE",
"W  c #B1BBCF",
"Q  c #A4B3D1",
"!  c #A8B4D0",
"~  c #AEBBD4",
"^  c #B3BDD3",
"/  c #BAC5D7",
"(  c #B5C5DD",
")  c #B9C7DB",
"_  c #BECCDF",
"`  c #BDCCE2",
"'  c #C1CCDD",
"]  c #CDD6DB",
"[  c #D7D7D6",
"{  c #D8D7D7",
"}  c #DBDBD5",
"|  c #D5DADB",
" . c #DCDCDC",
".. c #EADFC8",
"X. c #E0DFDF",
"o. c #DFE0DA",
"O. c #ECE2C5",
"+. c #EEE4C9",
"@. c #E1E2DD",
"#. c #C1CFE3",
"$. c #C4D2E6",
"%. c #C9D4E5",
"&. c #CCD8E3",
"*. c #C7D6E8",
"=. c #C8D6E9",
"-. c #CEDCEB",
";. c #D3DBE2",
":. c #DCDFE2",
">. c #D2DEEC",
",. c #DEE0E3",
"<. c #D5E1EC",
"1. c #DDE3E9",
"2. c #D6E4F1",
"3. c #DBE6F1",
"4. c #DDE9F3",
"5. c #E4E4E4",
"6. c #E8E7E7",
"7. c #E1E6EA",
"8. c #EBEBEB",
"9. c #E1EBF4",
"0. c #F5F5F5",
"q. c #FFFFFF",
"w. c None",
/* pixels */
"w.w.w.w.w.w.w.w.w.w.w.w.w.w.w.w.w.w.w.w.w.w.w.w.w.w.w.w.w.w.w.w.",
"w.w.w.w.w.w.` #.$.$.$.=.%.=.&.%.$.$.$.#._ _ ` ` ( ( w.w.w.w.w.w.",
"w.w.w.Q L r u z x x c c c c x l l l p i u t r r e q q z I w.w.w.",
"w.w.w.L r z ! ~ ^ ^ ^ ^ ^ ^ W W W ~ R R T R R U Y L w 0 v w.w.w.",
"w.w.=.v c #.1.5.:.:. .:.,.o. .5. . .:. . . . .:. .,.~ r y w.w.w.",
"w.w.=.L U :.5.5.5.5.5.X.X.,. .,. .X.:. . . . .5.,.| ] x p $.w.w.",
"w.w.-.Y ^ :.5.8.8.8.8.6.6.6.6.6.6.6.6.5.5.5.6.8.6.[ ] L b =.w.w.",
"w.w.2.^ ) 1.5.8.0.0.8.8.8.8.6.6.8.8.6.6.6.6.8.8.5.[ &.I P -.w.w.",
"w.w.3./ ' 7.5.8.8.0.q.q.q.q.q.q.q.0.q.q.q.q.0.8.5.[ ;.! T -.w.w.",
"w.w.9.#.%.7.5.6.0.0.q.q.q.q.q.q.q.q.q.q.q.q.0.8.5.{ ;.~ ~ 2.w.w.",
"w.w.9.$.&.1.5.6.0.0.q.q.q.q.q.q.q.q.q.q.q.q.0.6.5.{ ;.) ( 2.w.w.",
"w.w.9.&.>.7.5.6.8.0.q.q.q.q.q.q.q.q.q.q.q.q.0.8.5.{ :.#._ 2.w.w.",
"w.w.9.<.<.7.5.6.8.0.q.q.q.q.q.q.q.q.q.q.q.q.0.6.5.} ,.*.$.3.w.w.",
"w.w.9.3.9.7.5.6.8.0.q.q.q.q.q.q.q.q.q.q.q.q.0.8.5.| <.>.-.4.w.w.",
"w.w.9.;.<.7.5.6.0.0.q.q.q.q.q.q.q.q.q.q.q.q.0.8.6.} 1.;.&.4.w.w.",
"w.w.;.g h  . .6.8.0.q.q.q.q.q.q.q.q.q.q.q.q.0.8.5.X.| g s ;.w.w.",
"w.w.] X a |  .6.8.0.q.q.q.q.q.q.q.q.q.q.q.q.0.8.6.X.| a X ] w.w.",
"w.w.]   a | X.5.8.0.q.q.q.q.q.q.q.q.q.q.q.q.0.8.6. . .d o | w.w.",
"w.w.] . @ |  .5.8.0.q.q.q.q.q.q.q.q.q.q.q.q.0.0.6. .| f o ;.w.w.",
"w.w.] O @ {  .5.6.0.q.q.q.q.q.q.q.q.q.q.q.q.0.8.7.} | # # | w.w.",
"w.w.] + j ] | 5.8.0.q.q.q.q.q.q.q.q.q.q.q.q.0.8.6. .| & # | w.w.",
"w.w.| $ j [ } 5.6.0.q.q.q.q.q.q.q.q.q.q.q.q.0.8.7.o.| * $ | w.w.",
"w.w.| * k | | 6.6.0.q.q.q.q.q.q.q.q.q.q.q.q.0.8.6. . .= % | w.w.",
"w.w. .; n  .} 6.8.0.0.0.0.0.0.0.0.0.0.0.0.0.0.0.6. . .: - | w.w.",
"w.w. .< m  .| 6.0.6.6.8.8.6.6.8.6.8.8.8.8.8.8.0.6. . .< > } w.w.",
"w.w.o.2 M  .} 5.6.5.7.@.5.5.5.5.5.5.6.6.6.6.6.6.6.@.} 1 , } w.w.",
"w.w.o.7 8  .:. .{ } | { } { | }  . .@.X.:. . . .:.5. .5 5 } w.w.",
"w.w.w.B 6 F @. .X.} X.o.X.@.X.@.@.@.@.@.@.@.5.@.@.@.A 4 9 w.w.w.",
"w.w.w.J V C Z G G G G S K K K K G K K K K K K G S Z N N H w.w.w.",
"w.w.w.w.@.....+.+.+.+.+.+.+.+.+.+.+.+.+.+.+.+.+.O.O.O.o.w.w.w.w.",
"w.w.w.w.w.w.w.w.w.w.w.w.w.w.w.w.w.w.w.w.w.w.w.w.w.w.w.w.w.w.w.w.",
"w.w.w.w.w.w.w.w.w.w.w.w.w.w.w.w.w.w.w.w.w.w.w.w.w.w.w.w.w.w.w.w."
};
