/* XPM */
static char *result[] = {
/* columns rows colors chars-per-pixel */
"48 48 222 2 ",
"   c black",
".  c #000001",
"X  c #030000",
"o  c #020101",
"O  c #030102",
"+  c #000202",
"@  c #040000",
"#  c #040101",
"$  c #070000",
"%  c #070101",
"&  c #040203",
"*  c #050203",
"=  c #060203",
"-  c #060204",
";  c #070304",
":  c #080000",
">  c #090000",
",  c #0B0000",
"<  c #0C0202",
"1  c #0D0202",
"2  c #060708",
"3  c #0F0609",
"4  c #040909",
"5  c #110303",
"6  c #130303",
"7  c #140303",
"8  c #150303",
"9  c #160304",
"0  c #1A0404",
"q  c #1B0405",
"w  c #1E0505",
"e  c #1E0606",
"r  c #14070C",
"t  c #1E0709",
"y  c #14080C",
"u  c #15080C",
"i  c #15080D",
"p  c #16080D",
"a  c #131718",
"s  c #141A1A",
"d  c #161D1D",
"f  c #171D1D",
"g  c #230506",
"h  c #260606",
"j  c #270606",
"k  c #270607",
"l  c #280405",
"z  c #290505",
"x  c #280606",
"c  c #280607",
"v  c #290607",
"b  c #2A0607",
"n  c #210608",
"m  c #320808",
"M  c #2F0C11",
"N  c #30121C",
"B  c #31121D",
"V  c #3B1724",
"C  c #3A1725",
"Z  c #3D1724",
"A  c #3E1724",
"S  c #232728",
"D  c #212829",
"F  c #222B2C",
"G  c #272C2D",
"H  c #252D2E",
"J  c #303637",
"K  c #470B0C",
"L  c #4D0C0D",
"P  c #4E0C0D",
"I  c #540D0E",
"U  c #560D0E",
"Y  c #5B0E0F",
"T  c #5C0E0F",
"R  c #681011",
"E  c #691012",
"W  c #711213",
"Q  c #721213",
"!  c #741213",
"~  c #751214",
"^  c #761214",
"/  c #4A1520",
"(  c #491B2B",
")  c #4B1C2D",
"_  c #4A1D2D",
"`  c #4C1C2D",
"'  c #4D1D2D",
"]  c #4D1D2E",
"[  c #4E1D2E",
"{  c #591E2F",
"}  c #5C1E2E",
"|  c #5D1E2E",
" . c #521F31",
".. c #531F31",
"X. c #501F32",
"o. c #511F32",
"O. c #551F30",
"+. c #541F31",
"@. c #561F30",
"#. c #571F30",
"$. c #541F32",
"%. c #651D2B",
"&. c #661D2B",
"*. c #661E2C",
"=. c #671E2C",
"-. c #6D1C29",
";. c #6D1D29",
":. c #681E2C",
">. c #771B25",
",. c #731C27",
"<. c #771C26",
"1. c #771C27",
"2. c #7E1B23",
"3. c #781C26",
"4. c #701C28",
"5. c #552032",
"6. c #3B4647",
"7. c #3E484A",
"8. c #414F51",
"9. c #455557",
"0. c #465658",
"q. c #475658",
"w. c #475759",
"e. c #48585A",
"r. c #4E5F62",
"t. c #4E6062",
"y. c #576366",
"u. c #586467",
"i. c #5B6668",
"p. c #5B686B",
"a. c #5C686B",
"s. c #5C696B",
"d. c #5D6A6D",
"f. c #5E6A6D",
"g. c #5E6B6E",
"h. c #5F6B6E",
"j. c #5F6C6F",
"k. c #5F6D70",
"l. c #666E6F",
"z. c #606D70",
"x. c #626F72",
"c. c #647376",
"v. c #657477",
"b. c #6A7C7F",
"n. c #6B7C7F",
"m. c #717777",
"M. c #727878",
"N. c #801415",
"B. c #851516",
"V. c #861516",
"C. c #861517",
"Z. c #871517",
"A. c #84171B",
"S. c #8E1618",
"D. c #8F1618",
"F. c #901618",
"G. c #921718",
"H. c #941719",
"J. c #97181B",
"K. c #91191D",
"L. c #95191C",
"P. c #96191C",
"I. c #99181A",
"U. c #98181B",
"Y. c #99181B",
"T. c #9A181A",
"R. c #9B181A",
"E. c #9D1819",
"W. c #9E1819",
"Q. c #9C181A",
"!. c #9D181A",
"~. c #9E181A",
"^. c #9E181B",
"/. c #9F191B",
"(. c #811A22",
"). c #831A22",
"_. c #881A20",
"`. c #891A20",
"'. c #8A1A20",
"]. c #6B7D80",
"[. c #6B7D81",
"{. c #6C7E81",
"}. c #758B8F",
"|. c #778D90",
" X c #748E91",
".X c #7B9296",
"XX c #7E979B",
"oX c #819CA0",
"OX c #829CA0",
"+X c #829DA0",
"@X c #88A4A8",
"#X c #88A5A9",
"$X c #8BA9AD",
"%X c #8BAAAE",
"&X c #8CABAF",
"*X c #8CACB0",
"=X c #8DACB0",
"-X c #8DADB1",
";X c #8EADB1",
":X c #8EAEB2",
">X c #8FAEB2",
",X c #8FAFB3",
"<X c #91AFB3",
"1X c #91B1B5",
"2X c #92B2B6",
"3X c #94B1B5",
"4X c #95B4B8",
"5X c #94B5B9",
"6X c #98B5B8",
"7X c #AAC2C5",
"8X c #B5CACD",
"9X c #B8CDCF",
"0X c #B8CDD0",
"qX c #C1D5D8",
"wX c #CCDEE0",
"eX c #D7E5E6",
"rX c #E2EDEE",
"tX c #E5F0F1",
"yX c #E5F1F3",
"uX c #E9F4F5",
"iX c #EBF6F7",
"pX c None",
/* pixels */
"pXpXpXpXpXpXpXpXpXpXpXpXpXpXpXpXpXpXpXpXpXpXpXpXpXpXpXpXpXpXpXpXpXpXpXpXpXpXpXpXpXpXpXpXpXpXpXpX",
"pXpXpXpXpXpXpXpXpXpXpXpXpXpXpXpXpXpXpXpXpXpXpXpXpXpXpXpXpXpXpXpXpXpXpXpXpXpXpXpXpXpXpXpXpXpXpXpX",
"pXpXpXpXpXpXpXpXpXpXpXpXpXpXpXpXpXpXpXpXpX                pXpXpXpXpXpXpXpXpXpXpXpXpXpXpXpXpXpXpX",
"pXpXpXpXpXpXpXpXpXpXpXpXpXpXpXpXpXpX                            pXpXpXpXpXpXpXpXpXpXpXpXpXpXpXpX",
"pXpXpXpXpXpXpXpXpXpXpXpXpXpXpXpX        % K P P P P P P L 8       pXpXpXpXpXpXpXpXpXpXpXpXpXpXpX",
"pXpXpXpXpXpXpXpXpXpXpXpXpXpXpX    % c W ~ R./././././././.N.U 1 <   pXpXpXpXpXpXpXpXpXpXpXpXpXpX",
"pXpXpXpXpXpXpXpXpXpXpXpXpXpX    6 ! H.^.~.R.R.R.R.R.R.R.R.~.T.S.C.j     pXpXpXpXpXpXpXpXpXpXpXpX",
"pXpXpXpXpXpXpXpXpXpXpXpXpX    6 ! !.R.R.R.R.Q.Q.Q.Q.Q.Q.Q.Q.Q.Q./.Q     pXpXpXpXpXpXpXpXpXpXpXpX",
"pXpXpXpXpXpXpXpXpXpXpXpXpX  5 ^ !.R.R.R.Q.I.S.S.S.S.S.S.S.S.S.S.D.B.m   pXpXpXpXpXpXpXpXpXpXpXpX",
"pXpXpXpXpXpXpXpXpXpXpX      R /.R.R.R.R.Q.Y , > > > > > : $ $ $ $ > @       pXpXpXpXpXpXpXpXpXpX",
"pXpXpXpXpXpXpXpXpXpXpX  7 P Z.!.R.R.R.R.T X F e.0.0.0.9.i.M.m.m.M.l.q.8.2   pXpXpXpXpXpXpXpXpXpX",
"pXpXpXpXpXpXpXpXpXpXpX  b /.Q.R.R.R.R.H.g   t.5X1X1X1X4XqXiXuXuXyXwX1X,Xr.    pXpXpXpXpXpXpXpXpX",
"pXpXpXpXpXpXpXpXpXpXpX  v R.R.R.R.R./.I   D #X=X=X=X3XeXrXtXtXtX7X<X=X,X Xa   pXpXpXpXpXpXpXpXpX",
"pXpXpXpXpXpXpXpXpXpXpX  v R.R.R.R.R./.L + 7.OX;X=X=X<X8X0X9X0X9X6X&X=X=X1X0.  pXpXpXpXpXpXpXpXpX",
"pXpXpXpXpXpXpXpXpXpXpX  v R.R.R.R.R./.L 4 u.v.+X:X-X=X%X%X%X%X%X*X=X=X=X1X0.  pXpXpXpXpXpXpXpXpX",
"pXpXpXpXpXpXpXpXpXpXpX  v R.R.R.R.R./.L 4 y.j.c.XX@X>X:X;X=X=X=X=X=X=X=X2Xw.  pXpXpXpXpXpXpXpXpX",
"pXpXpXpXpXpXpX          b R.R.R.R.R./.L 4 y.k.j.g.n.|.}.oX;X=X=X=X=X=X$X.X6.  pXpXpXpXpXpXpXpXpX",
"pXpXpXpXpX  X 1 9 E Q q k R.R.R.R.R.Q.V.e H s.z.j.g.f.d.v.{.].].].].[.b.x.J   pXpXpXpXpXpXpXpXpX",
"pXpXpXpX  . M A.F.!.^.k h R.R.R.R.R.R.Q.x   G p.z.j.j.j.h.g.g.g.g.g.g.j.a.S   pXpXpXpXpXpXpXpXpX",
"pXpXpXpX  ; _ 3.W.R.R.j j R.R.R.R.R.R.R.T #   G a.j.j.j.j.j.j.j.j.j.j.a.G     pXpXpXpXpXpXpXpXpX",
"pXpXpXpX  ; ) | `.U.Q.j j R.R.R.R.R.R.R.G.0 #   s f d d d d d d d d f s       pXpXpXpXpXpXpXpXpX",
"pXpXpXpX  ; ` ..@.&._.n j E.Q.R.R.R.R.R.T.G.T j l l l l l l l l l l l z w     pXpXpXpXpXpXpXpXpX",
"pXpXpXpX  ; ` ........y t >.K.Q.R.R.R.R.R.R.R.R.R.R.R.R.R.R.R.R.R.R.R.~.W   pXpXpXpXpXpXpXpXpXpX",
"pXpXpXpX  ; ` ........u y o.).Q.R.R.R.R.R.R.R.R.R.R.R.R.R.R.R.R.R.R.R.^.W   pXpXpXpXpXpXpXpXpXpX",
"pXpXpXpX  ; ` ........u u ..| J.R.R.R.R.R.R.R.R.R.R.R.R.R.R.R.R.R.R.R.^.W   pXpXpXpXpXpXpXpXpXpX",
"pXpXpXpX  ; ` ........u u ..O.2.R.R.R.R.R.R.R.R.R.R.R.R.R.R.R.R.R.R.R.^.W   pXpXpXpXpXpXpXpXpXpX",
"pXpXpXpX  ; ` ........u u .. .@.2.R.R.R.R.R.R.R.R.R.R.R.R.R.R.R.R.R.R.1./   pXpXpXpXpXpXpXpXpXpX",
"pXpXpXpX  ; ` ........u u .... .O.'.Q.R.R.R.R.R.R.R.R.R.R.R.R.R.R.R.R.=.C   pXpXpXpXpXpXpXpXpXpX",
"pXpXpXpX  ; ` ........u u ........_.E.R.R.R.R.R.R.R.R.R.R.R.R.R.R.R.R.:.V   pXpXpXpXpXpXpXpXpXpX",
"pXpXpXpX  ; ' ........u u ........%.K.Y.Q.R.R.R.R.R.R.R.R.R.R.R.R.Q.Y.*.V   pXpXpXpXpXpXpXpXpXpX",
"pXpXpXpX  * A ........u u ..........#.4.U.E.R.R.R.R.R.R.R.R.R.Q.E.U.4.5.Z   pXpXpXpXpXpXpXpXpXpX",
"pXpXpXpXpX  p ........u u ..............;.(.R.R.R.R.R.R.R.R.Q.`.<.-...5.Z   pXpXpXpXpXpXpXpXpXpX",
"pXpXpXpXpX  p +.......u u ..............o.#.&._.P.L.L.L.L.,.&.} X. ...5.Z   pXpXpXpXpXpXpXpXpXpX",
"pXpXpXpXpX  3 ( $.....u u .................. .#.{ { { { { +.o. .......5.Z   pXpXpXpXpXpXpXpXpXpX",
"pXpXpXpXpXpX  u ( +...u u ............................................5.Z   pXpXpXpXpXpXpXpXpXpX",
"pXpXpXpXpXpX    3 p p & p ................ .` ` ` `  .................5.Z   pXpXpXpXpXpXpXpXpXpX",
"pXpXpXpXpXpXpX          p .............. .N ; ; ; ; N  ...............5.Z   pXpXpXpXpXpXpXpXpXpX",
"pXpXpXpXpXpXpXpXpXpXpX  p ..............` ;         ; ` ..............5.Z   pXpXpXpXpXpXpXpXpXpX",
"pXpXpXpXpXpXpXpXpXpXpX  p ..............` ;   pXpX  ; ` ..............[ i   pXpXpXpXpXpXpXpXpXpX",
"pXpXpXpXpXpXpXpXpXpXpX  p ..............` ; pXpXpXpX; ` ..............` -   pXpXpXpXpXpXpXpXpXpX",
"pXpXpXpXpXpXpXpXpXpXpX  p ..............` ;   pXpX  ; ` ..............` ;   pXpXpXpXpXpXpXpXpXpX",
"pXpXpXpXpXpXpXpXpXpXpX  p ..............` ;   pXpX  ; ` ..............` ;   pXpXpXpXpXpXpXpXpXpX",
"pXpXpXpXpXpXpXpXpXpXpX  p ..............` ;   pXpX  ; ` ..............] ;   pXpXpXpXpXpXpXpXpXpX",
"pXpXpXpXpXpXpXpXpXpXpX  p ..............` ;   pXpXpX; ` ..............B O pXpXpXpXpXpXpXpXpXpXpX",
"pXpXpXpXpXpXpXpXpXpXpX  = p p p p p p p r o pXpXpXpXo r p p p p p p p &   pXpXpXpXpXpXpXpXpXpXpX",
"pXpXpXpXpXpXpXpXpXpXpXpX                    pXpXpXpX                      pXpXpXpXpXpXpXpXpXpXpX",
"pXpXpXpXpXpXpXpXpXpXpXpXpXpXpXpXpXpXpXpXpXpXpXpXpXpXpXpXpXpXpXpXpXpXpXpXpXpXpXpXpXpXpXpXpXpXpXpX",
"pXpXpXpXpXpXpXpXpXpXpXpXpXpXpXpXpXpXpXpXpXpXpXpXpXpXpXpXpXpXpXpXpXpXpXpXpXpXpXpXpXpXpXpXpXpXpXpX"
};
