/* XPM */
static char *result[] = {
/* columns rows colors chars-per-pixel */
"32 32 211 2 ",
"   c black",
".  c #010000",
"X  c #010101",
"o  c #020000",
"O  c #030203",
"+  c #050000",
"@  c #060101",
"#  c #070101",
"$  c #040202",
"%  c #050203",
"&  c #060104",
"*  c #040606",
"=  c #090101",
"-  c #0C0202",
";  c #0D0202",
":  c #0F0202",
">  c #090304",
",  c #090305",
"<  c #0A0406",
"1  c #060909",
"2  c #070909",
"3  c #07090A",
"4  c #0C0D0F",
"5  c #110303",
"6  c #160202",
"7  c #1B0303",
"8  c #180404",
"9  c #13070B",
"0  c #14080C",
"q  c #17090E",
"w  c #18090E",
"e  c #19090F",
"r  c #190C0D",
"t  c #1A0F0F",
"y  c #1E0B12",
"u  c #101111",
"i  c #111415",
"p  c #121616",
"a  c #1D1313",
"s  c #111818",
"d  c #260506",
"f  c #240606",
"g  c #2D0708",
"h  c #2E0708",
"j  c #2F0708",
"k  c #370A0B",
"l  c #330C0D",
"z  c #240D15",
"x  c #2B0F17",
"c  c #270F18",
"v  c #270F19",
"b  c #280F18",
"n  c #290F18",
"m  c #390D12",
"M  c #3A0E13",
"N  c #201516",
"B  c #201616",
"V  c #211616",
"C  c #2A1019",
"Z  c #25191A",
"A  c #291C1C",
"S  c #2A1D1D",
"D  c #391522",
"F  c #273031",
"G  c #293133",
"H  c #2D3637",
"J  c #430A0B",
"K  c #470B0C",
"L  c #470C0E",
"P  c #4B0A0B",
"I  c #4C0A0B",
"U  c #4D0A0B",
"Y  c #4B0B0C",
"T  c #4A0C0C",
"R  c #4B0C0C",
"E  c #4C0C0D",
"W  c #4D0C0D",
"Q  c #500C0D",
"!  c #530C0E",
"~  c #540C0D",
"^  c #550D0E",
"/  c #5C0D0E",
"(  c #461219",
")  c #651011",
"_  c #671011",
"`  c #6D1112",
"'  c #471A2A",
"]  c #491B2B",
"[  c #4D1B2B",
"{  c #4A1C2B",
"}  c #491B2C",
"|  c #4A1C2C",
" . c #4B1C2C",
".. c #4C1D2D",
"X. c #4F1E2F",
"o. c #5B1E2E",
"O. c #5B1E2F",
"+. c #5E1E2D",
"@. c #5C1E2E",
"#. c #5C1E2F",
"$. c #5E1F2F",
"%. c #521F31",
"&. c #531F31",
"*. c #521F32",
"=. c #541F31",
"-. c #561F30",
";. c #571F30",
":. c #541F32",
">. c #5B1F30",
",. c #6B1D29",
"<. c #681D2A",
"1. c #691D2A",
"2. c #6B1D2B",
"3. c #731C27",
"4. c #761C27",
"5. c #7A1B24",
"6. c #781C27",
"7. c #7A1C26",
"8. c #542032",
"9. c #552032",
"0. c #562033",
"q. c #572033",
"w. c #3C4648",
"e. c #3D4648",
"r. c #3F484A",
"t. c #415153",
"y. c #546164",
"u. c #546264",
"i. c #5B6A6C",
"p. c #5F6C6F",
"a. c #606D70",
"s. c #606E71",
"d. c #616E71",
"f. c #637275",
"g. c #647275",
"h. c #667679",
"j. c #63787B",
"k. c #831416",
"l. c #861516",
"z. c #881415",
"x. c #891415",
"c. c #891416",
"v. c #891516",
"b. c #8A1517",
"n. c #8B1517",
"m. c #8B1617",
"M. c #8C1416",
"N. c #8C1617",
"B. c #8B1619",
"V. c #8D1618",
"C. c #941718",
"Z. c #941719",
"A. c #961719",
"S. c #92191D",
"D. c #93191D",
"F. c #94191C",
"G. c #95191C",
"H. c #99181B",
"J. c #9A181A",
"K. c #9B181A",
"L. c #9D1819",
"P. c #9C181A",
"I. c #9D181A",
"U. c #9C191B",
"Y. c #9E181A",
"T. c #9F181A",
"R. c #9F191A",
"E. c #9E181B",
"W. c #9E191B",
"Q. c #9F191B",
"!. c #9A191C",
"~. c #A1191B",
"^. c #821A22",
"/. c #821B23",
"(. c #851A21",
"). c #861A21",
"_. c #8B1A20",
"`. c #718B8E",
"'. c #74898D",
"]. c #758A8E",
"[. c #768C90",
"{. c #789396",
"}. c #799396",
"|. c #7F989C",
" X c #7D9A9D",
".X c #7E9A9D",
"XX c #7D9A9E",
"oX c #86A2A6",
"OX c #88A6AA",
"+X c #8DA6A9",
"@X c #8CACB0",
"#X c #8DACB0",
"$X c #8DADB1",
"%X c #8EADB1",
"&X c #8FADB1",
"*X c #8EAEB2",
"=X c #91AFB3",
"-X c #90B0B4",
";X c #92B0B4",
":X c #95B3B7",
">X c #96B3B7",
",X c #97B3B7",
"<X c #9EB3B6",
"1X c #BACFD1",
"2X c #C3CFD0",
"3X c #C6D2D3",
"4X c #CAD5D6",
"5X c #CBDCDE",
"6X c #DBE8E9",
"7X c #DDEAEB",
"8X c None",
/* pixels */
"8X8X8X8X8X8X8X8X8X8X8X8X8X8X8X8X8X8X8X8X8X8X8X8X8X8X8X8X8X8X8X8X",
"8X8X8X8X8X8X8X8X8X8X8X8X8X  8X8X8X8X8X8X8X8X8X8X8X8X8X8X8X8X8X8X",
"8X8X8X8X8X8X8X8X8X8X    # 5 5 5 5 :       8X8X8X8X8X8X8X8X8X8X8X",
"8X8X8X8X8X8X8X8X8Xo ; h ` m.b.b.n.k.^ j @   8X8X8X8X8X8X8X8X8X8X",
"8X8X8X8X8X8X8X8X  g l.A.Q.I.I.I.I.I.E.A.) -   8X8X8X8X8X8X8X8X8X",
"8X8X8X8X8X8X8X8X+ / M.x.z.c.c.c.c.Z.P.P.I._ : 8X8X8X8X8X8X8X8X8X",
"8X8X8X8X8X8X8XX u Z S S A V N B a k V.P.K.I.Q @ 8X8X8X8X8X8X8X8X",
"8X8X8X8X8X8X  F {.<X3X4X2X+X XXX`.s I P.K.K.A.J   8X8X8X8X8X8X8X",
"8X8X8X8X8X8X2 j.-X;X1X7X6X5X:X%X*Xt.6 N.P.K.Q.W   8X8X8X8X8X8X8X",
"8X8X8X8X8X8Xp .X%X@X=X,X,X>X&X%X|.u.r v.P.K.Y.E 8X8X8X8X8X8X8X8X",
"8X8X8X8X8X8Xi }.*X%X%X$X#XOXoX[.g.y.t v.P.K.Y.W   8X8X8X8X8X8X8X",
"8X8X8X8X8X8X4 i.].[.[.[.'.h.f.p.a.w.l C.P.K.Y.E f K 8 =   8X8X8X",
"8X8X8X8X8X8X* e.a.a.a.a.a.s.d.s.r.1 ~ W.K.K.Y.T E R.B.( O 8X8X8X",
"8X8X8X8X8X8X  3 G H H H H H H G 3 7 l.P.K.K.Y.R Y U./.[ < 8X8X8X",
"8X8X8X8X8X8X  d U I I I I I I P ! l.J.K.K.K.!.L m 2.-.] < 8X8X8X",
"8X8X8X8X8X8X8XW ~.Y.Y.Y.Y.Y.Y.Y.Y.P.K.K.K.K.7.x c 8.&.] < 8X8X8X",
"8X8X8X8X8X8X  W T.K.K.K.K.K.K.K.K.K.K.K.P.S.$.c b 9.=.] < 8X8X8X",
"8X8X8X8X8X8X  M _.P.K.K.K.K.K.K.K.K.K.K.G.,.8.b b 9.=.] < 8X8X8X",
"8X8X8X8X8X8X  v 6.P.K.K.K.K.K.K.K.K.K.L.5.%.8.b b 9.=.] < 8X8X8X",
"8X8X8X8X8X8X  c 4.P.P.K.K.K.K.K.K.K.K.S.<.%.9.b b 9.=.| < 8X8X8X",
"8X8X8X8X8X8X  b >.^.G.K.P.P.P.P.P.H.^.@.&.&.9.b b 9.:.D $ 8X8X8X",
"8X8X8X8X8X8X  n 8.-.+.3.(.F.D.F.).1.-.%.&.&.9.b b 9.9.n   8X8X8X",
"8X8X8X8X8X8X  n 9.&.%.%.-.o.O.#.;.*.&.&.&.&.9.b n q...w 8X8X8X8X",
"8X8X8X8X8X8X  n 9.&.&.&.&.&.X.} ] X.&.&.&.&.9.n 9 C q   8X8X8X8X",
"8X8X8X8X8X8X  n 9.&.&.&.&.X.y , , y X.&.&.&.9.n   8X  8X8X8X8X8X",
"8X8X8X8X8X8X  e X.&.&.&.=.] , 8X8X, ] =.&.&.9.n 8X8X8X8X8X8X8X8X",
"8X8X8X8X8X8X8X, ] =.&.&.=.] < 8X8X< ] =.&.&.9.n   8X8X8X8X8X8X8X",
"8X8X8X8X8X8X8X< { =.&.&.=.] < 8X8X< ] =.&.&.9.n   8X8X8X8X8X8X8X",
"8X8X8X8X8X8X8X> ' 9.9.9.9. .< 8X8X<  .9.9.9.0.n   8X8X8X8X8X8X8X",
"8X8X8X8X8X8X8X. w n n n n z & 8X8X% z n n n n 0 8X8X8X8X8X8X8X8X",
"8X8X8X8X8X8X8X8X  8X8X8X8X  8X8X8X8X  8X8X8X8X8X8X8X8X8X8X8X8X8X",
"8X8X8X8X8X8X8X8X8X8X8X8X8X8X8X8X8X8X8X8X8X8X8X8X8X8X8X8X8X8X8X8X"
};
