/* XPM */
static char *result[] = {
/* columns rows colors chars-per-pixel */
"64 64 7 1 ",
"  c black",
". c #531F31",
"X c #5F6C6F",
"o c #9B181A",
"O c #8DACB0",
"+ c #E3EEEF",
"@ c None",
/* pixels */
"@@@@@@@@@@@@@@@@@@@@@@@@@@@@@@@@@@@@@@@@@@@@@@@@@@@@@@@@@@@@@@@@",
"@@@@@@@@@@@@@@@@@@@@@@@@@@@@@@@@@@@@@@@@@@@@@@@@@@@@@@@@@@@@@@@@",
"@@@@@@@@@@@@@@@@@@@@@@@@@@@@@@@@@@@@@@@@@@@@@@@@@@@@@@@@@@@@@@@@",
"@@@@@@@@@@@@@@@@@@@@@@@@@           @@@@@@@@@@@@@@@@@@@@@@@@@@@@",
"@@@@@@@@@@@@@@@@@@@@@@                  @@@@@@@@@@@@@@@@@@@@@@@@",
"@@@@@@@@@@@@@@@@@@@@                      @@@@@@@@@@@@@@@@@@@@@@",
"@@@@@@@@@@@@@@@@@@@      ooooooooooo       @@@@@@@@@@@@@@@@@@@@@",
"@@@@@@@@@@@@@@@@@@     oooooooooooooooo     @@@@@@@@@@@@@@@@@@@@",
"@@@@@@@@@@@@@@@@    ooooooooooooooooooooo    @@@@@@@@@@@@@@@@@@@",
"@@@@@@@@@@@@@@@@   ooooooooooooooooooooooo   @@@@@@@@@@@@@@@@@@@",
"@@@@@@@@@@@@@@@@   oooooooooooooooooooooooo    @@@@@@@@@@@@@@@@@",
"@@@@@@@@@@@@@@@@  oooooooooooooooooooooooooo   @@@@@@@@@@@@@@@@@",
"@@@@@@@@@@@@@@                     oooooooooo    @@@@@@@@@@@@@@@",
"@@@@@@@@@@@@@                       ooooooooo    @@@@@@@@@@@@@@@",
"@@@@@@@@@@@@@   OOO+++++++OOOOOOOO   oooooooooo  @@@@@@@@@@@@@@@",
"@@@@@@@@@@@@   OOOO+++++++OOOOOOOO   oooooooooo  @@@@@@@@@@@@@@@",
"@@@@@@@@@@@@   OOOOOO+++++++OOOOOOO   ooooooooo  @@@@@@@@@@@@@@@",
"@@@@@@@@@@@@  OOOOOOO+++++++OOOOOOO   ooooooooo  @@@@@@@@@@@@@@@",
"@@@@@@@@@@@@  OOOOOOOOOOOOOOOOOOOOXX  ooooooooo  @@@@@@@@@@@@@@@",
"@@@@@@@@@@@@  OOOOOOOOOOOOOOOOOOOXXX  ooooooooo  @@@@@@@@@@@@@@@",
"@@@@@@@@@@@@  OOOOOOOOOOOOOOOOOOXXXX  ooooooooo  @@@@@@@@@@@@@@@",
"@@@@@@@@@@@@  OOOOOOOOOOOOOOOOXXXXXX  ooooooooo       @@@@@@@@@@",
"@@@@@@@@@@@@  XXOOOOOOOOOOXXXXXXXXXX  ooooooooo          @@@@@@@",
"@@@@@@@@@@@@  XXXXXXXXXXXXXXXXXXXXX  oooooooooo  ooo      @@@@@@",
"@@@@@@@@@@@@  XXXXXXXXXXXXXXXXXXXX   oooooooooo  oooooo   @@@@@@",
"@@@@@@@@@@@@   XXXXXXXXXXXXXXXXXX    oooooooooo  ooooo..  @@@@@@",
"@@@@@@@@@@@@    XXXXXXXXXXXXXXXX    ooooooooooo  ooooo..  @@@@@@",
"@@@@@@@@@@@@                        ooooooooooo  oooo...  @@@@@@",
"@@@@@@@@@@@@                      ooooooooooooo  oo.....  @@@@@@",
"@@@@@@@@@@@@@  oooooooooooooooooooooooooooooooo  .......  @@@@@@",
"@@@@@@@@@@@@@  oooooooooooooooooooooooooooooo..  .......  @@@@@@",
"@@@@@@@@@@@@@  oooooooooooooooooooooooooooooo..  .......  @@@@@@",
"@@@@@@@@@@@@@  ooooooooooooooooooooooooooooo...  .......  @@@@@@",
"@@@@@@@@@@@@@  ooooooooooooooooooooooooooooo...  .......  @@@@@@",
"@@@@@@@@@@@@@  oooooooooooooooooooooooooooo....  .......  @@@@@@",
"@@@@@@@@@@@@@  ..ooooooooooooooooooooooooo.....  .......  @@@@@@",
"@@@@@@@@@@@@@  ..oooooooooooooooooooooooo......  .......  @@@@@@",
"@@@@@@@@@@@@@  ..oooooooooooooooooooooooo......  .......  @@@@@@",
"@@@@@@@@@@@@@  ..oooooooooooooooooooooooo......  .......  @@@@@@",
"@@@@@@@@@@@@@  ..ooooooooooooooooooooooo.......  .......  @@@@@@",
"@@@@@@@@@@@@@  ...oooooooooooooooooooo.........  .......  @@@@@@",
"@@@@@@@@@@@@@  ....oooooooooooooooooo..........  ......   @@@@@@",
"@@@@@@@@@@@@@  .......ooooooooooooo............  ......   @@@@@@",
"@@@@@@@@@@@@@  ..........oooooooo..............  ......  @@@@@@@",
"@@@@@@@@@@@@@  ................................  ......  @@@@@@@",
"@@@@@@@@@@@@@  ................................  .....   @@@@@@@",
"@@@@@@@@@@@@@  ................................  ....   @@@@@@@@",
"@@@@@@@@@@@@@  ................................         @@@@@@@@",
"@@@@@@@@@@@@@  ..............      ............        @@@@@@@@@",
"@@@@@@@@@@@@@  .............        ...........  @@@@@@@@@@@@@@@",
"@@@@@@@@@@@@@  .............   @@   ...........  @@@@@@@@@@@@@@@",
"@@@@@@@@@@@@@   ............  @@@@  ...........  @@@@@@@@@@@@@@@",
"@@@@@@@@@@@@@   ............  @@@@  ...........  @@@@@@@@@@@@@@@",
"@@@@@@@@@@@@@@  ............  @@@@  ...........  @@@@@@@@@@@@@@@",
"@@@@@@@@@@@@@@  ............  @@@@  ...........  @@@@@@@@@@@@@@@",
"@@@@@@@@@@@@@@  ............  @@@@  ...........  @@@@@@@@@@@@@@@",
"@@@@@@@@@@@@@@  ............  @@@@  ...........  @@@@@@@@@@@@@@@",
"@@@@@@@@@@@@@@  ............  @@@@  ...........  @@@@@@@@@@@@@@@",
"@@@@@@@@@@@@@@   ...........  @@@@  ...........  @@@@@@@@@@@@@@@",
"@@@@@@@@@@@@@@@              @@@@@               @@@@@@@@@@@@@@@",
"@@@@@@@@@@@@@@@              @@@@@@             @@@@@@@@@@@@@@@@",
"@@@@@@@@@@@@@@@@@@@@@@@@@@@@@@@@@@@@@@@@@@@@@@@@@@@@@@@@@@@@@@@@",
"@@@@@@@@@@@@@@@@@@@@@@@@@@@@@@@@@@@@@@@@@@@@@@@@@@@@@@@@@@@@@@@@",
"@@@@@@@@@@@@@@@@@@@@@@@@@@@@@@@@@@@@@@@@@@@@@@@@@@@@@@@@@@@@@@@@"
};
