/* XPM */
static char *result[] = {
/* columns rows colors chars-per-pixel */
"16 16 114 2 ",
"   c #090102",
".  c #0E0202",
"X  c #1C0405",
"o  c #12070B",
"O  c #18090F",
"+  c #19090F",
"@  c #1C0A10",
"#  c #161C1D",
"$  c #1A1C1D",
"%  c #260304",
"&  c #210506",
"*  c #290606",
"=  c #280607",
"-  c #2E0708",
";  c #370A0D",
":  c #230C13",
">  c #210C14",
",  c #230D15",
"<  c #2D111A",
"1  c #32131E",
"2  c #35141F",
"3  c #2B1F20",
"4  c #3C1624",
"5  c #3C1724",
"6  c #3D1724",
"7  c #3D1725",
"8  c #3E1724",
"9  c #3E1725",
"0  c #3F1825",
"q  c #480B0C",
"w  c #4D0C0D",
"e  c #4E0C0D",
"r  c #510D0E",
"t  c #5A0E0F",
"y  c #561315",
"u  c #5E1718",
"i  c #5B151C",
"p  c #720F10",
"a  c #6B1113",
"s  c #6D1213",
"d  c #601319",
"f  c #711113",
"g  c #721213",
"h  c #731213",
"j  c #701314",
"k  c #711315",
"l  c #7D1314",
"z  c #7D1315",
"x  c #7E1315",
"c  c #421622",
"v  c #491621",
"b  c #401826",
"n  c #491B2B",
"m  c #4D1B2B",
"M  c #4E1C2B",
"N  c #4B1C2C",
"B  c #4B1C2D",
"V  c #4E1D2E",
"C  c #531B2A",
"Z  c #591E2F",
"A  c #4F1E30",
"S  c #521F31",
"D  c #531F31",
"F  c #541F31",
"G  c #551F32",
"H  c #601C2A",
"J  c #651D2B",
"K  c #661E2C",
"L  c #7F1B23",
"P  c #542032",
"I  c #552032",
"U  c #562033",
"Y  c #453436",
"T  c #434A4C",
"R  c #454B4D",
"E  c #474E50",
"W  c #484F51",
"Q  c #455254",
"!  c #465557",
"~  c #4E5B5D",
"^  c #55595B",
"/  c #5A5B5D",
"(  c #5E7577",
")  c #746D6F",
"_  c #861214",
"`  c #891315",
"'  c #8E1516",
"]  c #8F191E",
"[  c #941719",
"{  c #93181B",
"}  c #93191D",
"|  c #95191C",
" . c #9A181A",
".. c #9B181A",
"X. c #9D1819",
"o. c #9C181A",
"O. c #9D181A",
"+. c #9C191B",
"@. c #9E181A",
"#. c #9F181A",
"$. c #9F191B",
"%. c #A0181A",
"&. c #811920",
"*. c #861A21",
"=. c #891A21",
"-. c #83797A",
";. c #72868A",
":. c #7C9498",
">. c #819B9E",
",. c #809B9F",
"<. c #92B1B5",
"1. c #93B2B6",
"2. c #B2CBCD",
"3. c None",
/* pixels */
"3.3.3.3.3.3.3.3.3.3.3.3.3.3.3.3.",
"3.3.3.3.3.  - w r q & 3.3.3.3.3.",
"3.3.3.3.. t [ ' ` _ p % 3.3.3.3.",
"3.3.3.3.e ..l Y / ) -.^ # 3.3.3.",
"3.3.3.3.g %.y ( 1.2.2.<.! 3.3.3.",
"3.3.X = f #.u ~ ;.:.,.>.Q 3.3.3.",
"3.3.i a h $.z 3 T E W R $ 3.3.3.",
"3.3.m v d +. .x j k k s * 3.3.3.",
"3.3.n 7 c =.o.O.O.O.@.{ ; 3.3.3.",
"3.3.n 8 5 K | o.o.o.X.&.: 3.3.3.",
"3.3.b 0 6 G J *.} ] L H > 3.3.3.",
"3.3., < 6 P S M C Z D A > 3.3.3.",
"3.3.3.3.4 I N + O B F V @ 3.3.3.",
"3.3.3.3.6 U n 3.3.n U n o 3.3.3.",
"3.3.3.3.< 9 2 3.3.2 8 1 3.3.3.3.",
"3.3.3.3.3.3.3.3.3.3.3.3.3.3.3.3."
};
