/* XPM */
static char *d87dfa616c694bbae052f7ba176e02efySWt2kobmxHiqYbf[] = {
/* columns rows colors chars-per-pixel */
"48 48 6 1 ",
"  c None",
". c #0B1428",
"X c #0E1D3C",
"o c #132A59",
"O c #1B3D82",
"+ c #2761D5",
/* pixels */
"                                                ",
"                                                ",
"         ++++++++++++++++++++++++++++++         ",
"      ++++++++++++++++++++++++++++++++++++      ",
"     ++++OOOOOOOOOOOOOOOOOOOOOOOOOOOOOO++++     ",
"    +++OOOOOOOOOOOOOOOOOOOOOOOOOOOOOOOOOO+++    ",
"   +++OOOooooooooooooooooooooooooooooooOOO+++   ",
"   ++OOOooooooooooooooooooooooooooooooooOOO++   ",
"   ++OOoooXXXXXXXXXXXXXXXXXXXXXXXXXXXXoooOO++   ",
"  ++OOoooXXXXXXXXXXXXXXXXXXXXXXXXXXXXXXoooOO++  ",
"  ++OOooXXX..........................XXXooOO++  ",
"  ++OOooXX............................XXooOO++  ",
"  ++OOooXX..                        ..XXooOO++  ",
"  ++OOooXX..                        ..XXooOO++  ",
"  ++OOooXX..                        ..XXooOO++  ",
"  ++OOooXX..                        ..XXooOO++  ",
"  ++OOooXX..                        ..XXooOO++  ",
"  ++OOooXX..                        ..XXooOO++  ",
"  ++OOooXX..                        ..XXooOO++  ",
"  ++OOooXX..                        ..XXooOO++  ",
"  ++OOooXX..                        ..XXooOO++  ",
"  ++OOooXX..                        ..XXooOO++  ",
"  ++OOooXX..                        ..XXooOO++  ",
"  ++OOooXX..                        ..XXooOO++  ",
"  ++OOooXX..                        ..XXooOO++  ",
"  ++OOooXX..                        ..XXooOO++  ",
"  ++OOooXX..                        ..XXooOO++  ",
"  ++OOooXX..                        ..XXooOO++  ",
"  ++OOooXX..                        ..XXooOO++  ",
"  ++OOooXX..                        ..XXooOO++  ",
"  ++OOooXX..                        ..XXooOO++  ",
"  ++OOooXX..                        ..XXooOO++  ",
"  ++OOooXX..                        ..XXooOO++  ",
"  ++OOooXX..                        ..XXooOO++  ",
"  ++OOooXX..                        ..XXooOO++  ",
"  ++OOooXX..                        ..XXooOO++  ",
"  ++OOooXX............................XXooOO++  ",
"  ++OOooXXX..........................XXXooOO++  ",
"  ++OOoooXXXXXXXXXXXXXXXXXXXXXXXXXXXXXXoooOO++  ",
"   ++OOoooXXXXXXXXXXXXXXXXXXXXXXXXXXXXoooOO++   ",
"   ++OOOooooooooooooooooooooooooooooooooOOO++   ",
"   +++OOOooooooooooooooooooooooooooooooOOO+++   ",
"    +++OOOOOOOOOOOOOOOOOOOOOOOOOOOOOOOOOO+++    ",
"     ++++OOOOOOOOOOOOOOOOOOOOOOOOOOOOOO++++     ",
"      ++++++++++++++++++++++++++++++++++++      ",
"         ++++++++++++++++++++++++++++++         ",
"                                                ",
"                                                "
};
