/* XPM */
static char *result[] = {
/* columns rows colors chars-per-pixel */
"64 64 6 1 ",
"  c #0B1428",
". c #0E1D3C",
"X c #132A59",
"o c #1B3D82",
"O c #2761D5",
"+ c None",
/* pixels */
"++OOooXX..  ++++++++++++++++++++++++++++++++++++++++  ..XXooOO++",
"+OOOooXX..  ++++++++++++++++++++++++++++++++++++++++  ..XXooOOO+",
"OOOoooXX..  ++++++++++++++++++++++++++++++++++++++++  ..XXoooOOO",
"OOoooXX..   ++++++++++++++++++++++++++++++++++++++++   ..XXoooOO",
"ooooXXX..  ++++++++++++++++++++++++++++++++++++++++++  ..XXXoooo",
"oooXXX..   ++++++++++++++++++++++++++++++++++++++++++   ..XXXooo",
"XXXXX...  ++++++++++++++++++++++++++++++++++++++++++++  ...XXXXX",
"XXX....   ++++++++++++++++++++++++++++++++++++++++++++   ....XXX",
".....    ++++++++++++++++++++++++++++++++++++++++++++++    .....",
"...     ++++++++++++++++++++++++++++++++++++++++++++++++     ...",
"      ++++++++++++++++++++++++++++++++++++++++++++++++++++      ",
"    ++++++++++++++++++++++++++++++++++++++++++++++++++++++++    ",
"++++++++++++++++++++++++++++++++++++++++++++++++++++++++++++++++",
"++++++++++++++++++++++++++++++++++++++++++++++++++++++++++++++++",
"++++++++++++++++++++++++++++++++++++++++++++++++++++++++++++++++",
"++++++++++++++++++++++++++++++++++++++++++++++++++++++++++++++++",
"++++++++++++++++++++++++++++++++++++++++++++++++++++++++++++++++",
"++++++++++++++++++++++++++++++++++++++++++++++++++++++++++++++++",
"++++++++++++++++++++++++++++++++++++++++++++++++++++++++++++++++",
"++++++++++++++++++++++++++++++++++++++++++++++++++++++++++++++++",
"++++++++++++++++++++++++++++++++++++++++++++++++++++++++++++++++",
"++++++++++++++++++++++++++++++++++++++++++++++++++++++++++++++++",
"++++++++++++++++++++++++++++++++++++++++++++++++++++++++++++++++",
"++++++++++++++++++++++++++++++++++++++++++++++++++++++++++++++++",
"++++++++++++++++++++++++++++++++++++++++++++++++++++++++++++++++",
"++++++++++++++++++++++++++++++++++++++++++++++++++++++++++++++++",
"++++++++++++++++++++++++++++++++++++++++++++++++++++++++++++++++",
"++++++++++++++++++++++++++++++++++++++++++++++++++++++++++++++++",
"++++++++++++++++++++++++++++++++++++++++++++++++++++++++++++++++",
"++++++++++++++++++++++++++++++++++++++++++++++++++++++++++++++++",
"++++++++++++++++++++++++++++++++++++++++++++++++++++++++++++++++",
"++++++++++++++++++++++++++++++++++++++++++++++++++++++++++++++++",
"++++++++++++++++++++++++++++++++++++++++++++++++++++++++++++++++",
"++++++++++++++++++++++++++++++++++++++++++++++++++++++++++++++++",
"++++++++++++++++++++++++++++++++++++++++++++++++++++++++++++++++",
"++++++++++++++++++++++++++++++++++++++++++++++++++++++++++++++++",
"++++++++++++++++++++++++++++++++++++++++++++++++++++++++++++++++",
"++++++++++++++++++++++++++++++++++++++++++++++++++++++++++++++++",
"++++++++++++++++++++++++++++++++++++++++++++++++++++++++++++++++",
"++++++++++++++++++++++++++++++++++++++++++++++++++++++++++++++++",
"++++++++++++++++++++++++++++++++++++++++++++++++++++++++++++++++",
"++++++++++++++++++++++++++++++++++++++++++++++++++++++++++++++++",
"++++++++++++++++++++++++++++++++++++++++++++++++++++++++++++++++",
"++++++++++++++++++++++++++++++++++++++++++++++++++++++++++++++++",
"++++++++++++++++++++++++++++++++++++++++++++++++++++++++++++++++",
"++++++++++++++++++++++++++++++++++++++++++++++++++++++++++++++++",
"++++++++++++++++++++++++++++++++++++++++++++++++++++++++++++++++",
"++++++++++++++++++++++++++++++++++++++++++++++++++++++++++++++++",
"++++++++++++++++++++++++++++++++++++++++++++++++++++++++++++++++",
"++++++++++++++++++++++++++++++++++++++++++++++++++++++++++++++++",
"++++++++++++++++++++++++++++++++++++++++++++++++++++++++++++++++",
"++++++++++++++++++++++++++++++++++++++++++++++++++++++++++++++++",
"    ++++++++++++++++++++++++++++++++++++++++++++++++++++++++    ",
"      ++++++++++++++++++++++++++++++++++++++++++++++++++++      ",
"...     ++++++++++++++++++++++++++++++++++++++++++++++++     ...",
".....    ++++++++++++++++++++++++++++++++++++++++++++++    .....",
"XXX....   ++++++++++++++++++++++++++++++++++++++++++++   ....XXX",
"XXXXX...  ++++++++++++++++++++++++++++++++++++++++++++  ...XXXXX",
"oooXXX..   ++++++++++++++++++++++++++++++++++++++++++   ..XXXooo",
"ooooXXX..  ++++++++++++++++++++++++++++++++++++++++++  ..XXXoooo",
"OOoooXX..   ++++++++++++++++++++++++++++++++++++++++   ..XXoooOO",
"OOOoooXX..  ++++++++++++++++++++++++++++++++++++++++  ..XXoooOOO",
"+OOOooXX..  ++++++++++++++++++++++++++++++++++++++++  ..XXooOOO+",
"++OOooXX..  ++++++++++++++++++++++++++++++++++++++++  ..XXooOO++"
};
