/* XPM */
static char *_35741bb97a34b56d9e85ddd9af9fae75PYfl5K1EzR7kubH[] = {
/* columns rows colors chars-per-pixel */
"64 64 6 1 ",
"  c None",
". c #0B1428",
"X c #0E1D3C",
"o c #132A59",
"O c #1B3D82",
"+ c #2761D5",
/* pixels */
"                                                    ..XXooOO++  ",
"                                                    ..XXooOO++  ",
"                                                    ..XXooOO++  ",
"                                                    ..XXooOO++  ",
"                                                    ..XXooOO++  ",
"                                                    ..XXooOO++  ",
"                                                    ..XXooOO++  ",
"                                                    ..XXooOO++  ",
"                                                    ..XXooOO++  ",
"                                                    ..XXooOO++  ",
"                                                    ..XXooOO++  ",
"                                                    ..XXooOO++  ",
"                                                    ..XXooOO++  ",
"                                                    ..XXooOO++  ",
"                                                    ..XXooOO++  ",
"                                                    ..XXooOO++  ",
"                                                    ..XXooOO++  ",
"                                                    ..XXooOO++  ",
"                                                    ..XXooOO++  ",
"                                                    ..XXooOO++  ",
"                                                    ..XXooOO++  ",
"                                                    ..XXooOO++  ",
"                                                    ..XXooOO++  ",
"                                                    ..XXooOO++  ",
"                                                    ..XXooOO++  ",
"                                                    ..XXooOO++  ",
"                                                    ..XXooOO++  ",
"                                                    ..XXooOO++  ",
"                                                    ..XXooOO++  ",
"                                                    ..XXooOO++  ",
"                                                    ..XXooOO++  ",
"                                                    ..XXooOO++  ",
"                                                    ..XXooOO++  ",
"                                                    ..XXooOO++  ",
"                                                    ..XXooOO++  ",
"                                                    ..XXooOO++  ",
"                                                    ..XXooOO++  ",
"                                                    ..XXooOO++  ",
"                                                    ..XXooOO++  ",
"                                                    ..XXooOO++  ",
"                                                    ..XXooOO++  ",
"                                                    ..XXooOO++  ",
"                                                    ..XXooOO++  ",
"                                                    ..XXooOO++  ",
"                                                    ..XXooOO++  ",
"                                                    ..XXooOO++  ",
"                                                    ..XXooOO++  ",
"                                                    ..XXooOO++  ",
"                                                    ..XXooOO++  ",
"                                                    ..XXooOO++  ",
"                                                    ..XXooOO++  ",
"                                                    ..XXooOO++  ",
"......................................................XXooOO++  ",
".....................................................XXXooOO++  ",
"XXXXXXXXXXXXXXXXXXXXXXXXXXXXXXXXXXXXXXXXXXXXXXXXXXXXXXXoooOO++  ",
"XXXXXXXXXXXXXXXXXXXXXXXXXXXXXXXXXXXXXXXXXXXXXXXXXXXXXXoooOO++   ",
"ooooooooooooooooooooooooooooooooooooooooooooooooooooooooOOO++   ",
"oooooooooooooooooooooooooooooooooooooooooooooooooooooooOOO+++   ",
"OOOOOOOOOOOOOOOOOOOOOOOOOOOOOOOOOOOOOOOOOOOOOOOOOOOOOOOOO+++    ",
"OOOOOOOOOOOOOOOOOOOOOOOOOOOOOOOOOOOOOOOOOOOOOOOOOOOOOOO++++     ",
"++++++++++++++++++++++++++++++++++++++++++++++++++++++++++      ",
"+++++++++++++++++++++++++++++++++++++++++++++++++++++++         ",
"                                                                ",
"                                                                "
};
