/* XPM */
static char *result[] = {
/* columns rows colors chars-per-pixel */
"64 64 6 1 ",
"  c #0B1428",
". c #0E1D3C",
"X c #132A59",
"o c #1B3D82",
"O c #2761D5",
"+ c None",
/* pixels */
"++++++++++++++++++++++++++++++++++++++++++++++++++++  ..XXooOO++",
"++++++++++++++++++++++++++++++++++++++++++++++++++++  ..XXooOO++",
"++++++++++++++++++++++++++++++++++++++++++++++++++++  ..XXooOO++",
"++++++++++++++++++++++++++++++++++++++++++++++++++++  ..XXooOO++",
"++++++++++++++++++++++++++++++++++++++++++++++++++++  ..XXooOO++",
"++++++++++++++++++++++++++++++++++++++++++++++++++++  ..XXooOO++",
"++++++++++++++++++++++++++++++++++++++++++++++++++++  ..XXooOO++",
"++++++++++++++++++++++++++++++++++++++++++++++++++++  ..XXooOO++",
"++++++++++++++++++++++++++++++++++++++++++++++++++++  ..XXooOO++",
"++++++++++++++++++++++++++++++++++++++++++++++++++++  ..XXooOO++",
"++++++++++++++++++++++++++++++++++++++++++++++++++++  ..XXooOO++",
"++++++++++++++++++++++++++++++++++++++++++++++++++++  ..XXooOO++",
"++++++++++++++++++++++++++++++++++++++++++++++++++++  ..XXooOO++",
"++++++++++++++++++++++++++++++++++++++++++++++++++++  ..XXooOO++",
"++++++++++++++++++++++++++++++++++++++++++++++++++++  ..XXooOO++",
"++++++++++++++++++++++++++++++++++++++++++++++++++++  ..XXooOO++",
"++++++++++++++++++++++++++++++++++++++++++++++++++++  ..XXooOO++",
"++++++++++++++++++++++++++++++++++++++++++++++++++++  ..XXooOO++",
"++++++++++++++++++++++++++++++++++++++++++++++++++++  ..XXooOO++",
"++++++++++++++++++++++++++++++++++++++++++++++++++++  ..XXooOO++",
"++++++++++++++++++++++++++++++++++++++++++++++++++++  ..XXooOO++",
"++++++++++++++++++++++++++++++++++++++++++++++++++++  ..XXooOO++",
"++++++++++++++++++++++++++++++++++++++++++++++++++++  ..XXooOO++",
"++++++++++++++++++++++++++++++++++++++++++++++++++++  ..XXooOO++",
"++++++++++++++++++++++++++++++++++++++++++++++++++++  ..XXooOO++",
"++++++++++++++++++++++++++++++++++++++++++++++++++++  ..XXooOO++",
"++++++++++++++++++++++++++++++++++++++++++++++++++++  ..XXooOO++",
"++++++++++++++++++++++++++++++++++++++++++++++++++++  ..XXooOO++",
"++++++++++++++++++++++++++++++++++++++++++++++++++++  ..XXooOO++",
"++++++++++++++++++++++++++++++++++++++++++++++++++++  ..XXooOO++",
"++++++++++++++++++++++++++++++++++++++++++++++++++++  ..XXooOO++",
"++++++++++++++++++++++++++++++++++++++++++++++++++++  ..XXooOO++",
"++++++++++++++++++++++++++++++++++++++++++++++++++++  ..XXooOO++",
"++++++++++++++++++++++++++++++++++++++++++++++++++++  ..XXooOO++",
"++++++++++++++++++++++++++++++++++++++++++++++++++++  ..XXooOO++",
"++++++++++++++++++++++++++++++++++++++++++++++++++++  ..XXooOO++",
"++++++++++++++++++++++++++++++++++++++++++++++++++++  ..XXooOO++",
"++++++++++++++++++++++++++++++++++++++++++++++++++++  ..XXooOO++",
"++++++++++++++++++++++++++++++++++++++++++++++++++++  ..XXooOO++",
"++++++++++++++++++++++++++++++++++++++++++++++++++++  ..XXooOO++",
"++++++++++++++++++++++++++++++++++++++++++++++++++++  ..XXooOO++",
"++++++++++++++++++++++++++++++++++++++++++++++++++++  ..XXooOO++",
"++++++++++++++++++++++++++++++++++++++++++++++++++++  ..XXooOO++",
"++++++++++++++++++++++++++++++++++++++++++++++++++++  ..XXooOO++",
"++++++++++++++++++++++++++++++++++++++++++++++++++++  ..XXooOO++",
"++++++++++++++++++++++++++++++++++++++++++++++++++++  ..XXooOO++",
"++++++++++++++++++++++++++++++++++++++++++++++++++++  ..XXooOO++",
"++++++++++++++++++++++++++++++++++++++++++++++++++++  ..XXooOO++",
"++++++++++++++++++++++++++++++++++++++++++++++++++++  ..XXooOO++",
"++++++++++++++++++++++++++++++++++++++++++++++++++++  ..XXooOO++",
"++++++++++++++++++++++++++++++++++++++++++++++++++++  ..XXooOO++",
"++++++++++++++++++++++++++++++++++++++++++++++++++++  ..XXooOO++",
"    ++++++++++++++++++++++++++++++++++++++++++++++++  ..XXooOO++",
"      ++++++++++++++++++++++++++++++++++++++++++++++  ..XXooOO++",
"...     ++++++++++++++++++++++++++++++++++++++++++++  ..XXooOO++",
".....    +++++++++++++++++++++++++++++++++++++++++++  ..XXooOO++",
"XXX....   ++++++++++++++++++++++++++++++++++++++++++  ..XXooOO++",
"XXXXX...  ++++++++++++++++++++++++++++++++++++++++++  ..XXooOO++",
"oooXXX..   +++++++++++++++++++++++++++++++++++++++++  ..XXooOO++",
"ooooXXX..  +++++++++++++++++++++++++++++++++++++++++  ..XXooOO++",
"OOoooXX..   ++++++++++++++++++++++++++++++++++++++++  ..XXooOO++",
"OOOoooXX..  ++++++++++++++++++++++++++++++++++++++++  ..XXooOO++",
"+OOOooXX..  ++++++++++++++++++++++++++++++++++++++++  ..XXooOO++",
"++OOooXX..  ++++++++++++++++++++++++++++++++++++++++  ..XXooOO++"
};
