/* XPM */
static char *c840c0fbd11b4aa4bb9bc4431b85fc2dOen1CDbjX0G7RFot[] = {
/* columns rows colors chars-per-pixel */
"64 64 6 1 ",
"  c None",
". c #0B1428",
"X c #0E1D3C",
"o c #132A59",
"O c #1B3D82",
"+ c #2761D5",
/* pixels */
"                                                    ..XXooOO++  ",
"                                                    ..XXooOO++  ",
"                                                    ..XXooOO++  ",
"                                                    ..XXooOO++  ",
"                                                    ..XXooOO++  ",
"                                                    ..XXooOO++  ",
"                                                    ..XXooOO++  ",
"                                                    ..XXooOO++  ",
"                                                    ..XXooOO++  ",
"                                                    ..XXooOO++  ",
"                                                    ..XXooOO++  ",
"                                                    ..XXooOO++  ",
"                                                    ..XXooOO++  ",
"                                                    ..XXooOO++  ",
"                                                    ..XXooOO++  ",
"                                                    ..XXooOO++  ",
"                                                    ..XXooOO++  ",
"                                                    ..XXooOO++  ",
"                                                    ..XXooOO++  ",
"                                                    ..XXooOO++  ",
"                                                    ..XXooOO++  ",
"                                                    ..XXooOO++  ",
"                                                    ..XXooOO++  ",
"                                                    ..XXooOO++  ",
"                                                    ..XXooOO++  ",
"                                                    ..XXooOO++  ",
"                                                    ..XXooOO++  ",
"                                                    ..XXooOO++  ",
"                                                    ..XXooOO++  ",
"                                                    ..XXooOO++  ",
"                                                    ..XXooOO++  ",
"                                                    ..XXooOO++  ",
"                                                    ..XXooOO++  ",
"                                                    ..XXooOO++  ",
"                                                    ..XXooOO++  ",
"                                                    ..XXooOO++  ",
"                                                    ..XXooOO++  ",
"                                                    ..XXooOO++  ",
"                                                    ..XXooOO++  ",
"                                                    ..XXooOO++  ",
"                                                    ..XXooOO++  ",
"                                                    ..XXooOO++  ",
"                                                    ..XXooOO++  ",
"                                                    ..XXooOO++  ",
"                                                    ..XXooOO++  ",
"                                                    ..XXooOO++  ",
"                                                    ..XXooOO++  ",
"                                                    ..XXooOO++  ",
"                                                    ..XXooOO++  ",
"                                                    ..XXooOO++  ",
"                                                    ..XXooOO++  ",
"                                                    ..XXooOO++  ",
"                                                    ..XXooOO++  ",
"                                                    ..XXooOO++  ",
"                                                    ..XXooOO++  ",
"                                                    ..XXooOO++  ",
"                                                    ..XXooOO++  ",
"                                                    ..XXooOO++  ",
"                                                    ..XXooOO++  ",
"                                                    ..XXooOO++  ",
"                                                    ..XXooOO++  ",
"                                                    ..XXooOO++  ",
"                                                    ..XXooOO++  ",
"                                                    ..XXooOO++  "
};
